Hundar.ufo
<glyph name="quotedbl" format="2">
  <advance width="380"/>
  <unicode hex="0022"/>
  <note>
quotedbl
</note>
  <outline>
    <contour>
      <point x="90" y="641" type="curve"/>
      <point x="101" y="571"/>
      <point x="105" y="499"/>
      <point x="105" y="417" type="curve"/>
      <point x="114" y="417"/>
      <point x="143" y="423"/>
      <point x="152" y="429" type="curve"/>
      <point x="156" y="511"/>
      <point x="163" y="583"/>
      <point x="176" y="653" type="curve"/>
      <point x="150" y="653"/>
      <point x="112" y="648"/>
    </contour>
    <contour>
      <point x="222" y="641" type="curve"/>
      <point x="232" y="571"/>
      <point x="236" y="499"/>
      <point x="236" y="417" type="curve"/>
      <point x="245" y="417"/>
      <point x="275" y="423"/>
      <point x="283" y="429" type="curve"/>
      <point x="288" y="511"/>
      <point x="294" y="583"/>
      <point x="307" y="653" type="curve"/>
      <point x="281" y="653"/>
      <point x="243" y="648"/>
    </contour>
  </outline>
</glyph>
<glyph name="numbersign" format="2">
  <advance width="453"/>
  <unicode hex="0023"/>
  <note>
numbersign
</note>
  <outline>
    <contour>
      <point x="183" y="-76" type="curve"/>
      <point x="196" y="-75"/>
      <point x="229" y="-68"/>
      <point x="243" y="-62" type="curve"/>
      <point x="236" y="-3"/>
      <point x="363" y="476"/>
      <point x="387" y="537" type="curve"/>
      <point x="374" y="536"/>
      <point x="330" y="527"/>
      <point x="319" y="523" type="curve"/>
      <point x="312" y="466"/>
      <point x="187" y="-22"/>
    </contour>
    <contour>
      <point x="43" y="-76" type="curve"/>
      <point x="56" y="-75"/>
      <point x="88" y="-68"/>
      <point x="102" y="-62" type="curve"/>
      <point x="96" y="-3"/>
      <point x="222" y="476"/>
      <point x="246" y="537" type="curve"/>
      <point x="233" y="536"/>
      <point x="188" y="527"/>
      <point x="178" y="523" type="curve"/>
      <point x="170" y="466"/>
      <point x="47" y="-22"/>
    </contour>
    <contour>
      <point x="-5" y="91" type="curve"/>
      <point x="49" y="97"/>
      <point x="300" y="111"/>
      <point x="358" y="113" type="curve"/>
      <point x="364" y="122"/>
      <point x="377" y="167"/>
      <point x="380" y="180" type="curve"/>
      <point x="317" y="169"/>
      <point x="75" y="156"/>
      <point x="17" y="157" type="curve"/>
      <point x="9" y="144"/>
      <point x="-2" y="104"/>
    </contour>
    <contour>
      <point x="36" y="281" type="curve"/>
      <point x="90" y="287"/>
      <point x="341" y="301"/>
      <point x="399" y="303" type="curve"/>
      <point x="405" y="312"/>
      <point x="418" y="357"/>
      <point x="421" y="370" type="curve"/>
      <point x="358" y="359"/>
      <point x="116" y="346"/>
      <point x="58" y="347" type="curve"/>
      <point x="50" y="334"/>
      <point x="39" y="294"/>
    </contour>
  </outline>
</glyph>
<glyph name="dollar" format="2">
  <advance width="533"/>
  <unicode hex="0024"/>
  <note>
dollar
</note>
  <outline>
    <contour>
      <point x="292" y="559" type="curve" smooth="yes"/>
      <point x="348" y="559"/>
      <point x="391" y="538"/>
      <point x="398" y="452" type="curve"/>
      <point x="400" y="451"/>
      <point x="409" y="449"/>
      <point x="415" y="449" type="curve" smooth="yes"/>
      <point x="421" y="449"/>
      <point x="429" y="450"/>
      <point x="433" y="452" type="curve"/>
      <point x="457" y="582" type="line"/>
      <point x="436" y="588"/>
      <point x="332" y="606"/>
      <point x="297" y="606" type="curve" smooth="yes"/>
      <point x="190" y="606"/>
      <point x="101" y="542"/>
      <point x="101" y="450" type="curve" smooth="yes"/>
      <point x="101" y="377"/>
      <point x="155" y="331"/>
      <point x="242" y="279" type="curve" smooth="yes"/>
      <point x="335" y="224"/>
      <point x="384" y="190"/>
      <point x="384" y="137" type="curve" smooth="yes"/>
      <point x="384" y="75"/>
      <point x="315" y="49"/>
      <point x="267" y="49" type="curve" smooth="yes"/>
      <point x="194" y="49"/>
      <point x="141" y="74"/>
      <point x="128" y="184" type="curve"/>
      <point x="124" y="185"/>
      <point x="118" y="186"/>
      <point x="114" y="186" type="curve" smooth="yes"/>
      <point x="104" y="186"/>
      <point x="96" y="183"/>
      <point x="92" y="181" type="curve"/>
      <point x="88" y="40" type="line"/>
      <point x="126" y="17"/>
      <point x="209" y="0"/>
      <point x="246" y="0" type="curve" smooth="yes"/>
      <point x="348" y="0"/>
      <point x="464" y="61"/>
      <point x="464" y="180" type="curve" smooth="yes"/>
      <point x="464" y="241"/>
      <point x="433" y="277"/>
      <point x="313" y="343" type="curve" smooth="yes"/>
      <point x="223" y="392"/>
      <point x="174" y="419"/>
      <point x="174" y="484" type="curve" smooth="yes"/>
      <point x="174" y="532"/>
      <point x="229" y="559"/>
    </contour>
    <contour>
      <point x="246" y="-95" type="curve"/>
      <point x="259" y="-94"/>
      <point x="282" y="-87"/>
      <point x="296" y="-81" type="curve"/>
      <point x="290" y="-21"/>
      <point x="299" y="635"/>
      <point x="323" y="696" type="curve"/>
      <point x="310" y="695"/>
      <point x="275" y="686"/>
      <point x="264" y="682" type="curve"/>
      <point x="257" y="625"/>
      <point x="250" y="-41"/>
    </contour>
  </outline>
</glyph>
<glyph name="percent" format="2">
  <advance width="700"/>
  <unicode hex="0025"/>
  <note>
percent
</note>
  <outline>
    <contour>
      <point x="115" y="3" type="curve"/>
      <point x="127" y="-6"/>
      <point x="167" y="-14"/>
      <point x="183" y="-12" type="curve"/>
      <point x="206" y="49"/>
      <point x="556" y="559"/>
      <point x="596" y="611" type="curve"/>
      <point x="586" y="619"/>
      <point x="538" y="633"/>
      <point x="523" y="632" type="curve"/>
      <point x="500" y="579"/>
      <point x="159" y="78"/>
    </contour>
    <contour>
      <point x="379" y="138" type="curve" smooth="yes"/>
      <point x="379" y="62"/>
      <point x="429" y="-11"/>
      <point x="507" y="-11" type="curve" smooth="yes"/>
      <point x="546" y="-11"/>
      <point x="654" y="44"/>
      <point x="654" y="156" type="curve" smooth="yes"/>
      <point x="654" y="229"/>
      <point x="610" y="302"/>
      <point x="529" y="302" type="curve" smooth="yes"/>
      <point x="479" y="302"/>
      <point x="379" y="245"/>
    </contour>
    <contour>
      <point x="518" y="245" type="curve" smooth="yes"/>
      <point x="566" y="245"/>
      <point x="589" y="200"/>
      <point x="589" y="147" type="curve" smooth="yes"/>
      <point x="589" y="91"/>
      <point x="563" y="46"/>
      <point x="519" y="46" type="curve" smooth="yes"/>
      <point x="479" y="46"/>
      <point x="443" y="85"/>
      <point x="443" y="148" type="curve" smooth="yes"/>
      <point x="443" y="205"/>
      <point x="472" y="245"/>
    </contour>
    <contour>
      <point x="47" y="471" type="curve" smooth="yes"/>
      <point x="47" y="396"/>
      <point x="97" y="322"/>
      <point x="174" y="322" type="curve" smooth="yes"/>
      <point x="213" y="322"/>
      <point x="319" y="377"/>
      <point x="319" y="491" type="curve" smooth="yes"/>
      <point x="319" y="563"/>
      <point x="276" y="636"/>
      <point x="196" y="636" type="curve" smooth="yes"/>
      <point x="147" y="636"/>
      <point x="47" y="579"/>
    </contour>
    <contour>
      <point x="184" y="579" type="curve" smooth="yes"/>
      <point x="232" y="579"/>
      <point x="255" y="534"/>
      <point x="255" y="481" type="curve" smooth="yes"/>
      <point x="255" y="425"/>
      <point x="229" y="379"/>
      <point x="186" y="379" type="curve" smooth="yes"/>
      <point x="147" y="379"/>
      <point x="111" y="418"/>
      <point x="111" y="482" type="curve" smooth="yes"/>
      <point x="111" y="539"/>
      <point x="140" y="579"/>
    </contour>
  </outline>
</glyph>
<glyph name="ampersand" format="2">
  <advance width="739"/>
  <unicode hex="0026"/>
  <note>
ampersand
</note>
  <outline>
    <contour>
      <point x="126" y="466" type="curve" smooth="yes"/>
      <point x="126" y="427"/>
      <point x="144" y="395"/>
      <point x="204" y="332" type="curve"/>
      <point x="79" y="255"/>
      <point x="35" y="216"/>
      <point x="35" y="147" type="curve" smooth="yes"/>
      <point x="35" y="49"/>
      <point x="123" y="-17"/>
      <point x="208" y="-17" type="curve" smooth="yes"/>
      <point x="294" y="-17"/>
      <point x="357" y="18"/>
      <point x="412" y="98" type="curve"/>
      <point x="468" y="46"/>
      <point x="531" y="-1"/>
      <point x="579" y="-24" type="curve"/>
      <point x="620" y="-23"/>
      <point x="692" y="-10"/>
      <point x="720" y="11" type="curve"/>
      <point x="727" y="46" type="line"/>
      <point x="617" y="37"/>
      <point x="572" y="61"/>
      <point x="454" y="169" type="curve"/>
      <point x="485" y="215"/>
      <point x="572" y="422"/>
      <point x="669" y="430" type="curve" smooth="yes"/>
      <point x="681" y="431" type="line"/>
      <point x="688" y="444"/>
      <point x="690" y="456"/>
      <point x="689" y="469" type="curve"/>
      <point x="667" y="462"/>
      <point x="604" y="447"/>
      <point x="560" y="447" type="curve" smooth="yes"/>
      <point x="516" y="447"/>
      <point x="492" y="447"/>
      <point x="466" y="452" type="curve"/>
      <point x="459" y="445"/>
      <point x="454" y="428"/>
      <point x="454" y="419" type="curve"/>
      <point x="531" y="404" type="line"/>
      <point x="501" y="335"/>
      <point x="455" y="267"/>
      <point x="415" y="203" type="curve"/>
      <point x="294" y="339" type="line"/>
      <point x="344" y="364"/>
      <point x="436" y="431"/>
      <point x="436" y="510" type="curve" smooth="yes"/>
      <point x="436" y="573"/>
      <point x="380" y="622"/>
      <point x="298" y="622" type="curve" smooth="yes"/>
      <point x="224" y="622"/>
      <point x="126" y="557"/>
    </contour>
    <contour>
      <point x="284" y="582" type="curve" smooth="yes"/>
      <point x="342" y="582"/>
      <point x="365" y="524"/>
      <point x="365" y="489" type="curve" smooth="yes"/>
      <point x="365" y="438"/>
      <point x="319" y="395"/>
      <point x="272" y="369" type="curve"/>
      <point x="234" y="412"/>
      <point x="201" y="452"/>
      <point x="201" y="496" type="curve" smooth="yes"/>
      <point x="201" y="542"/>
      <point x="236" y="582"/>
    </contour>
    <contour>
      <point x="224" y="303" type="curve"/>
      <point x="371" y="130" type="line"/>
      <point x="334" y="73"/>
      <point x="298" y="48"/>
      <point x="242" y="48" type="curve" smooth="yes"/>
      <point x="183" y="48"/>
      <point x="116" y="104"/>
      <point x="116" y="172" type="curve" smooth="yes"/>
      <point x="116" y="235"/>
      <point x="173" y="272"/>
    </contour>
  </outline>
</glyph>
<glyph name="quotesingle" format="2">
  <advance width="179"/>
  <unicode hex="0027"/>
  <note>
quotesingle
</note>
  <outline>
    <contour>
      <point x="47" y="641" type="curve"/>
      <point x="57" y="571"/>
      <point x="61" y="499"/>
      <point x="61" y="417" type="curve"/>
      <point x="70" y="417"/>
      <point x="100" y="423"/>
      <point x="108" y="429" type="curve"/>
      <point x="113" y="511"/>
      <point x="119" y="583"/>
      <point x="132" y="653" type="curve"/>
      <point x="106" y="653"/>
      <point x="68" y="648"/>
    </contour>
  </outline>
</glyph>
<glyph name="asterisk" format="2">
  <advance width="316"/>
  <unicode hex="002A"/>
  <note>
asterisk
</note>
  <outline>
    <contour>
      <point x="224" y="666" type="curve"/>
      <point x="209" y="678"/>
      <point x="187" y="682"/>
      <point x="168" y="682" type="curve"/>
      <point x="158" y="600"/>
      <point x="136" y="501"/>
      <point x="88" y="424" type="curve"/>
      <point x="104" y="412"/>
      <point x="125" y="406"/>
      <point x="146" y="405" type="curve"/>
      <point x="156" y="487"/>
      <point x="174" y="572"/>
    </contour>
    <contour>
      <point x="293" y="555" type="curve"/>
      <point x="294" y="573"/>
      <point x="287" y="598"/>
      <point x="279" y="613" type="curve"/>
      <point x="208" y="570"/>
      <point x="115" y="546"/>
      <point x="19" y="542" type="curve"/>
      <point x="18" y="519"/>
      <point x="28" y="497"/>
      <point x="39" y="483" type="curve"/>
      <point x="112" y="532"/>
      <point x="204" y="545"/>
    </contour>
    <contour>
      <point x="236" y="426" type="curve"/>
      <point x="251" y="434"/>
      <point x="276" y="452"/>
      <point x="282" y="469" type="curve"/>
      <point x="213" y="507"/>
      <point x="134" y="590"/>
      <point x="88" y="668" type="curve"/>
      <point x="70" y="660"/>
      <point x="51" y="643"/>
      <point x="44" y="624" type="curve"/>
      <point x="115" y="572"/>
      <point x="186" y="506"/>
    </contour>
  </outline>
</glyph>
<glyph name="comma" format="2">
  <advance width="174"/>
  <unicode hex="002C"/>
  <note>
comma
</note>
  <outline>
    <contour>
      <point x="137" y="115" type="curve"/>
      <point x="106" y="115"/>
      <point x="62" y="101"/>
      <point x="39" y="83" type="curve"/>
      <point x="55" y="61"/>
      <point x="61" y="34"/>
      <point x="61" y="6" type="curve" smooth="yes"/>
      <point x="61" y="-45"/>
      <point x="39" y="-97"/>
      <point x="7" y="-125" type="curve"/>
      <point x="12" y="-132"/>
      <point x="25" y="-139"/>
      <point x="35" y="-142" type="curve"/>
      <point x="88" y="-116"/>
      <point x="142" y="-28"/>
      <point x="142" y="61" type="curve" smooth="yes"/>
      <point x="142" y="80"/>
      <point x="140" y="102"/>
    </contour>
  </outline>
</glyph>
<glyph name="hyphen" format="2">
  <advance width="293"/>
  <unicode hex="002D"/>
  <note>
hyphen
</note>
  <outline>
    <contour>
      <point x="242" y="186" type="curve"/>
      <point x="247" y="200"/>
      <point x="248" y="228"/>
      <point x="246" y="247" type="curve"/>
      <point x="181" y="242"/>
      <point x="115" y="241"/>
      <point x="51" y="242" type="curve"/>
      <point x="47" y="223"/>
      <point x="46" y="196"/>
      <point x="47" y="178" type="curve"/>
      <point x="112" y="182"/>
      <point x="178" y="185"/>
    </contour>
  </outline>
</glyph>
<glyph name="slash" format="2">
  <advance width="410"/>
  <unicode hex="002F"/>
  <note>
slash
</note>
  <outline>
    <contour>
      <point x="24" y="-75" type="curve"/>
      <point x="35" y="-84"/>
      <point x="74" y="-92"/>
      <point x="90" y="-90" type="curve"/>
      <point x="110" y="-27"/>
      <point x="348" y="634"/>
      <point x="382" y="693" type="curve"/>
      <point x="371" y="701"/>
      <point x="330" y="714"/>
      <point x="315" y="713" type="curve"/>
      <point x="298" y="654"/>
      <point x="66" y="2"/>
    </contour>
  </outline>
</glyph>
<glyph name="zero" format="2">
  <advance width="501"/>
  <unicode hex="0030"/>
  <note>
zero
</note>
  <outline>
    <contour>
      <point x="52" y="291" type="curve" smooth="yes"/>
      <point x="52" y="154"/>
      <point x="93" y="-10"/>
      <point x="246" y="-10" type="curve" smooth="yes"/>
      <point x="379" y="-10"/>
      <point x="460" y="113"/>
      <point x="460" y="318" type="curve" smooth="yes"/>
      <point x="460" y="478"/>
      <point x="410" y="614"/>
      <point x="270" y="614" type="curve" smooth="yes"/>
      <point x="140" y="614"/>
      <point x="52" y="492"/>
    </contour>
    <contour>
      <point x="255" y="558" type="curve" smooth="yes"/>
      <point x="344" y="558"/>
      <point x="373" y="426"/>
      <point x="373" y="281" type="curve" smooth="yes"/>
      <point x="373" y="181"/>
      <point x="359" y="47"/>
      <point x="269" y="47" type="curve" smooth="yes"/>
      <point x="178" y="47"/>
      <point x="134" y="186"/>
      <point x="134" y="315" type="curve" smooth="yes"/>
      <point x="134" y="425"/>
      <point x="166" y="558"/>
    </contour>
  </outline>
</glyph>
<glyph name="one" format="2">
  <advance width="401"/>
  <unicode hex="0031"/>
  <note>
one
</note>
  <outline>
    <contour>
      <point x="372" y="-3" type="curve"/>
      <point x="379" y="34" type="line"/>
      <point x="260" y="56" type="line"/>
      <point x="257" y="136"/>
      <point x="256" y="232"/>
      <point x="256" y="317" type="curve" smooth="yes"/>
      <point x="256" y="438"/>
      <point x="257" y="546"/>
      <point x="265" y="615" type="curve"/>
      <point x="225" y="594"/>
      <point x="68" y="529"/>
      <point x="29" y="520" type="curve"/>
      <point x="27" y="507"/>
      <point x="23" y="474"/>
      <point x="24" y="465" type="curve"/>
      <point x="178" y="508" type="line"/>
      <point x="178" y="122" type="line" smooth="yes"/>
      <point x="178" y="63"/>
      <point x="88" y="45"/>
      <point x="34" y="34" type="curve"/>
      <point x="28" y="-3" type="line"/>
      <point x="89" y="0"/>
      <point x="143" y="0"/>
      <point x="205" y="0" type="curve" smooth="yes"/>
      <point x="266" y="0"/>
      <point x="309" y="0"/>
    </contour>
  </outline>
</glyph>
<glyph name="four" format="2">
  <advance width="458"/>
  <unicode hex="0034"/>
  <note>
four
</note>
  <outline>
    <contour>
      <point x="418" y="30" type="line"/>
      <point x="338" y="57" type="line"/>
      <point x="338" y="165" type="line"/>
      <point x="438" y="165" type="line"/>
      <point x="442" y="182"/>
      <point x="451" y="221"/>
      <point x="451" y="242" type="curve"/>
      <point x="338" y="231" type="line"/>
      <point x="338" y="324" type="line" smooth="yes"/>
      <point x="338" y="425"/>
      <point x="339" y="561"/>
      <point x="344" y="607" type="curve"/>
      <point x="325" y="607"/>
      <point x="311" y="601"/>
      <point x="295" y="595" type="curve"/>
      <point x="208" y="544"/>
      <point x="46" y="276"/>
      <point x="15" y="189" type="curve"/>
      <point x="16" y="182"/>
      <point x="25" y="169"/>
      <point x="30" y="165" type="curve"/>
      <point x="264" y="165" type="line"/>
      <point x="264" y="95" type="line" smooth="yes"/>
      <point x="264" y="63"/>
      <point x="248" y="42"/>
      <point x="214" y="35" type="curve" smooth="yes"/>
      <point x="186" y="30" type="line"/>
      <point x="180" y="-3" type="line"/>
      <point x="223" y="0"/>
      <point x="266" y="0"/>
      <point x="301" y="0" type="curve" smooth="yes"/>
      <point x="335" y="0"/>
      <point x="367" y="0"/>
      <point x="412" y="-3" type="curve"/>
    </contour>
    <contour>
      <point x="264" y="224" type="line"/>
      <point x="92" y="208" type="line"/>
      <point x="130" y="308"/>
      <point x="193" y="404"/>
      <point x="264" y="486" type="curve"/>
    </contour>
  </outline>
</glyph>
<glyph name="seven" format="2">
  <advance width="447"/>
  <unicode hex="0037"/>
  <note>
seven
</note>
  <outline>
    <contour>
      <point x="420" y="614" type="curve"/>
      <point x="371" y="610"/>
      <point x="296" y="607"/>
      <point x="236" y="607" type="curve" smooth="yes"/>
      <point x="187" y="607"/>
      <point x="94" y="609"/>
      <point x="34" y="619" type="curve"/>
      <point x="34" y="453" type="line"/>
      <point x="40" y="452"/>
      <point x="48" y="451"/>
      <point x="54" y="451" type="curve" smooth="yes"/>
      <point x="61" y="451"/>
      <point x="70" y="452"/>
      <point x="75" y="453" type="curve"/>
      <point x="112" y="551" type="line"/>
      <point x="347" y="551" type="line"/>
      <point x="193" y="266"/>
      <point x="134" y="145"/>
      <point x="102" y="5" type="curve"/>
      <point x="113" y="0"/>
      <point x="169" y="-8"/>
      <point x="183" y="-8" type="curve"/>
      <point x="231" y="205"/>
      <point x="333" y="397"/>
      <point x="442" y="582" type="curve"/>
      <point x="440" y="591"/>
      <point x="430" y="612"/>
    </contour>
  </outline>
</glyph>
<glyph name="semicolon" format="2">
  <advance width="221"/>
  <unicode hex="003B"/>
  <note>
semicolon
</note>
  <outline>
    <contour>
      <point x="165" y="115" type="curve"/>
      <point x="134" y="115"/>
      <point x="90" y="101"/>
      <point x="67" y="83" type="curve"/>
      <point x="83" y="61"/>
      <point x="89" y="34"/>
      <point x="89" y="6" type="curve" smooth="yes"/>
      <point x="89" y="-45"/>
      <point x="67" y="-97"/>
      <point x="34" y="-125" type="curve"/>
      <point x="40" y="-132"/>
      <point x="53" y="-139"/>
      <point x="63" y="-142" type="curve"/>
      <point x="116" y="-116"/>
      <point x="170" y="-28"/>
      <point x="170" y="61" type="curve" smooth="yes"/>
      <point x="170" y="80"/>
      <point x="168" y="102"/>
    </contour>
    <contour>
      <point x="175" y="317" type="curve"/>
      <point x="157" y="337"/>
      <point x="123" y="357"/>
      <point x="97" y="360" type="curve"/>
      <point x="74" y="341"/>
      <point x="55" y="308"/>
      <point x="49" y="277" type="curve"/>
      <point x="64" y="259"/>
      <point x="98" y="240"/>
      <point x="128" y="235" type="curve"/>
      <point x="147" y="250"/>
      <point x="170" y="288"/>
    </contour>
  </outline>
</glyph>
<glyph name="question" format="2">
  <advance width="387"/>
  <unicode hex="003F"/>
  <note>
question
</note>
  <outline>
    <contour>
      <point x="283" y="488" type="curve" smooth="yes"/>
      <point x="283" y="420"/>
      <point x="224" y="373"/>
      <point x="142" y="320" type="curve"/>
      <point x="147" y="285"/>
      <point x="150" y="250"/>
      <point x="150" y="209" type="curve" smooth="yes"/>
      <point x="150" y="196"/>
      <point x="150" y="181"/>
      <point x="149" y="164" type="curve"/>
      <point x="165" y="164"/>
      <point x="191" y="167"/>
      <point x="207" y="171" type="curve"/>
      <point x="206" y="183"/>
      <point x="206" y="195"/>
      <point x="206" y="205" type="curve" smooth="yes"/>
      <point x="206" y="238"/>
      <point x="209" y="266"/>
      <point x="217" y="304" type="curve"/>
      <point x="260" y="330"/>
      <point x="363" y="415"/>
      <point x="363" y="502" type="curve" smooth="yes"/>
      <point x="363" y="610"/>
      <point x="284" y="633"/>
      <point x="192" y="633" type="curve" smooth="yes"/>
      <point x="172" y="633"/>
      <point x="70" y="583"/>
      <point x="39" y="565" type="curve"/>
      <point x="60" y="459" type="line"/>
      <point x="63" y="455"/>
      <point x="71" y="454"/>
      <point x="78" y="454" type="curve" smooth="yes"/>
      <point x="86" y="454"/>
      <point x="93" y="455"/>
      <point x="99" y="458" type="curve"/>
      <point x="114" y="546" type="line"/>
      <point x="130" y="558"/>
      <point x="160" y="575"/>
      <point x="196" y="575" type="curve" smooth="yes"/>
      <point x="248" y="575"/>
      <point x="283" y="540"/>
    </contour>
    <contour>
      <point x="242" y="72" type="curve"/>
      <point x="224" y="92"/>
      <point x="190" y="112"/>
      <point x="164" y="115" type="curve"/>
      <point x="142" y="96"/>
      <point x="122" y="63"/>
      <point x="116" y="33" type="curve"/>
      <point x="131" y="14"/>
      <point x="165" y="-5"/>
      <point x="196" y="-10" type="curve"/>
      <point x="214" y="6"/>
      <point x="237" y="43"/>
    </contour>
  </outline>
</glyph>
<glyph name="A" format="2">
  <advance width="653"/>
  <unicode hex="0041"/>
  <note>
A
</note>
  <outline>
    <contour>
      <point x="27" y="36" type="curve"/>
      <point x="19" y="-3" type="line"/>
      <point x="72" y="0"/>
      <point x="87" y="0"/>
      <point x="115" y="0" type="curve" smooth="yes"/>
      <point x="143" y="0"/>
      <point x="161" y="0"/>
      <point x="224" y="-3" type="curve"/>
      <point x="235" y="27" type="line"/>
      <point x="154" y="47" type="line"/>
      <point x="156" y="58"/>
      <point x="186" y="160"/>
      <point x="204" y="206" type="curve" smooth="yes"/>
      <point x="209" y="219"/>
      <point x="213" y="229"/>
      <point x="236" y="231" type="curve" smooth="yes"/>
      <point x="254" y="232"/>
      <point x="276" y="233"/>
      <point x="296" y="233" type="curve" smooth="yes"/>
      <point x="317" y="233"/>
      <point x="338" y="232"/>
      <point x="358" y="231" type="curve" smooth="yes"/>
      <point x="397" y="229"/>
      <point x="411" y="220"/>
      <point x="416" y="203" type="curve" smooth="yes"/>
      <point x="468" y="49" type="line"/>
      <point x="399" y="31" type="line"/>
      <point x="395" y="-3" type="line"/>
      <point x="451" y="0"/>
      <point x="472" y="0"/>
      <point x="511" y="0" type="curve" smooth="yes"/>
      <point x="551" y="0"/>
      <point x="571" y="0"/>
      <point x="627" y="-3" type="curve"/>
      <point x="634" y="32" type="line"/>
      <point x="574" y="44"/>
      <point x="562" y="62"/>
      <point x="525" y="159" type="curve" smooth="yes"/>
      <point x="490" y="249"/>
      <point x="410" y="465"/>
      <point x="377" y="595" type="curve" smooth="yes"/>
      <point x="367" y="636" type="line"/>
      <point x="351" y="636"/>
      <point x="292" y="619"/>
      <point x="280" y="603" type="curve"/>
      <point x="280" y="586"/>
      <point x="274" y="562"/>
      <point x="270" y="550" type="curve" smooth="yes"/>
      <point x="263" y="527" type="line" smooth="yes"/>
      <point x="234" y="438"/>
      <point x="125" y="155"/>
      <point x="116" y="136" type="curve" smooth="yes"/>
      <point x="94" y="88"/>
      <point x="77" y="51"/>
    </contour>
    <contour>
      <point x="319" y="527" type="line"/>
      <point x="391" y="289" type="line" smooth="yes"/>
      <point x="393" y="283"/>
      <point x="388" y="283"/>
      <point x="384" y="283" type="curve" smooth="yes"/>
      <point x="238" y="275" type="line" smooth="yes"/>
      <point x="233" y="275"/>
      <point x="230" y="277"/>
      <point x="232" y="281" type="curve" smooth="yes"/>
      <point x="315" y="527" type="line"/>
    </contour>
  </outline>
</glyph>
<glyph name="C" format="2">
  <advance width="659"/>
  <unicode hex="0043"/>
  <note>
C
</note>
  <outline>
    <contour>
      <point x="37" y="302" type="curve" smooth="yes"/>
      <point x="37" y="127"/>
      <point x="139" y="-20"/>
      <point x="390" y="-20" type="curve" smooth="yes"/>
      <point x="506" y="-20"/>
      <point x="571" y="11"/>
      <point x="597" y="35" type="curve"/>
      <point x="627" y="184" type="line"/>
      <point x="623" y="188"/>
      <point x="614" y="191"/>
      <point x="604" y="191" type="curve" smooth="yes"/>
      <point x="599" y="191"/>
      <point x="592" y="190"/>
      <point x="587" y="188" type="curve"/>
      <point x="556" y="59"/>
      <point x="495" y="25"/>
      <point x="402" y="25" type="curve" smooth="yes"/>
      <point x="217" y="25"/>
      <point x="141" y="168"/>
      <point x="141" y="326" type="curve" smooth="yes"/>
      <point x="141" y="485"/>
      <point x="215" y="590"/>
      <point x="392" y="590" type="curve" smooth="yes"/>
      <point x="491" y="590"/>
      <point x="538" y="561"/>
      <point x="551" y="440" type="curve"/>
      <point x="554" y="438"/>
      <point x="564" y="437"/>
      <point x="571" y="437" type="curve" smooth="yes"/>
      <point x="581" y="437"/>
      <point x="589" y="439"/>
      <point x="592" y="442" type="curve"/>
      <point x="611" y="626" type="line"/>
      <point x="600" y="624"/>
      <point x="583" y="622"/>
      <point x="565" y="622" type="curve" smooth="yes"/>
      <point x="543" y="622"/>
      <point x="514" y="625"/>
      <point x="487" y="628" type="curve" smooth="yes"/>
      <point x="460" y="631"/>
      <point x="435" y="634"/>
      <point x="401" y="634" type="curve" smooth="yes"/>
      <point x="202" y="634"/>
      <point x="37" y="530"/>
    </contour>
  </outline>
</glyph>
<glyph name="F" format="2">
  <advance width="529"/>
  <unicode hex="0046"/>
  <note>
F
</note>
  <outline>
    <contour>
      <point x="117" y="506" type="curve" smooth="yes"/>
      <point x="117" y="161" type="line" smooth="yes"/>
      <point x="117" y="65"/>
      <point x="97" y="41"/>
      <point x="40" y="31" type="curve"/>
      <point x="33" y="-3" type="line"/>
      <point x="95" y="-2"/>
      <point x="140" y="-1"/>
      <point x="174" y="-1" type="curve" smooth="yes"/>
      <point x="209" y="-1"/>
      <point x="243" y="-2"/>
      <point x="306" y="-3" type="curve"/>
      <point x="316" y="29" type="line"/>
      <point x="205" y="59" type="line"/>
      <point x="205" y="234" type="line" smooth="yes"/>
      <point x="205" y="273"/>
      <point x="205" y="273"/>
      <point x="243" y="273" type="curve" smooth="yes"/>
      <point x="300" y="273" type="line" smooth="yes"/>
      <point x="364" y="273"/>
      <point x="382" y="255"/>
      <point x="388" y="204" type="curve"/>
      <point x="416" y="204" type="line"/>
      <point x="434" y="377" type="line"/>
      <point x="406" y="377" type="line"/>
      <point x="398" y="337"/>
      <point x="360" y="319"/>
      <point x="300" y="319" type="curve" smooth="yes"/>
      <point x="243" y="319" type="line" smooth="yes"/>
      <point x="205" y="319"/>
      <point x="205" y="319"/>
      <point x="205" y="358" type="curve" smooth="yes"/>
      <point x="205" y="508" type="line" smooth="yes"/>
      <point x="205" y="573"/>
      <point x="205" y="573"/>
      <point x="267" y="573" type="curve" smooth="yes"/>
      <point x="392" y="573"/>
      <point x="425" y="564"/>
      <point x="446" y="467" type="curve"/>
      <point x="452" y="465"/>
      <point x="477" y="466"/>
      <point x="482" y="470" type="curve"/>
      <point x="497" y="639" type="line"/>
      <point x="441" y="623"/>
      <point x="335" y="615"/>
      <point x="238" y="615" type="curve" smooth="yes"/>
      <point x="159" y="615"/>
      <point x="126" y="615"/>
      <point x="49" y="625" type="curve"/>
      <point x="46" y="590" type="line"/>
      <point x="102" y="580"/>
      <point x="117" y="562"/>
    </contour>
  </outline>
</glyph>
<glyph name="G" format="2">
  <advance width="711"/>
  <unicode hex="0047"/>
  <note>
G
</note>
  <outline>
    <contour>
      <point x="37" y="295" type="curve" smooth="yes"/>
      <point x="37" y="134"/>
      <point x="127" y="-20"/>
      <point x="397" y="-20" type="curve" smooth="yes"/>
      <point x="473" y="-20"/>
      <point x="552" y="-8"/>
      <point x="633" y="21" type="curve"/>
      <point x="620" y="61"/>
      <point x="616" y="103"/>
      <point x="616" y="132" type="curve" smooth="yes"/>
      <point x="616" y="171"/>
      <point x="623" y="224"/>
      <point x="672" y="242" type="curve"/>
      <point x="679" y="290" type="line"/>
      <point x="601" y="282"/>
      <point x="555" y="281"/>
      <point x="519" y="281" type="curve" smooth="yes"/>
      <point x="469" y="281"/>
      <point x="442" y="281"/>
      <point x="411" y="284" type="curve"/>
      <point x="403" y="238" type="line"/>
      <point x="504" y="225"/>
      <point x="530" y="213"/>
      <point x="530" y="142" type="curve" smooth="yes"/>
      <point x="530" y="56"/>
      <point x="492" y="23"/>
      <point x="402" y="23" type="curve" smooth="yes"/>
      <point x="222" y="23"/>
      <point x="142" y="154"/>
      <point x="142" y="315" type="curve" smooth="yes"/>
      <point x="142" y="474"/>
      <point x="221" y="591"/>
      <point x="391" y="591" type="curve" smooth="yes"/>
      <point x="496" y="591"/>
      <point x="540" y="546"/>
      <point x="551" y="449" type="curve"/>
      <point x="554" y="446"/>
      <point x="565" y="445"/>
      <point x="572" y="445" type="curve" smooth="yes"/>
      <point x="581" y="445"/>
      <point x="590" y="447"/>
      <point x="594" y="450" type="curve"/>
      <point x="613" y="625" type="line"/>
      <point x="600" y="623"/>
      <point x="583" y="622"/>
      <point x="570" y="622" type="curve" smooth="yes"/>
      <point x="548" y="622"/>
      <point x="526" y="625"/>
      <point x="510" y="627" type="curve" smooth="yes"/>
      <point x="476" y="631"/>
      <point x="442" y="634"/>
      <point x="410" y="634" type="curve" smooth="yes"/>
      <point x="212" y="634"/>
      <point x="37" y="527"/>
    </contour>
  </outline>
</glyph>
<glyph name="H" format="2">
  <advance width="708"/>
  <unicode hex="0048"/>
  <note>
H
</note>
  <outline>
    <contour>
      <point x="35" y="25" type="curve"/>
      <point x="32" y="-3" type="line"/>
      <point x="86" y="0"/>
      <point x="119" y="0"/>
      <point x="159" y="0" type="curve" smooth="yes"/>
      <point x="199" y="0"/>
      <point x="233" y="0"/>
      <point x="285" y="-3" type="curve"/>
      <point x="287" y="25" type="line"/>
      <point x="200" y="47" type="line"/>
      <point x="200" y="115"/>
      <point x="200" y="185"/>
      <point x="200" y="253" type="curve" smooth="yes"/>
      <point x="200" y="281"/>
      <point x="214" y="285"/>
      <point x="249" y="287" type="curve" smooth="yes"/>
      <point x="297" y="290"/>
      <point x="316" y="290"/>
      <point x="360" y="290" type="curve" smooth="yes"/>
      <point x="391" y="290"/>
      <point x="415" y="290"/>
      <point x="465" y="287" type="curve" smooth="yes"/>
      <point x="496" y="285"/>
      <point x="504" y="280"/>
      <point x="504" y="239" type="curve" smooth="yes"/>
      <point x="504" y="48" type="line"/>
      <point x="423" y="26" type="line"/>
      <point x="420" y="-3" type="line"/>
      <point x="488" y="0"/>
      <point x="517" y="0"/>
      <point x="554" y="0" type="curve" smooth="yes"/>
      <point x="590" y="0"/>
      <point x="611" y="0"/>
      <point x="671" y="-3" type="curve"/>
      <point x="676" y="25" type="line"/>
      <point x="629" y="34"/>
      <point x="590" y="47"/>
      <point x="590" y="94" type="curve" smooth="yes"/>
      <point x="590" y="523" type="line" smooth="yes"/>
      <point x="590" y="563"/>
      <point x="620" y="586"/>
      <point x="671" y="590" type="curve"/>
      <point x="675" y="618" type="line"/>
      <point x="627" y="615"/>
      <point x="588" y="615"/>
      <point x="554" y="615" type="curve" smooth="yes"/>
      <point x="518" y="615"/>
      <point x="473" y="615"/>
      <point x="423" y="618" type="curve"/>
      <point x="420" y="590" type="line"/>
      <point x="504" y="570" type="line"/>
      <point x="504" y="384" type="line" smooth="yes"/>
      <point x="504" y="344"/>
      <point x="495" y="338"/>
      <point x="465" y="336" type="curve" smooth="yes"/>
      <point x="417" y="333"/>
      <point x="392" y="333"/>
      <point x="355" y="333" type="curve" smooth="yes"/>
      <point x="317" y="333"/>
      <point x="297" y="333"/>
      <point x="249" y="336" type="curve" smooth="yes"/>
      <point x="209" y="339"/>
      <point x="200" y="344"/>
      <point x="200" y="384" type="curve" smooth="yes"/>
      <point x="200" y="570" type="line"/>
      <point x="284" y="590" type="line"/>
      <point x="287" y="618" type="line"/>
      <point x="238" y="615"/>
      <point x="200" y="615"/>
      <point x="164" y="615" type="curve" smooth="yes"/>
      <point x="129" y="615"/>
      <point x="87" y="615"/>
      <point x="37" y="618" type="curve"/>
      <point x="32" y="590" type="line"/>
      <point x="84" y="583"/>
      <point x="114" y="560"/>
      <point x="114" y="525" type="curve" smooth="yes"/>
      <point x="114" y="94" type="line" smooth="yes"/>
      <point x="114" y="48"/>
      <point x="87" y="38"/>
    </contour>
  </outline>
</glyph>
<glyph name="J" format="2">
  <advance width="349"/>
  <unicode hex="004A"/>
  <note>
J
</note>
  <outline>
    <contour>
      <point x="139" y="157" type="curve" smooth="yes"/>
      <point x="139" y="62" type="line" smooth="yes"/>
      <point x="139" y="-79"/>
      <point x="128" y="-173"/>
      <point x="33" y="-173" type="curve" smooth="yes"/>
      <point x="7" y="-173"/>
      <point x="-13" y="-167"/>
      <point x="-65" y="-136" type="curve"/>
      <point x="-81" y="-158"/>
      <point x="-86" y="-184"/>
      <point x="-86" y="-211" type="curve"/>
      <point x="-65" y="-231"/>
      <point x="-20" y="-247"/>
      <point x="12" y="-247" type="curve" smooth="yes"/>
      <point x="87" y="-247"/>
      <point x="175" y="-164"/>
      <point x="200" y="-100" type="curve" smooth="yes"/>
      <point x="221" y="-47"/>
      <point x="224" y="61"/>
      <point x="224" y="160" type="curve" smooth="yes"/>
      <point x="224" y="488" type="line" smooth="yes"/>
      <point x="224" y="544"/>
      <point x="243" y="578"/>
      <point x="312" y="587" type="curve"/>
      <point x="318" y="618" type="line"/>
      <point x="270" y="616"/>
      <point x="213" y="615"/>
      <point x="170" y="615" type="curve" smooth="yes"/>
      <point x="128" y="615"/>
      <point x="87" y="616"/>
      <point x="37" y="618" type="curve"/>
      <point x="33" y="590" type="line"/>
      <point x="130" y="560" type="line"/>
      <point x="139" y="425"/>
      <point x="139" y="265"/>
    </contour>
    <contour>
      <point x="139" y="157" type="curve" smooth="yes"/>
      <point x="139" y="62" type="line" smooth="yes"/>
      <point x="139" y="-79"/>
      <point x="128" y="-173"/>
      <point x="33" y="-173" type="curve" smooth="yes"/>
      <point x="7" y="-173"/>
      <point x="-13" y="-167"/>
      <point x="-65" y="-136" type="curve"/>
      <point x="-81" y="-158"/>
      <point x="-86" y="-184"/>
      <point x="-86" y="-211" type="curve"/>
      <point x="-65" y="-231"/>
      <point x="-20" y="-247"/>
      <point x="12" y="-247" type="curve" smooth="yes"/>
      <point x="87" y="-247"/>
      <point x="175" y="-164"/>
      <point x="200" y="-100" type="curve" smooth="yes"/>
      <point x="221" y="-47"/>
      <point x="224" y="61"/>
      <point x="224" y="160" type="curve" smooth="yes"/>
      <point x="224" y="488" type="line" smooth="yes"/>
      <point x="224" y="544"/>
      <point x="243" y="578"/>
      <point x="312" y="587" type="curve"/>
      <point x="318" y="618" type="line"/>
      <point x="270" y="616"/>
      <point x="213" y="615"/>
      <point x="170" y="615" type="curve" smooth="yes"/>
      <point x="128" y="615"/>
      <point x="87" y="616"/>
      <point x="37" y="618" type="curve"/>
      <point x="33" y="590" type="line"/>
      <point x="130" y="560" type="line"/>
      <point x="139" y="425"/>
      <point x="139" y="265"/>
    </contour>
  </outline>
</glyph>
<glyph name="L" format="2">
  <advance width="565"/>
  <unicode hex="004C"/>
  <note>
L
</note>
  <outline>
    <contour>
      <point x="34" y="590" type="line"/>
      <point x="121" y="573" type="line"/>
      <point x="121" y="117" type="line" smooth="yes"/>
      <point x="121" y="61"/>
      <point x="84" y="37"/>
      <point x="37" y="21" type="curve"/>
      <point x="33" y="-11" type="line"/>
      <point x="124" y="0"/>
      <point x="212" y="2"/>
      <point x="291" y="2" type="curve" smooth="yes"/>
      <point x="404" y="2"/>
      <point x="443" y="0"/>
      <point x="492" y="-7" type="curve"/>
      <point x="533" y="172" type="line"/>
      <point x="530" y="175"/>
      <point x="520" y="176"/>
      <point x="511" y="176" type="curve" smooth="yes"/>
      <point x="504" y="176"/>
      <point x="493" y="175"/>
      <point x="491" y="172" type="curve"/>
      <point x="455" y="63"/>
      <point x="425" y="50"/>
      <point x="317" y="50" type="curve" smooth="yes"/>
      <point x="301" y="50" type="line" smooth="yes"/>
      <point x="267" y="50"/>
      <point x="238" y="56"/>
      <point x="207" y="71" type="curve"/>
      <point x="207" y="519" type="line" smooth="yes"/>
      <point x="207" y="554"/>
      <point x="228" y="583"/>
      <point x="296" y="590" type="curve"/>
      <point x="301" y="618" type="line"/>
      <point x="252" y="615"/>
      <point x="208" y="615"/>
      <point x="167" y="615" type="curve" smooth="yes"/>
      <point x="127" y="615"/>
      <point x="88" y="615"/>
      <point x="38" y="618" type="curve"/>
    </contour>
  </outline>
</glyph>
<glyph name="M" format="2">
  <advance width="881"/>
  <unicode hex="004D"/>
  <note>
M
</note>
  <outline>
    <contour>
      <point x="27" y="25" type="curve"/>
      <point x="23" y="-3" type="line"/>
      <point x="96" y="0"/>
      <point x="185" y="0"/>
      <point x="243" y="-3" type="curve"/>
      <point x="248" y="25" type="line"/>
      <point x="175" y="46" type="line"/>
      <point x="185" y="194"/>
      <point x="197" y="354"/>
      <point x="208" y="502" type="curve"/>
      <point x="275" y="334"/>
      <point x="343" y="164"/>
      <point x="410" y="-4" type="curve" smooth="yes"/>
      <point x="411" y="-6"/>
      <point x="414" y="-7"/>
      <point x="419" y="-7" type="curve" smooth="yes"/>
      <point x="430" y="-7"/>
      <point x="449" y="-2"/>
      <point x="451" y="3" type="curve" smooth="yes"/>
      <point x="518" y="165"/>
      <point x="587" y="329"/>
      <point x="654" y="491" type="curve"/>
      <point x="663" y="342"/>
      <point x="674" y="196"/>
      <point x="683" y="47" type="curve"/>
      <point x="612" y="25" type="line"/>
      <point x="606" y="-3" type="line"/>
      <point x="654" y="0"/>
      <point x="700" y="0"/>
      <point x="734" y="0" type="curve" smooth="yes"/>
      <point x="768" y="0"/>
      <point x="803" y="0"/>
      <point x="854" y="-3" type="curve"/>
      <point x="857" y="25" type="line"/>
      <point x="819" y="37"/>
      <point x="766" y="54"/>
      <point x="763" y="94" type="curve" smooth="yes"/>
      <point x="734" y="571" type="line"/>
      <point x="797" y="590" type="line"/>
      <point x="800" y="618" type="line"/>
      <point x="769" y="615"/>
      <point x="740" y="615"/>
      <point x="718" y="615" type="curve" smooth="yes"/>
      <point x="695" y="615"/>
      <point x="672" y="615"/>
      <point x="637" y="618" type="curve"/>
      <point x="611" y="518"/>
      <point x="554" y="371"/>
      <point x="447" y="133" type="curve"/>
      <point x="356" y="334"/>
      <point x="272" y="534"/>
      <point x="254" y="618" type="curve"/>
      <point x="211" y="615"/>
      <point x="190" y="615"/>
      <point x="168" y="615" type="curve" smooth="yes"/>
      <point x="147" y="615"/>
      <point x="122" y="615"/>
      <point x="86" y="618" type="curve"/>
      <point x="82" y="590" type="line"/>
      <point x="148" y="572" type="line"/>
      <point x="120" y="136" type="line" smooth="yes"/>
      <point x="115" y="64"/>
      <point x="78" y="47"/>
    </contour>
  </outline>
</glyph>
<glyph name="P" format="2">
  <advance width="554"/>
  <unicode hex="0050"/>
  <note>
P
</note>
  <outline>
    <contour>
      <point x="36" y="25" type="curve"/>
      <point x="33" y="-3" type="line"/>
      <point x="85" y="-1"/>
      <point x="133" y="0"/>
      <point x="181" y="0" type="curve" smooth="yes"/>
      <point x="228" y="0"/>
      <point x="280" y="1"/>
      <point x="330" y="-3" type="curve"/>
      <point x="334" y="25" type="line"/>
      <point x="210" y="62" type="line"/>
      <point x="210" y="225" type="line"/>
      <point x="272" y="232" type="line" smooth="yes"/>
      <point x="387" y="245"/>
      <point x="513" y="293"/>
      <point x="513" y="454" type="curve" smooth="yes"/>
      <point x="513" y="539"/>
      <point x="476" y="625"/>
      <point x="275" y="625" type="curve" smooth="yes"/>
      <point x="212" y="625"/>
      <point x="128" y="617"/>
      <point x="44" y="607" type="curve"/>
      <point x="41" y="573" type="line"/>
      <point x="98" y="568"/>
      <point x="124" y="543"/>
      <point x="124" y="515" type="curve" smooth="yes"/>
      <point x="124" y="105" type="line" smooth="yes"/>
      <point x="124" y="63"/>
      <point x="88" y="44"/>
    </contour>
    <contour>
      <point x="426" y="425" type="curve" smooth="yes"/>
      <point x="426" y="321"/>
      <point x="361" y="278"/>
      <point x="271" y="278" type="curve" smooth="yes"/>
      <point x="248" y="278"/>
      <point x="228" y="281"/>
      <point x="210" y="289" type="curve"/>
      <point x="210" y="571" type="line"/>
      <point x="232" y="578"/>
      <point x="269" y="584"/>
      <point x="294" y="584" type="curve" smooth="yes"/>
      <point x="384" y="584"/>
      <point x="426" y="508"/>
    </contour>
  </outline>
</glyph>
<glyph name="R" format="2">
  <advance width="632"/>
  <unicode hex="0052"/>
  <note>
R
</note>
  <outline>
    <contour>
      <point x="37" y="25" type="curve"/>
      <point x="33" y="-3" type="line"/>
      <point x="135" y="0"/>
      <point x="193" y="0"/>
      <point x="296" y="-3" type="curve"/>
      <point x="302" y="25" type="line"/>
      <point x="211" y="52" type="line"/>
      <point x="211" y="270" type="line"/>
      <point x="303" y="287" type="line"/>
      <point x="319" y="250" type="line" smooth="yes"/>
      <point x="353" y="171"/>
      <point x="424" y="29"/>
      <point x="496" y="-13" type="curve"/>
      <point x="526" y="-2"/>
      <point x="560" y="1"/>
      <point x="608" y="1" type="curve"/>
      <point x="613" y="38" type="line"/>
      <point x="528" y="56"/>
      <point x="487" y="113"/>
      <point x="466" y="149" type="curve" smooth="yes"/>
      <point x="457" y="164"/>
      <point x="417" y="233"/>
      <point x="379" y="307" type="curve"/>
      <point x="405" y="316"/>
      <point x="498" y="358"/>
      <point x="498" y="460" type="curve" smooth="yes"/>
      <point x="498" y="532"/>
      <point x="451" y="618"/>
      <point x="300" y="618" type="curve" smooth="yes"/>
      <point x="273" y="618"/>
      <point x="215" y="615"/>
      <point x="170" y="615" type="curve" smooth="yes"/>
      <point x="135" y="615"/>
      <point x="95" y="615"/>
      <point x="55" y="618" type="curve"/>
      <point x="50" y="586" type="line"/>
      <point x="125" y="562" type="line"/>
      <point x="125" y="98" type="line" smooth="yes"/>
      <point x="125" y="62"/>
      <point x="90" y="37"/>
    </contour>
    <contour>
      <point x="412" y="447" type="curve" smooth="yes"/>
      <point x="412" y="364"/>
      <point x="358" y="340"/>
      <point x="311" y="327" type="curve" smooth="yes"/>
      <point x="270" y="316"/>
      <point x="241" y="317"/>
      <point x="211" y="324" type="curve"/>
      <point x="211" y="564" type="line"/>
      <point x="234" y="572"/>
      <point x="254" y="576"/>
      <point x="277" y="576" type="curve" smooth="yes"/>
      <point x="339" y="576"/>
      <point x="412" y="544"/>
    </contour>
  </outline>
</glyph>
<glyph name="S" format="2">
  <advance width="456"/>
  <unicode hex="0053"/>
  <note>
S
</note>
  <outline>
    <contour>
      <point x="227" y="589" type="curve" smooth="yes"/>
      <point x="285" y="589"/>
      <point x="336" y="560"/>
      <point x="345" y="466" type="curve"/>
      <point x="348" y="464"/>
      <point x="357" y="462"/>
      <point x="364" y="462" type="curve" smooth="yes"/>
      <point x="370" y="462"/>
      <point x="379" y="463"/>
      <point x="383" y="465" type="curve"/>
      <point x="409" y="604" type="line"/>
      <point x="385" y="612"/>
      <point x="284" y="631"/>
      <point x="228" y="631" type="curve" smooth="yes"/>
      <point x="125" y="631"/>
      <point x="41" y="566"/>
      <point x="41" y="471" type="curve" smooth="yes"/>
      <point x="41" y="371"/>
      <point x="135" y="313"/>
      <point x="186" y="282" type="curve" smooth="yes"/>
      <point x="273" y="229"/>
      <point x="333" y="194"/>
      <point x="333" y="129" type="curve" smooth="yes"/>
      <point x="333" y="68"/>
      <point x="282" y="26"/>
      <point x="212" y="26" type="curve" smooth="yes"/>
      <point x="143" y="26"/>
      <point x="88" y="66"/>
      <point x="75" y="180" type="curve"/>
      <point x="72" y="181"/>
      <point x="65" y="182"/>
      <point x="60" y="182" type="curve" smooth="yes"/>
      <point x="50" y="182"/>
      <point x="41" y="179"/>
      <point x="37" y="176" type="curve"/>
      <point x="33" y="26" type="line"/>
      <point x="74" y="1"/>
      <point x="150" y="-17"/>
      <point x="205" y="-17" type="curve" smooth="yes"/>
      <point x="306" y="-17"/>
      <point x="419" y="42"/>
      <point x="419" y="168" type="curve" smooth="yes"/>
      <point x="419" y="231"/>
      <point x="395" y="273"/>
      <point x="262" y="348" type="curve" smooth="yes"/>
      <point x="191" y="388"/>
      <point x="120" y="422"/>
      <point x="120" y="495" type="curve" smooth="yes"/>
      <point x="120" y="549"/>
      <point x="159" y="589"/>
    </contour>
  </outline>
</glyph>
<glyph name="T" format="2">
  <advance width="633"/>
  <unicode hex="0054"/>
  <note>
T
</note>
  <outline>
    <contour>
      <point x="419" y="565" type="curve" smooth="yes"/>
      <point x="512" y="565"/>
      <point x="540" y="559"/>
      <point x="566" y="459" type="curve"/>
      <point x="571" y="457"/>
      <point x="577" y="456"/>
      <point x="583" y="456" type="curve" smooth="yes"/>
      <point x="591" y="456"/>
      <point x="598" y="458"/>
      <point x="603" y="461" type="curve"/>
      <point x="591" y="632" type="line"/>
      <point x="491" y="606"/>
      <point x="379" y="605"/>
      <point x="315" y="605" type="curve" smooth="yes"/>
      <point x="248" y="605"/>
      <point x="142" y="606"/>
      <point x="42" y="632" type="curve"/>
      <point x="30" y="461" type="line"/>
      <point x="35" y="458"/>
      <point x="42" y="456"/>
      <point x="50" y="456" type="curve" smooth="yes"/>
      <point x="56" y="456"/>
      <point x="62" y="457"/>
      <point x="67" y="459" type="curve"/>
      <point x="93" y="559"/>
      <point x="121" y="565"/>
      <point x="211" y="565" type="curve" smooth="yes"/>
      <point x="262" y="565"/>
      <point x="273" y="562"/>
      <point x="273" y="505" type="curve" smooth="yes"/>
      <point x="273" y="108" type="line" smooth="yes"/>
      <point x="273" y="51"/>
      <point x="238" y="37"/>
      <point x="161" y="25" type="curve"/>
      <point x="155" y="-3" type="line"/>
      <point x="224" y="0"/>
      <point x="279" y="0"/>
      <point x="314" y="0" type="curve" smooth="yes"/>
      <point x="349" y="0"/>
      <point x="405" y="0"/>
      <point x="471" y="-3" type="curve"/>
      <point x="477" y="25" type="line"/>
      <point x="403" y="36"/>
      <point x="359" y="45"/>
      <point x="359" y="104" type="curve" smooth="yes"/>
      <point x="359" y="505" type="line" smooth="yes"/>
      <point x="359" y="561"/>
      <point x="370" y="565"/>
    </contour>
  </outline>
</glyph>
<glyph name="V" format="2">
  <advance width="690"/>
  <unicode hex="0056"/>
  <note>
V
</note>
  <outline>
    <contour>
      <point x="116" y="488" type="curve" smooth="yes"/>
      <point x="296" y="-7" type="line" smooth="yes"/>
      <point x="299" y="-15"/>
      <point x="364" y="-7"/>
      <point x="367" y="1" type="curve" smooth="yes"/>
      <point x="559" y="473" type="line" smooth="yes"/>
      <point x="581" y="528"/>
      <point x="597" y="561"/>
      <point x="651" y="590" type="curve"/>
      <point x="657" y="618" type="line"/>
      <point x="567" y="615"/>
      <point x="556" y="615"/>
      <point x="467" y="618" type="curve"/>
      <point x="463" y="590" type="line"/>
      <point x="527" y="567" type="line"/>
      <point x="350" y="113" type="line" smooth="yes"/>
      <point x="348" y="107"/>
      <point x="338" y="106"/>
      <point x="336" y="111" type="curve" smooth="yes"/>
      <point x="178" y="572" type="line"/>
      <point x="239" y="590" type="line"/>
      <point x="243" y="618" type="line"/>
      <point x="149" y="615"/>
      <point x="130" y="615"/>
      <point x="36" y="618" type="curve"/>
      <point x="33" y="590" type="line"/>
      <point x="68" y="583"/>
      <point x="88" y="565"/>
    </contour>
  </outline>
</glyph>
<glyph name="Y" format="2">
  <advance width="680"/>
  <unicode hex="0059"/>
  <note>
Y
</note>
  <outline>
    <contour>
      <point x="146" y="512" type="curve" smooth="yes"/>
      <point x="267" y="281" type="line" smooth="yes"/>
      <point x="271" y="273"/>
      <point x="281" y="259"/>
      <point x="281" y="243" type="curve" smooth="yes"/>
      <point x="281" y="116" type="line" smooth="yes"/>
      <point x="281" y="55"/>
      <point x="247" y="37"/>
      <point x="170" y="25" type="curve"/>
      <point x="164" y="-3" type="line"/>
      <point x="229" y="0"/>
      <point x="279" y="0"/>
      <point x="322" y="0" type="curve" smooth="yes"/>
      <point x="364" y="0"/>
      <point x="416" y="0"/>
      <point x="480" y="-3" type="curve"/>
      <point x="486" y="25" type="line"/>
      <point x="414" y="38"/>
      <point x="367" y="49"/>
      <point x="367" y="111" type="curve" smooth="yes"/>
      <point x="367" y="247" type="line" smooth="yes"/>
      <point x="367" y="255"/>
      <point x="366" y="275"/>
      <point x="370" y="281" type="curve" smooth="yes"/>
      <point x="518" y="510" type="line" smooth="yes"/>
      <point x="549" y="558"/>
      <point x="574" y="573"/>
      <point x="640" y="590" type="curve"/>
      <point x="646" y="618" type="line"/>
      <point x="556" y="615"/>
      <point x="503" y="615"/>
      <point x="412" y="618" type="curve"/>
      <point x="406" y="590" type="line"/>
      <point x="483" y="571" type="line"/>
      <point x="342" y="342" type="line" smooth="yes"/>
      <point x="340" y="338"/>
      <point x="330" y="338"/>
      <point x="328" y="342" type="curve" smooth="yes"/>
      <point x="207" y="573" type="line"/>
      <point x="273" y="590" type="line"/>
      <point x="278" y="618" type="line"/>
      <point x="223" y="615"/>
      <point x="195" y="615"/>
      <point x="158" y="615" type="curve" smooth="yes"/>
      <point x="122" y="615"/>
      <point x="95" y="615"/>
      <point x="38" y="618" type="curve"/>
      <point x="33" y="590" type="line"/>
      <point x="88" y="576"/>
      <point x="122" y="558"/>
    </contour>
  </outline>
</glyph>
<glyph name="Z" format="2">
  <advance width="585"/>
  <unicode hex="005A"/>
  <note>
Z
</note>
  <outline>
    <contour>
      <point x="27" y="11" type="curve" smooth="yes"/>
      <point x="21" y="3"/>
      <point x="24" y="0"/>
      <point x="34" y="0" type="curve" smooth="yes"/>
      <point x="523" y="0" type="line"/>
      <point x="562" y="184" type="line"/>
      <point x="561" y="196"/>
      <point x="529" y="202"/>
      <point x="520" y="196" type="curve"/>
      <point x="481" y="65"/>
      <point x="445" y="43"/>
      <point x="326" y="43" type="curve" smooth="yes"/>
      <point x="170" y="43" type="line" smooth="yes"/>
      <point x="159" y="43"/>
      <point x="156" y="48"/>
      <point x="162" y="57" type="curve" smooth="yes"/>
      <point x="540" y="604" type="line" smooth="yes"/>
      <point x="544" y="610"/>
      <point x="541" y="615"/>
      <point x="532" y="615" type="curve" smooth="yes"/>
      <point x="282" y="615" type="line" smooth="yes"/>
      <point x="206" y="615"/>
      <point x="123" y="616"/>
      <point x="57" y="634" type="curve"/>
      <point x="29" y="451" type="line"/>
      <point x="34" y="442"/>
      <point x="68" y="439"/>
      <point x="74" y="445" type="curve"/>
      <point x="98" y="549"/>
      <point x="125" y="573"/>
      <point x="215" y="573" type="curve" smooth="yes"/>
      <point x="403" y="573" type="line" smooth="yes"/>
      <point x="414" y="573"/>
      <point x="415" y="571"/>
      <point x="410" y="563" type="curve" smooth="yes"/>
      <point x="310" y="404"/>
      <point x="156" y="190"/>
    </contour>
  </outline>
</glyph>
<glyph name="bracketleft" format="2">
  <advance width="298"/>
  <unicode hex="005B"/>
  <note>
bracketleft
</note>
  <outline>
    <contour>
      <point x="150" y="689" type="curve" smooth="yes"/>
      <point x="272" y="683" type="line"/>
      <point x="272" y="702"/>
      <point x="271" y="722"/>
      <point x="265" y="740" type="curve"/>
      <point x="253" y="741"/>
      <point x="206" y="742"/>
      <point x="158" y="742" type="curve" smooth="yes"/>
      <point x="111" y="742"/>
      <point x="62" y="741"/>
      <point x="48" y="740" type="curve"/>
      <point x="48" y="-172" type="line"/>
      <point x="63" y="-174"/>
      <point x="117" y="-175"/>
      <point x="165" y="-175" type="curve" smooth="yes"/>
      <point x="212" y="-175"/>
      <point x="254" y="-174"/>
      <point x="265" y="-173" type="curve"/>
      <point x="271" y="-155"/>
      <point x="272" y="-135"/>
      <point x="272" y="-116" type="curve"/>
      <point x="150" y="-122" type="line" smooth="yes"/>
      <point x="103" y="-124"/>
      <point x="112" y="-85"/>
      <point x="112" y="-51" type="curve" smooth="yes"/>
      <point x="112" y="616" type="line" smooth="yes"/>
      <point x="112" y="650"/>
      <point x="103" y="691"/>
    </contour>
  </outline>
</glyph>
<glyph name="underscore" format="2">
  <advance width="533"/>
  <unicode hex="005F"/>
  <note>
underscore
</note>
  <outline>
    <contour>
      <point x="-12" y="0" type="curve"/>
      <point x="530" y="0" type="line"/>
      <point x="536" y="19"/>
      <point x="539" y="32"/>
      <point x="539" y="50" type="curve"/>
      <point x="-3" y="50" type="line"/>
      <point x="-9" y="32"/>
      <point x="-12" y="19"/>
    </contour>
  </outline>
</glyph>
<glyph name="a" format="2">
  <advance width="401"/>
  <unicode hex="0061"/>
  <note>
a
</note>
  <outline>
    <contour>
      <point x="249" y="196" type="curve"/>
      <point x="249" y="88" type="line"/>
      <point x="216" y="66"/>
      <point x="178" y="59"/>
      <point x="138" y="59" type="curve"/>
      <point x="118" y="73"/>
      <point x="104" y="90"/>
      <point x="104" y="118" type="curve" smooth="yes"/>
      <point x="104" y="128"/>
      <point x="106" y="138"/>
      <point x="109" y="147" type="curve"/>
      <point x="133" y="166"/>
      <point x="201" y="185"/>
    </contour>
    <contour>
      <point x="186" y="349" type="curve" smooth="yes"/>
      <point x="245" y="349"/>
      <point x="249" y="291"/>
      <point x="249" y="229" type="curve"/>
      <point x="207" y="223"/>
      <point x="84" y="188"/>
      <point x="46" y="166" type="curve"/>
      <point x="31" y="141"/>
      <point x="28" y="112"/>
      <point x="28" y="95" type="curve" smooth="yes"/>
      <point x="28" y="34"/>
      <point x="65" y="2"/>
      <point x="119" y="-10" type="curve"/>
      <point x="250" y="47" type="line"/>
      <point x="250" y="23"/>
      <point x="258" y="5"/>
      <point x="268" y="-7" type="curve"/>
      <point x="297" y="5"/>
      <point x="355" y="11"/>
      <point x="391" y="15" type="curve"/>
      <point x="396" y="48" type="line"/>
      <point x="389" y="47"/>
      <point x="381" y="47"/>
      <point x="380" y="47" type="curve" smooth="yes"/>
      <point x="347" y="47"/>
      <point x="322" y="61"/>
      <point x="322" y="110" type="curve" smooth="yes"/>
      <point x="322" y="224"/>
      <point x="325" y="270"/>
      <point x="325" y="299" type="curve" smooth="yes"/>
      <point x="325" y="346"/>
      <point x="317" y="364"/>
      <point x="282" y="378" type="curve" smooth="yes"/>
      <point x="257" y="388"/>
      <point x="223" y="396"/>
      <point x="202" y="396" type="curve" smooth="yes"/>
      <point x="167" y="396"/>
      <point x="105" y="372"/>
      <point x="53" y="349" type="curve"/>
      <point x="53" y="318"/>
      <point x="55" y="286"/>
      <point x="59" y="255" type="curve"/>
      <point x="65" y="252"/>
      <point x="74" y="251"/>
      <point x="82" y="251" type="curve" smooth="yes"/>
      <point x="90" y="251"/>
      <point x="99" y="252"/>
      <point x="104" y="255" type="curve"/>
      <point x="107" y="291"/>
      <point x="114" y="315"/>
      <point x="120" y="331" type="curve"/>
      <point x="141" y="341"/>
      <point x="165" y="349"/>
    </contour>
  </outline>
</glyph>
<glyph name="b" format="2">
  <advance width="462"/>
  <unicode hex="0062"/>
  <note>
b
</note>
  <outline>
    <contour>
      <point x="59" y="33" type="curve"/>
      <point x="92" y="6"/>
      <point x="144" y="-13"/>
      <point x="203" y="-16" type="curve"/>
      <point x="270" y="-1"/>
      <point x="332" y="28"/>
      <point x="362" y="52" type="curve" smooth="yes"/>
      <point x="408" y="89"/>
      <point x="431" y="158"/>
      <point x="431" y="221" type="curve" smooth="yes"/>
      <point x="431" y="343"/>
      <point x="343" y="397"/>
      <point x="265" y="397" type="curve"/>
      <point x="144" y="344" type="line"/>
      <point x="144" y="475" type="line" smooth="yes"/>
      <point x="144" y="511"/>
      <point x="148" y="624"/>
      <point x="159" y="675" type="curve"/>
      <point x="125" y="675"/>
      <point x="26" y="651"/>
      <point x="-4" y="636" type="curve"/>
      <point x="-8" y="611" type="line"/>
      <point x="-3" y="612"/>
      <point x="2" y="612"/>
      <point x="7" y="612" type="curve" smooth="yes"/>
      <point x="61" y="612"/>
      <point x="71" y="581"/>
      <point x="71" y="512" type="curve"/>
      <point x="71" y="186" type="line"/>
      <point x="71" y="145"/>
      <point x="68" y="85"/>
    </contour>
    <contour>
      <point x="226" y="37" type="curve" smooth="yes"/>
      <point x="185" y="37"/>
      <point x="156" y="54"/>
      <point x="148" y="97" type="curve" smooth="yes"/>
      <point x="145" y="112"/>
      <point x="144" y="137"/>
      <point x="144" y="193" type="curve" smooth="yes"/>
      <point x="144" y="302" type="line"/>
      <point x="243" y="345" type="line"/>
      <point x="295" y="345"/>
      <point x="353" y="277"/>
      <point x="353" y="189" type="curve" smooth="yes"/>
      <point x="353" y="117"/>
      <point x="312" y="37"/>
    </contour>
  </outline>
</glyph>
<glyph name="c" format="2">
  <advance width="380"/>
  <unicode hex="0063"/>
  <note>
c
</note>
  <outline>
    <contour>
      <point x="357" y="40" type="curve"/>
      <point x="357" y="49"/>
      <point x="351" y="77"/>
      <point x="344" y="84" type="curve"/>
      <point x="301" y="59"/>
      <point x="264" y="51"/>
      <point x="234" y="51" type="curve" smooth="yes"/>
      <point x="204" y="51"/>
      <point x="171" y="60"/>
      <point x="148" y="85" type="curve" smooth="yes"/>
      <point x="122" y="113"/>
      <point x="111" y="154"/>
      <point x="111" y="193" type="curve" smooth="yes"/>
      <point x="111" y="230"/>
      <point x="121" y="283"/>
      <point x="143" y="320" type="curve"/>
      <point x="184" y="346"/>
      <point x="228" y="351"/>
      <point x="287" y="341" type="curve"/>
      <point x="302" y="318"/>
      <point x="309" y="300"/>
      <point x="314" y="262" type="curve"/>
      <point x="317" y="260"/>
      <point x="326" y="259"/>
      <point x="331" y="259" type="curve" smooth="yes"/>
      <point x="336" y="259"/>
      <point x="345" y="260"/>
      <point x="348" y="262" type="curve"/>
      <point x="355" y="301"/>
      <point x="357" y="338"/>
      <point x="357" y="380" type="curve"/>
      <point x="313" y="388"/>
      <point x="267" y="396"/>
      <point x="237" y="396" type="curve" smooth="yes"/>
      <point x="199" y="396"/>
      <point x="156" y="383"/>
      <point x="117" y="351" type="curve" smooth="yes"/>
      <point x="69" y="312"/>
      <point x="33" y="248"/>
      <point x="33" y="177" type="curve" smooth="yes"/>
      <point x="33" y="117"/>
      <point x="58" y="66"/>
      <point x="93" y="33" type="curve" smooth="yes"/>
      <point x="121" y="7"/>
      <point x="154" y="-11"/>
      <point x="196" y="-11" type="curve" smooth="yes"/>
      <point x="239" y="-11"/>
      <point x="290" y="8"/>
    </contour>
  </outline>
</glyph>
<glyph name="d" format="2">
  <advance width="486"/>
  <unicode hex="0064"/>
  <note>
d
</note>
  <outline>
    <contour>
      <point x="333" y="489" type="curve"/>
      <point x="333" y="383" type="line"/>
      <point x="315" y="389"/>
      <point x="273" y="396"/>
      <point x="254" y="396" type="curve" smooth="yes"/>
      <point x="226" y="396"/>
      <point x="185" y="380"/>
      <point x="139" y="354" type="curve" smooth="yes"/>
      <point x="97" y="330"/>
      <point x="33" y="289"/>
      <point x="33" y="172" type="curve" smooth="yes"/>
      <point x="33" y="46"/>
      <point x="112" y="-19"/>
      <point x="215" y="-19" type="curve"/>
      <point x="333" y="37" type="line"/>
      <point x="334" y="28"/>
      <point x="341" y="-1"/>
      <point x="354" y="-14" type="curve"/>
      <point x="393" y="0"/>
      <point x="438" y="9"/>
      <point x="475" y="11" type="curve"/>
      <point x="479" y="45" type="line"/>
      <point x="472" y="44"/>
      <point x="464" y="44"/>
      <point x="464" y="44" type="curve" smooth="yes"/>
      <point x="412" y="44"/>
      <point x="406" y="66"/>
      <point x="406" y="107" type="curve"/>
      <point x="406" y="524" type="line"/>
      <point x="406" y="545"/>
      <point x="409" y="625"/>
      <point x="421" y="675" type="curve"/>
      <point x="387" y="675"/>
      <point x="290" y="651"/>
      <point x="260" y="636" type="curve"/>
      <point x="256" y="611" type="line"/>
      <point x="261" y="612"/>
      <point x="266" y="612"/>
      <point x="271" y="612" type="curve" smooth="yes"/>
      <point x="302" y="612"/>
      <point x="320" y="603"/>
      <point x="328" y="574" type="curve" smooth="yes"/>
      <point x="333" y="555"/>
      <point x="333" y="524"/>
    </contour>
    <contour>
      <point x="235" y="46" type="curve"/>
      <point x="207" y="46"/>
      <point x="116" y="71"/>
      <point x="116" y="205" type="curve" smooth="yes"/>
      <point x="116" y="302"/>
      <point x="158" y="352"/>
      <point x="244" y="352" type="curve" smooth="yes"/>
      <point x="271" y="352"/>
      <point x="302" y="347"/>
      <point x="333" y="337" type="curve"/>
      <point x="333" y="81" type="line"/>
      <point x="293" y="50"/>
      <point x="267" y="46"/>
    </contour>
  </outline>
</glyph>
<glyph name="e" format="2">
  <advance width="388"/>
  <unicode hex="0065"/>
  <note>
e
</note>
  <outline>
    <contour>
      <point x="365" y="68" type="curve"/>
      <point x="365" y="75"/>
      <point x="361" y="90"/>
      <point x="355" y="94" type="curve"/>
      <point x="330" y="72"/>
      <point x="297" y="50"/>
      <point x="252" y="50" type="curve" smooth="yes"/>
      <point x="172" y="50"/>
      <point x="115" y="111"/>
      <point x="108" y="193" type="curve"/>
      <point x="361" y="208" type="line"/>
      <point x="363" y="216"/>
      <point x="364" y="227"/>
      <point x="364" y="237" type="curve" smooth="yes"/>
      <point x="364" y="314"/>
      <point x="314" y="397"/>
      <point x="221" y="397" type="curve" smooth="yes"/>
      <point x="184" y="397"/>
      <point x="146" y="383"/>
      <point x="110" y="355" type="curve" smooth="yes"/>
      <point x="66" y="320"/>
      <point x="33" y="265"/>
      <point x="33" y="192" type="curve" smooth="yes"/>
      <point x="33" y="80"/>
      <point x="112" y="-10"/>
      <point x="214" y="-10" type="curve" smooth="yes"/>
      <point x="269" y="-10"/>
      <point x="329" y="15"/>
    </contour>
    <contour>
      <point x="285" y="244" type="curve"/>
      <point x="108" y="228" type="line"/>
      <point x="108" y="284"/>
      <point x="136" y="350"/>
      <point x="196" y="350" type="curve" smooth="yes"/>
      <point x="248" y="350"/>
      <point x="285" y="299"/>
    </contour>
  </outline>
</glyph>
<glyph name="f" format="2">
  <advance width="320"/>
  <unicode hex="0066"/>
  <note>
f
</note>
  <outline>
    <contour>
      <point x="249" y="-3" type="curve"/>
      <point x="254" y="25" type="line"/>
      <point x="172" y="58" type="line"/>
      <point x="169" y="107"/>
      <point x="169" y="184"/>
      <point x="169" y="282" type="curve" smooth="yes"/>
      <point x="169" y="333" type="line"/>
      <point x="294" y="333" type="line"/>
      <point x="301" y="347"/>
      <point x="304" y="368"/>
      <point x="304" y="387" type="curve" smooth="yes"/>
      <point x="304" y="388"/>
      <point x="304" y="392"/>
      <point x="303" y="395" type="curve"/>
      <point x="169" y="385" type="line"/>
      <point x="169" y="439" type="line" smooth="yes"/>
      <point x="169" y="499"/>
      <point x="185" y="553"/>
      <point x="214" y="584" type="curve" smooth="yes"/>
      <point x="230" y="601"/>
      <point x="251" y="612"/>
      <point x="277" y="612" type="curve" smooth="yes"/>
      <point x="307" y="612"/>
      <point x="345" y="587"/>
      <point x="363" y="570" type="curve"/>
      <point x="378" y="590"/>
      <point x="388" y="620"/>
      <point x="388" y="648" type="curve"/>
      <point x="360" y="659"/>
      <point x="322" y="667"/>
      <point x="294" y="667" type="curve" smooth="yes"/>
      <point x="250" y="667"/>
      <point x="217" y="646"/>
      <point x="194" y="626" type="curve" smooth="yes"/>
      <point x="142" y="581"/>
      <point x="96" y="501"/>
      <point x="96" y="424" type="curve" smooth="yes"/>
      <point x="96" y="380" type="line"/>
      <point x="34" y="375" type="line"/>
      <point x="32" y="370"/>
      <point x="31" y="360"/>
      <point x="31" y="350" type="curve" smooth="yes"/>
      <point x="31" y="339"/>
      <point x="32" y="336"/>
      <point x="33" y="333" type="curve"/>
      <point x="96" y="333" type="line"/>
      <point x="96" y="116" type="line"/>
      <point x="96" y="57"/>
      <point x="75" y="40"/>
      <point x="31" y="25" type="curve"/>
      <point x="27" y="-3" type="line"/>
      <point x="63" y="0"/>
      <point x="101" y="0"/>
      <point x="130" y="0" type="curve" smooth="yes"/>
      <point x="161" y="0"/>
      <point x="200" y="0"/>
    </contour>
  </outline>
</glyph>
<glyph name="h" format="2">
  <advance width="515"/>
  <unicode hex="0068"/>
  <note>
h
</note>
  <outline>
    <contour>
      <point x="230" y="25" type="line"/>
      <point x="170" y="48" type="line"/>
      <point x="170" y="302" type="line"/>
      <point x="267" y="335" type="line"/>
      <point x="320" y="335"/>
      <point x="356" y="303"/>
      <point x="356" y="247" type="curve" smooth="yes"/>
      <point x="356" y="43" type="line"/>
      <point x="308" y="25" type="line"/>
      <point x="303" y="-3" type="line"/>
      <point x="334" y="0"/>
      <point x="371" y="0"/>
      <point x="394" y="0" type="curve" smooth="yes"/>
      <point x="416" y="0"/>
      <point x="444" y="0"/>
      <point x="487" y="-3" type="curve"/>
      <point x="492" y="25" type="line"/>
      <point x="445" y="34"/>
      <point x="433" y="55"/>
      <point x="429" y="88" type="curve"/>
      <point x="429" y="217" type="line"/>
      <point x="429" y="297"/>
      <point x="420" y="356"/>
      <point x="360" y="385" type="curve" smooth="yes"/>
      <point x="341" y="394"/>
      <point x="318" y="400"/>
      <point x="292" y="400" type="curve"/>
      <point x="170" y="341" type="line"/>
      <point x="170" y="475" type="line" smooth="yes"/>
      <point x="170" y="511"/>
      <point x="174" y="624"/>
      <point x="185" y="675" type="curve"/>
      <point x="151" y="675"/>
      <point x="52" y="651"/>
      <point x="22" y="636" type="curve"/>
      <point x="18" y="611" type="line"/>
      <point x="23" y="612"/>
      <point x="28" y="612"/>
      <point x="33" y="612" type="curve" smooth="yes"/>
      <point x="87" y="612"/>
      <point x="97" y="581"/>
      <point x="97" y="512" type="curve"/>
      <point x="97" y="370" type="line"/>
      <point x="97" y="116" type="line" smooth="yes"/>
      <point x="97" y="57"/>
      <point x="76" y="40"/>
      <point x="32" y="25" type="curve"/>
      <point x="28" y="-3" type="line"/>
      <point x="62" y="0"/>
      <point x="104" y="0"/>
      <point x="130" y="0" type="curve" smooth="yes"/>
      <point x="155" y="0"/>
      <point x="181" y="0"/>
      <point x="227" y="-3" type="curve"/>
    </contour>
  </outline>
</glyph>
<glyph name="i" format="2">
  <advance width="264"/>
  <unicode hex="0069"/>
  <note>
i
</note>
  <outline>
    <contour>
      <point x="172" y="575" type="curve"/>
      <point x="155" y="596"/>
      <point x="124" y="612"/>
      <point x="98" y="615" type="curve"/>
      <point x="75" y="596"/>
      <point x="60" y="567"/>
      <point x="54" y="536" type="curve"/>
      <point x="69" y="518"/>
      <point x="99" y="502"/>
      <point x="129" y="497" type="curve"/>
      <point x="148" y="513"/>
      <point x="168" y="546"/>
    </contour>
    <contour>
      <point x="241" y="25" type="line"/>
      <point x="169" y="50" type="line"/>
      <point x="165" y="99"/>
      <point x="165" y="156"/>
      <point x="165" y="207" type="curve" smooth="yes"/>
      <point x="165" y="263"/>
      <point x="167" y="337"/>
      <point x="174" y="399" type="curve"/>
      <point x="143" y="399"/>
      <point x="42" y="381"/>
      <point x="22" y="371" type="curve"/>
      <point x="17" y="337" type="line"/>
      <point x="58" y="341"/>
      <point x="93" y="332"/>
      <point x="93" y="273" type="curve" smooth="yes"/>
      <point x="93" y="115" type="line" smooth="yes"/>
      <point x="93" y="60"/>
      <point x="76" y="43"/>
      <point x="24" y="25" type="curve"/>
      <point x="18" y="-3" type="line"/>
      <point x="61" y="0"/>
      <point x="99" y="0"/>
      <point x="127" y="0" type="curve" smooth="yes"/>
      <point x="153" y="0"/>
      <point x="189" y="0"/>
      <point x="235" y="-3" type="curve"/>
    </contour>
  </outline>
</glyph>
<glyph name="j" format="2">
  <advance width="214"/>
  <unicode hex="006A"/>
  <note>
j
</note>
  <outline>
    <contour>
      <point x="-37" y="-242" type="curve"/>
      <point x="-34" y="-256"/>
      <point x="-20" y="-272"/>
      <point x="-6" y="-276" type="curve"/>
      <point x="137" y="-207"/>
      <point x="164" y="-87"/>
      <point x="164" y="-18" type="curve" smooth="yes"/>
      <point x="164" y="232" type="line" smooth="yes"/>
      <point x="164" y="298"/>
      <point x="164" y="366"/>
      <point x="168" y="399" type="curve"/>
      <point x="137" y="398"/>
      <point x="44" y="380"/>
      <point x="25" y="372" type="curve"/>
      <point x="20" y="339" type="line"/>
      <point x="24" y="340"/>
      <point x="29" y="340"/>
      <point x="29" y="340" type="curve"/>
      <point x="64" y="340"/>
      <point x="84" y="316"/>
      <point x="87" y="271" type="curve" smooth="yes"/>
      <point x="88" y="245"/>
      <point x="90" y="68"/>
      <point x="90" y="9" type="curve" smooth="yes"/>
      <point x="90" y="-182"/>
      <point x="28" y="-223"/>
    </contour>
    <contour>
      <point x="166" y="575" type="curve"/>
      <point x="148" y="596"/>
      <point x="117" y="612"/>
      <point x="91" y="615" type="curve"/>
      <point x="69" y="596"/>
      <point x="53" y="567"/>
      <point x="47" y="536" type="curve"/>
      <point x="62" y="518"/>
      <point x="92" y="503"/>
      <point x="123" y="497" type="curve"/>
      <point x="142" y="513"/>
      <point x="161" y="546"/>
    </contour>
  </outline>
</glyph>
<glyph name="k" format="2">
  <advance width="487"/>
  <unicode hex="006B"/>
  <note>
k
</note>
  <outline>
    <contour>
      <point x="231" y="25" type="line"/>
      <point x="167" y="43" type="line"/>
      <point x="167" y="162" type="line"/>
      <point x="219" y="205" type="line"/>
      <point x="230" y="162"/>
      <point x="290" y="26"/>
      <point x="356" y="-9" type="curve"/>
      <point x="382" y="-3"/>
      <point x="431" y="0"/>
      <point x="463" y="0" type="curve"/>
      <point x="471" y="30" type="line"/>
      <point x="384" y="40"/>
      <point x="321" y="135"/>
      <point x="289" y="195" type="curve" smooth="yes"/>
      <point x="264" y="241" type="line"/>
      <point x="299" y="277"/>
      <point x="373" y="347"/>
      <point x="416" y="360" type="curve" smooth="yes"/>
      <point x="433" y="365" type="line"/>
      <point x="441" y="395" type="line"/>
      <point x="406" y="392"/>
      <point x="379" y="392"/>
      <point x="342" y="392" type="curve" smooth="yes"/>
      <point x="305" y="392"/>
      <point x="288" y="393"/>
      <point x="246" y="396" type="curve"/>
      <point x="239" y="366" type="line"/>
      <point x="297" y="353" type="line"/>
      <point x="276" y="309"/>
      <point x="190" y="237"/>
      <point x="167" y="221" type="curve"/>
      <point x="167" y="488" type="line" smooth="yes"/>
      <point x="167" y="562"/>
      <point x="176" y="600"/>
      <point x="192" y="644" type="curve"/>
      <point x="160" y="653"/>
      <point x="63" y="666"/>
      <point x="24" y="666" type="curve"/>
      <point x="19" y="637" type="line"/>
      <point x="86" y="625"/>
      <point x="94" y="607"/>
      <point x="94" y="527" type="curve"/>
      <point x="94" y="117" type="line"/>
      <point x="94" y="60"/>
      <point x="79" y="39"/>
      <point x="29" y="25" type="curve"/>
      <point x="23" y="-3" type="line"/>
      <point x="52" y="0"/>
      <point x="89" y="0"/>
      <point x="120" y="0" type="curve" smooth="yes"/>
      <point x="148" y="0"/>
      <point x="188" y="0"/>
      <point x="225" y="-3" type="curve"/>
    </contour>
  </outline>
</glyph>
<glyph name="m" format="2">
  <advance width="697"/>
  <unicode hex="006D"/>
  <note>
m
</note>
  <outline>
    <contour>
      <point x="208" y="25" type="line"/>
      <point x="159" y="43" type="line"/>
      <point x="155" y="61"/>
      <point x="153" y="86"/>
      <point x="153" y="135" type="curve"/>
      <point x="153" y="297" type="line"/>
      <point x="256" y="340" type="line"/>
      <point x="281" y="333"/>
      <point x="304" y="312"/>
      <point x="313" y="289" type="curve"/>
      <point x="313" y="43" type="line"/>
      <point x="266" y="25" type="line"/>
      <point x="261" y="-3" type="line"/>
      <point x="285" y="-1"/>
      <point x="327" y="0"/>
      <point x="349" y="0" type="curve" smooth="yes"/>
      <point x="371" y="0"/>
      <point x="411" y="-1"/>
      <point x="437" y="-3" type="curve"/>
      <point x="443" y="25" type="line"/>
      <point x="388" y="43" type="line"/>
      <point x="387" y="293" type="line"/>
      <point x="491" y="339" type="line"/>
      <point x="516" y="337"/>
      <point x="541" y="314"/>
      <point x="548" y="287" type="curve"/>
      <point x="548" y="43" type="line"/>
      <point x="506" y="25" type="line"/>
      <point x="500" y="-3" type="line"/>
      <point x="533" y="0"/>
      <point x="568" y="0"/>
      <point x="595" y="0" type="curve" smooth="yes"/>
      <point x="622" y="0"/>
      <point x="645" y="0"/>
      <point x="676" y="-3" type="curve"/>
      <point x="681" y="25" type="line"/>
      <point x="644" y="32"/>
      <point x="622" y="47"/>
      <point x="622" y="90" type="curve"/>
      <point x="622" y="270" type="line"/>
      <point x="622" y="360"/>
      <point x="544" y="397"/>
      <point x="517" y="397" type="curve"/>
      <point x="380" y="331" type="line"/>
      <point x="365" y="353"/>
      <point x="327" y="397"/>
      <point x="275" y="397" type="curve"/>
      <point x="153" y="336" type="line"/>
      <point x="153" y="355"/>
      <point x="160" y="400"/>
      <point x="165" y="407" type="curve"/>
      <point x="134" y="407"/>
      <point x="31" y="386"/>
      <point x="5" y="373" type="curve"/>
      <point x="1" y="346" type="line"/>
      <point x="56" y="346"/>
      <point x="72" y="340"/>
      <point x="78" y="269" type="curve" smooth="yes"/>
      <point x="80" y="245"/>
      <point x="81" y="224"/>
      <point x="81" y="196" type="curve" smooth="yes"/>
      <point x="81" y="169"/>
      <point x="80" y="117"/>
      <point x="78" y="88" type="curve" smooth="yes"/>
      <point x="75" y="48"/>
      <point x="54" y="33"/>
      <point x="18" y="25" type="curve"/>
      <point x="14" y="-3" type="line"/>
      <point x="39" y="0"/>
      <point x="82" y="0"/>
      <point x="108" y="0" type="curve" smooth="yes"/>
      <point x="135" y="0"/>
      <point x="175" y="0"/>
      <point x="202" y="-3" type="curve"/>
    </contour>
  </outline>
</glyph>
<glyph name="n" format="2">
  <advance width="493"/>
  <unicode hex="006E"/>
  <note>
n
</note>
  <outline>
    <contour>
      <point x="224" y="25" type="line"/>
      <point x="168" y="45" type="line"/>
      <point x="165" y="64"/>
      <point x="164" y="83"/>
      <point x="164" y="134" type="curve"/>
      <point x="164" y="297" type="line"/>
      <point x="285" y="339" type="line"/>
      <point x="328" y="332"/>
      <point x="343" y="313"/>
      <point x="344" y="266" type="curve"/>
      <point x="345" y="128" type="line"/>
      <point x="345" y="90"/>
      <point x="343" y="63"/>
      <point x="340" y="43" type="curve"/>
      <point x="292" y="25" type="line"/>
      <point x="287" y="-3" type="line"/>
      <point x="321" y="0"/>
      <point x="356" y="0"/>
      <point x="383" y="0" type="curve" smooth="yes"/>
      <point x="409" y="0"/>
      <point x="446" y="0"/>
      <point x="471" y="-3" type="curve"/>
      <point x="476" y="25" type="line"/>
      <point x="440" y="33"/>
      <point x="418" y="44"/>
      <point x="418" y="88" type="curve" smooth="yes"/>
      <point x="418" y="245" type="line" smooth="yes"/>
      <point x="418" y="334"/>
      <point x="408" y="397"/>
      <point x="291" y="397" type="curve"/>
      <point x="164" y="335" type="line"/>
      <point x="164" y="359"/>
      <point x="169" y="398"/>
      <point x="175" y="407" type="curve"/>
      <point x="144" y="407"/>
      <point x="41" y="374"/>
      <point x="15" y="373" type="curve"/>
      <point x="11" y="346" type="line"/>
      <point x="66" y="336"/>
      <point x="83" y="329"/>
      <point x="88" y="269" type="curve" smooth="yes"/>
      <point x="90" y="245"/>
      <point x="91" y="213"/>
      <point x="91" y="191" type="curve" smooth="yes"/>
      <point x="91" y="171"/>
      <point x="91" y="120"/>
      <point x="88" y="91" type="curve" smooth="yes"/>
      <point x="84" y="48"/>
      <point x="70" y="33"/>
      <point x="28" y="25" type="curve"/>
      <point x="24" y="-3" type="line"/>
      <point x="67" y="0"/>
      <point x="99" y="0"/>
      <point x="120" y="0" type="curve" smooth="yes"/>
      <point x="143" y="0"/>
      <point x="166" y="0"/>
      <point x="219" y="-3" type="curve"/>
    </contour>
  </outline>
</glyph>
<glyph name="o" format="2">
  <advance width="462"/>
  <unicode hex="006F"/>
  <note>
o
</note>
  <outline>
    <contour>
      <point x="33" y="190" type="curve" smooth="yes"/>
      <point x="33" y="98"/>
      <point x="95" y="-11"/>
      <point x="219" y="-11" type="curve" smooth="yes"/>
      <point x="317" y="-11"/>
      <point x="429" y="57"/>
      <point x="429" y="201" type="curve" smooth="yes"/>
      <point x="429" y="302"/>
      <point x="373" y="397"/>
      <point x="245" y="397" type="curve" smooth="yes"/>
      <point x="121" y="397"/>
      <point x="33" y="305"/>
    </contour>
    <contour>
      <point x="228" y="351" type="curve" smooth="yes"/>
      <point x="310" y="351"/>
      <point x="350" y="278"/>
      <point x="350" y="179" type="curve" smooth="yes"/>
      <point x="350" y="83"/>
      <point x="310" y="34"/>
      <point x="240" y="34" type="curve" smooth="yes"/>
      <point x="146" y="34"/>
      <point x="112" y="128"/>
      <point x="112" y="206" type="curve" smooth="yes"/>
      <point x="112" y="305"/>
      <point x="164" y="351"/>
    </contour>
  </outline>
</glyph>
<glyph name="p" format="2">
  <advance width="500"/>
  <unicode hex="0070"/>
  <note>
p
</note>
  <outline>
    <contour>
      <point x="168" y="-48" type="curve"/>
      <point x="168" y="7" type="line"/>
      <point x="188" y="-1"/>
      <point x="222" y="-8"/>
      <point x="247" y="-8" type="curve" smooth="yes"/>
      <point x="334" y="-8"/>
      <point x="465" y="85"/>
      <point x="465" y="231" type="curve" smooth="yes"/>
      <point x="465" y="344"/>
      <point x="394" y="397"/>
      <point x="293" y="397" type="curve"/>
      <point x="168" y="329" type="line"/>
      <point x="168" y="344"/>
      <point x="175" y="390"/>
      <point x="179" y="407" type="curve"/>
      <point x="148" y="407"/>
      <point x="45" y="385"/>
      <point x="19" y="373" type="curve"/>
      <point x="15" y="346" type="line"/>
      <point x="70" y="346"/>
      <point x="83" y="317"/>
      <point x="88" y="297" type="curve" smooth="yes"/>
      <point x="95" y="271"/>
      <point x="95" y="191"/>
      <point x="95" y="121" type="curve"/>
      <point x="95" y="-122" type="line" smooth="yes"/>
      <point x="95" y="-166"/>
      <point x="95" y="-214"/>
      <point x="44" y="-236" type="curve"/>
      <point x="33" y="-263" type="line"/>
      <point x="93" y="-263"/>
      <point x="168" y="-267"/>
      <point x="240" y="-280" type="curve"/>
      <point x="247" y="-252" type="line"/>
      <point x="191" y="-233"/>
      <point x="177" y="-223"/>
      <point x="172" y="-183" type="curve" smooth="yes"/>
      <point x="169" y="-161"/>
      <point x="168" y="-124"/>
    </contour>
    <contour>
      <point x="270" y="41" type="curve" smooth="yes"/>
      <point x="234" y="41"/>
      <point x="189" y="57"/>
      <point x="168" y="71" type="curve"/>
      <point x="168" y="290" type="line"/>
      <point x="268" y="341" type="line"/>
      <point x="327" y="341"/>
      <point x="385" y="290"/>
      <point x="385" y="194" type="curve" smooth="yes"/>
      <point x="385" y="116"/>
      <point x="346" y="41"/>
    </contour>
  </outline>
</glyph>
<glyph name="q" format="2">
  <advance width="463"/>
  <unicode hex="0071"/>
  <note>
q
</note>
  <outline>
    <contour>
      <point x="327" y="-182" type="curve" smooth="yes"/>
      <point x="323" y="-223"/>
      <point x="300" y="-244"/>
      <point x="262" y="-258" type="curve"/>
      <point x="261" y="-286" type="line"/>
      <point x="319" y="-272"/>
      <point x="408" y="-264"/>
      <point x="459" y="-264" type="curve"/>
      <point x="463" y="-237" type="line"/>
      <point x="425" y="-232"/>
      <point x="404" y="-229"/>
      <point x="404" y="-166" type="curve" smooth="yes"/>
      <point x="404" y="187" type="line" smooth="yes"/>
      <point x="404" y="241"/>
      <point x="410" y="335"/>
      <point x="418" y="375" type="curve"/>
      <point x="370" y="390"/>
      <point x="324" y="397"/>
      <point x="284" y="397" type="curve" smooth="yes"/>
      <point x="153" y="397"/>
      <point x="32" y="326"/>
      <point x="32" y="175" type="curve" smooth="yes"/>
      <point x="32" y="40"/>
      <point x="128" y="-21"/>
      <point x="186" y="-21" type="curve" smooth="yes"/>
      <point x="222" y="-21"/>
      <point x="280" y="2"/>
      <point x="331" y="28" type="curve"/>
      <point x="331" y="-74" type="line"/>
      <point x="331" y="-109"/>
      <point x="331" y="-136"/>
    </contour>
    <contour>
      <point x="226" y="40" type="curve" smooth="yes"/>
      <point x="164" y="40"/>
      <point x="114" y="109"/>
      <point x="114" y="196" type="curve" smooth="yes"/>
      <point x="114" y="267"/>
      <point x="147" y="348"/>
      <point x="239" y="348" type="curve" smooth="yes"/>
      <point x="270" y="348"/>
      <point x="302" y="338"/>
      <point x="325" y="330" type="curve"/>
      <point x="328" y="313"/>
      <point x="331" y="267"/>
      <point x="331" y="221" type="curve" smooth="yes"/>
      <point x="331" y="72" type="line"/>
      <point x="306" y="57"/>
      <point x="257" y="40"/>
    </contour>
  </outline>
</glyph>
<glyph name="s" format="2">
  <advance width="319"/>
  <unicode hex="0073"/>
  <note>
s
</note>
  <outline>
    <contour>
      <point x="275" y="276" type="curve"/>
      <point x="290" y="380" type="line"/>
      <point x="267" y="388"/>
      <point x="198" y="397"/>
      <point x="168" y="397" type="curve" smooth="yes"/>
      <point x="102" y="397"/>
      <point x="33" y="355"/>
      <point x="33" y="282" type="curve" smooth="yes"/>
      <point x="33" y="222"/>
      <point x="81" y="195"/>
      <point x="138" y="164" type="curve" smooth="yes"/>
      <point x="198" y="131"/>
      <point x="221" y="119"/>
      <point x="221" y="85" type="curve" smooth="yes"/>
      <point x="221" y="48"/>
      <point x="196" y="26"/>
      <point x="155" y="26" type="curve" smooth="yes"/>
      <point x="102" y="26"/>
      <point x="70" y="62"/>
      <point x="60" y="128" type="curve"/>
      <point x="56" y="128" type="line" smooth="yes"/>
      <point x="47" y="128"/>
      <point x="33" y="125"/>
      <point x="27" y="118" type="curve"/>
      <point x="23" y="14" type="line"/>
      <point x="46" y="0"/>
      <point x="92" y="-10"/>
      <point x="136" y="-10" type="curve" smooth="yes"/>
      <point x="223" y="-10"/>
      <point x="296" y="30"/>
      <point x="296" y="109" type="curve" smooth="yes"/>
      <point x="296" y="165"/>
      <point x="259" y="185"/>
      <point x="196" y="218" type="curve" smooth="yes"/>
      <point x="133" y="251"/>
      <point x="98" y="269"/>
      <point x="98" y="307" type="curve" smooth="yes"/>
      <point x="98" y="343"/>
      <point x="127" y="361"/>
      <point x="162" y="361" type="curve" smooth="yes"/>
      <point x="206" y="361"/>
      <point x="230" y="334"/>
      <point x="241" y="276" type="curve"/>
      <point x="244" y="274"/>
      <point x="250" y="272"/>
      <point x="258" y="272" type="curve" smooth="yes"/>
      <point x="265" y="272"/>
      <point x="271" y="274"/>
    </contour>
  </outline>
</glyph>
<glyph name="u" format="2">
  <advance width="490"/>
  <unicode hex="0075"/>
  <note>
u
</note>
  <outline>
    <contour>
      <point x="202" y="-7" type="curve" smooth="yes"/>
      <point x="232" y="-7"/>
      <point x="312" y="37"/>
      <point x="337" y="59" type="curve"/>
      <point x="339" y="38"/>
      <point x="348" y="7"/>
      <point x="359" y="-11" type="curve"/>
      <point x="392" y="0"/>
      <point x="446" y="11"/>
      <point x="480" y="15" type="curve"/>
      <point x="485" y="48" type="line"/>
      <point x="479" y="47"/>
      <point x="470" y="47"/>
      <point x="469" y="47" type="curve" smooth="yes"/>
      <point x="436" y="47"/>
      <point x="420" y="61"/>
      <point x="415" y="91" type="curve" smooth="yes"/>
      <point x="412" y="109"/>
      <point x="412" y="147"/>
      <point x="412" y="200" type="curve" smooth="yes"/>
      <point x="412" y="269"/>
      <point x="416" y="353"/>
      <point x="425" y="400" type="curve"/>
      <point x="393" y="400"/>
      <point x="306" y="386"/>
      <point x="266" y="371" type="curve"/>
      <point x="261" y="343" type="line"/>
      <point x="269" y="344"/>
      <point x="278" y="345"/>
      <point x="286" y="345" type="curve" smooth="yes"/>
      <point x="322" y="345"/>
      <point x="340" y="328"/>
      <point x="340" y="284" type="curve" smooth="yes"/>
      <point x="340" y="197" type="line" smooth="yes"/>
      <point x="340" y="169"/>
      <point x="339" y="133"/>
      <point x="336" y="95" type="curve"/>
      <point x="310" y="77"/>
      <point x="254" y="54"/>
      <point x="225" y="54" type="curve" smooth="yes"/>
      <point x="196" y="54"/>
      <point x="177" y="82"/>
      <point x="171" y="110" type="curve" smooth="yes"/>
      <point x="168" y="130"/>
      <point x="166" y="175"/>
      <point x="166" y="225" type="curve" smooth="yes"/>
      <point x="166" y="285"/>
      <point x="167" y="357"/>
      <point x="173" y="399" type="curve"/>
      <point x="142" y="399"/>
      <point x="55" y="384"/>
      <point x="24" y="371" type="curve"/>
      <point x="19" y="343" type="line"/>
      <point x="24" y="344"/>
      <point x="31" y="344"/>
      <point x="37" y="344" type="curve" smooth="yes"/>
      <point x="74" y="344"/>
      <point x="93" y="321"/>
      <point x="93" y="276" type="curve" smooth="yes"/>
      <point x="93" y="213" type="line" smooth="yes"/>
      <point x="93" y="182"/>
      <point x="88" y="147"/>
      <point x="88" y="115" type="curve" smooth="yes"/>
      <point x="88" y="59"/>
      <point x="103" y="-7"/>
    </contour>
  </outline>
</glyph>
<glyph name="v" format="2">
  <advance width="476"/>
  <unicode hex="0076"/>
  <note>
v
</note>
  <outline>
    <contour>
      <point x="112" y="291" type="curve" smooth="yes"/>
      <point x="154" y="196"/>
      <point x="187" y="94"/>
      <point x="221" y="-7" type="curve"/>
      <point x="236" y="-7"/>
      <point x="264" y="-3"/>
      <point x="277" y="5" type="curve"/>
      <point x="304" y="70" type="line" smooth="yes"/>
      <point x="345" y="169"/>
      <point x="423" y="356"/>
      <point x="452" y="392" type="curve"/>
      <point x="452" y="400" type="line"/>
      <point x="399" y="392"/>
      <point x="334" y="392"/>
      <point x="290" y="392" type="curve"/>
      <point x="285" y="362" type="line"/>
      <point x="359" y="351" type="line"/>
      <point x="331" y="268"/>
      <point x="292" y="167"/>
      <point x="268" y="114" type="curve" smooth="yes"/>
      <point x="267" y="112"/>
      <point x="265" y="111"/>
      <point x="263" y="111" type="curve"/>
      <point x="263" y="111"/>
      <point x="261" y="111"/>
      <point x="260" y="113" type="curve" smooth="yes"/>
      <point x="229" y="163"/>
      <point x="176" y="337"/>
      <point x="171" y="399" type="curve"/>
      <point x="129" y="399"/>
      <point x="61" y="386"/>
      <point x="28" y="370" type="curve"/>
      <point x="24" y="339" type="line"/>
      <point x="30" y="340"/>
      <point x="42" y="340"/>
      <point x="48" y="340" type="curve" smooth="yes"/>
      <point x="78" y="340"/>
      <point x="98" y="321"/>
    </contour>
  </outline>
</glyph>
<glyph name="y" format="2">
  <advance width="492"/>
  <unicode hex="0079"/>
  <note>
y
</note>
  <outline>
    <contour>
      <point x="113" y="297" type="curve" smooth="yes"/>
      <point x="154" y="226"/>
      <point x="192" y="150"/>
      <point x="232" y="37" type="curve"/>
      <point x="236" y="37"/>
      <point x="205" y="-36"/>
      <point x="177" y="-82" type="curve" smooth="yes"/>
      <point x="154" y="-120"/>
      <point x="124" y="-153"/>
      <point x="69" y="-153" type="curve" smooth="yes"/>
      <point x="61" y="-153"/>
      <point x="51" y="-152"/>
      <point x="42" y="-150" type="curve"/>
      <point x="42" y="-182"/>
      <point x="82" y="-236"/>
      <point x="119" y="-237" type="curve"/>
      <point x="187" y="-178"/>
      <point x="223" y="-110"/>
      <point x="297" y="38" type="curve" smooth="yes"/>
      <point x="348" y="142"/>
      <point x="414" y="283"/>
      <point x="468" y="393" type="curve"/>
      <point x="468" y="399" type="line"/>
      <point x="410" y="392"/>
      <point x="360" y="392"/>
      <point x="302" y="392" type="curve"/>
      <point x="295" y="364" type="line"/>
      <point x="371" y="357" type="line"/>
      <point x="358" y="304"/>
      <point x="306" y="183"/>
      <point x="274" y="123" type="curve"/>
      <point x="239" y="175"/>
      <point x="177" y="337"/>
      <point x="172" y="399" type="curve"/>
      <point x="130" y="399"/>
      <point x="61" y="389"/>
      <point x="27" y="373" type="curve"/>
      <point x="23" y="342" type="line"/>
      <point x="30" y="344"/>
      <point x="39" y="344"/>
      <point x="46" y="344" type="curve" smooth="yes"/>
      <point x="76" y="344"/>
      <point x="95" y="328"/>
    </contour>
  </outline>
</glyph>
<glyph name="exclamdown" format="2">
  <advance width="217"/>
  <unicode hex="00A1"/>
  <note>
exclamdown
</note>
  <outline>
    <contour>
      <point x="162" y="-214" type="curve"/>
      <point x="148" y="-101"/>
      <point x="139" y="63"/>
      <point x="139" y="186" type="curve" smooth="yes"/>
      <point x="139" y="234" type="line"/>
      <point x="121" y="234"/>
      <point x="90" y="229"/>
      <point x="78" y="223" type="curve"/>
      <point x="78" y="142" type="line" smooth="yes"/>
      <point x="78" y="27"/>
      <point x="75" y="-125"/>
      <point x="64" y="-230" type="curve"/>
      <point x="89" y="-230"/>
      <point x="139" y="-224"/>
    </contour>
    <contour>
      <point x="46" y="329" type="curve"/>
      <point x="63" y="308"/>
      <point x="98" y="289"/>
      <point x="124" y="285" type="curve"/>
      <point x="146" y="304"/>
      <point x="166" y="337"/>
      <point x="171" y="368" type="curve"/>
      <point x="156" y="386"/>
      <point x="123" y="405"/>
      <point x="92" y="411" type="curve"/>
      <point x="74" y="395"/>
      <point x="50" y="358"/>
    </contour>
  </outline>
</glyph>
<glyph name="dieresis" format="2">
  <advance width="414"/>
  <unicode hex="00A8"/>
  <note>
dieresis
</note>
  <outline>
    <contour>
      <point x="179" y="525" type="curve"/>
      <point x="167" y="539"/>
      <point x="142" y="553"/>
      <point x="123" y="556" type="curve"/>
      <point x="106" y="543"/>
      <point x="92" y="519"/>
      <point x="88" y="496" type="curve"/>
      <point x="99" y="482"/>
      <point x="124" y="469"/>
      <point x="145" y="465" type="curve"/>
      <point x="158" y="477"/>
      <point x="175" y="504"/>
    </contour>
    <contour>
      <point x="321" y="525" type="curve"/>
      <point x="309" y="539"/>
      <point x="284" y="553"/>
      <point x="265" y="556" type="curve"/>
      <point x="249" y="543"/>
      <point x="235" y="519"/>
      <point x="230" y="496" type="curve"/>
      <point x="241" y="482"/>
      <point x="266" y="469"/>
      <point x="288" y="465" type="curve"/>
      <point x="301" y="477"/>
      <point x="317" y="504"/>
    </contour>
  </outline>
</glyph>
<glyph name="cedilla" format="2">
  <advance width="409"/>
  <unicode hex="00B8"/>
  <note>
cedilla
</note>
  <outline>
    <contour>
      <point x="127" y="-180" type="curve"/>
      <point x="139" y="-191"/>
      <point x="159" y="-197"/>
      <point x="180" y="-197" type="curve" smooth="yes"/>
      <point x="232" y="-197"/>
      <point x="290" y="-155"/>
      <point x="290" y="-107" type="curve" smooth="yes"/>
      <point x="290" y="-74"/>
      <point x="263" y="-48"/>
      <point x="230" y="-31" type="curve"/>
      <point x="259" y="13" type="line"/>
      <point x="220" y="13" type="line"/>
      <point x="164" y="-71" type="line" smooth="yes"/>
      <point x="162" y="-74"/>
      <point x="164" y="-75"/>
      <point x="175" y="-77" type="curve" smooth="yes"/>
      <point x="209" y="-84"/>
      <point x="233" y="-105"/>
      <point x="233" y="-129" type="curve" smooth="yes"/>
      <point x="233" y="-145"/>
      <point x="222" y="-160"/>
      <point x="193" y="-160" type="curve" smooth="yes"/>
      <point x="174" y="-160"/>
      <point x="153" y="-154"/>
      <point x="135" y="-139" type="curve"/>
      <point x="128" y="-153"/>
      <point x="127" y="-165"/>
    </contour>
  </outline>
</glyph>
<glyph name="longs" format="2">
  <advance width="320"/>
  <unicode hex="017F"/>
  <note>
longs
</note>
  <outline>
    <contour>
      <point x="254" y="25" type="line"/>
      <point x="172" y="58" type="line"/>
      <point x="169" y="107"/>
      <point x="169" y="184"/>
      <point x="169" y="282" type="curve" smooth="yes"/>
      <point x="169" y="439" type="line" smooth="yes"/>
      <point x="169" y="525"/>
      <point x="193" y="611"/>
      <point x="258" y="611" type="curve" smooth="yes"/>
      <point x="283" y="611"/>
      <point x="325" y="598"/>
      <point x="366" y="563" type="curve"/>
      <point x="386" y="587"/>
      <point x="398" y="614"/>
      <point x="398" y="642" type="curve"/>
      <point x="369" y="654"/>
      <point x="325" y="668"/>
      <point x="281" y="668" type="curve"/>
      <point x="164" y="647"/>
      <point x="95" y="538"/>
      <point x="95" y="424" type="curve" smooth="yes"/>
      <point x="95" y="333" type="line" smooth="yes"/>
      <point x="95" y="231"/>
      <point x="93" y="145"/>
      <point x="89" y="110" type="curve" smooth="yes"/>
      <point x="85" y="70"/>
      <point x="72" y="41"/>
      <point x="27" y="25" type="curve"/>
      <point x="23" y="-3" type="line"/>
      <point x="70" y="0"/>
      <point x="100" y="0"/>
      <point x="130" y="0" type="curve" smooth="yes"/>
      <point x="161" y="0"/>
      <point x="200" y="0"/>
      <point x="249" y="-3" type="curve"/>
    </contour>
  </outline>
</glyph>
<glyph name="florin" format="2">
  <advance width="320"/>
  <unicode hex="0192"/>
  <note>
florin
</note>
  <outline>
    <contour>
      <point x="169" y="333" type="line"/>
      <point x="294" y="333" type="line"/>
      <point x="301" y="347"/>
      <point x="304" y="368"/>
      <point x="304" y="387" type="curve" smooth="yes"/>
      <point x="304" y="388"/>
      <point x="304" y="392"/>
      <point x="303" y="395" type="curve"/>
      <point x="169" y="385" type="line"/>
      <point x="169" y="439" type="line" smooth="yes"/>
      <point x="169" y="525"/>
      <point x="193" y="611"/>
      <point x="258" y="611" type="curve" smooth="yes"/>
      <point x="283" y="611"/>
      <point x="325" y="598"/>
      <point x="366" y="563" type="curve"/>
      <point x="386" y="587"/>
      <point x="398" y="614"/>
      <point x="398" y="642" type="curve"/>
      <point x="369" y="654"/>
      <point x="325" y="668"/>
      <point x="281" y="668" type="curve"/>
      <point x="164" y="647"/>
      <point x="95" y="538"/>
      <point x="95" y="424" type="curve" smooth="yes"/>
      <point x="95" y="380" type="line"/>
      <point x="33" y="375" type="line"/>
      <point x="31" y="370"/>
      <point x="30" y="360"/>
      <point x="30" y="350" type="curve" smooth="yes"/>
      <point x="30" y="339"/>
      <point x="31" y="336"/>
      <point x="32" y="333" type="curve"/>
      <point x="95" y="333" type="line"/>
      <point x="95" y="-9" type="line" smooth="yes"/>
      <point x="95" y="-95"/>
      <point x="74" y="-175"/>
      <point x="4" y="-175" type="curve" smooth="yes"/>
      <point x="-17" y="-175"/>
      <point x="-37" y="-169"/>
      <point x="-79" y="-147" type="curve"/>
      <point x="-100" y="-170"/>
      <point x="-110" y="-199"/>
      <point x="-110" y="-222" type="curve"/>
      <point x="-81" y="-234"/>
      <point x="-43" y="-238"/>
      <point x="-18" y="-238" type="curve"/>
      <point x="100" y="-217"/>
      <point x="169" y="-108"/>
      <point x="169" y="7" type="curve" smooth="yes"/>
    </contour>
  </outline>
</glyph>
<glyph name="circumflex" format="2">
  <advance width="414"/>
  <unicode hex="02C6"/>
  <note>
circumflex
</note>
  <outline>
    <contour>
      <point x="231" y="597" type="curve" smooth="yes"/>
      <point x="229" y="600"/>
      <point x="225" y="600"/>
      <point x="221" y="600" type="curve" smooth="yes"/>
      <point x="211" y="600"/>
      <point x="200" y="597"/>
      <point x="196" y="592" type="curve" smooth="yes"/>
      <point x="155" y="546"/>
      <point x="110" y="502"/>
      <point x="63" y="460" type="curve"/>
      <point x="63" y="450"/>
      <point x="71" y="439"/>
      <point x="80" y="435" type="curve"/>
      <point x="120" y="466"/>
      <point x="163" y="495"/>
      <point x="206" y="521" type="curve"/>
      <point x="245" y="498"/>
      <point x="286" y="467"/>
      <point x="324" y="437" type="curve"/>
      <point x="339" y="437"/>
      <point x="350" y="448"/>
      <point x="354" y="457" type="curve"/>
      <point x="308" y="502"/>
      <point x="267" y="548"/>
    </contour>
  </outline>
</glyph>
<glyph name="uni02D0" format="2">
  <advance width="221"/>
  <unicode hex="02D0"/>
  <note>
uni02D0
</note>
  <outline>
    <contour>
      <point x="48" y="6" type="curve"/>
      <point x="48" y="3"/>
      <point x="50" y="1"/>
      <point x="52" y="0" type="curve"/>
      <point x="171" y="0" type="line"/>
      <point x="173" y="1"/>
      <point x="175" y="3"/>
      <point x="175" y="7" type="curve"/>
      <point x="165" y="25"/>
      <point x="132" y="96"/>
      <point x="122" y="124" type="curve" smooth="yes"/>
      <point x="116" y="140" type="line"/>
      <point x="112" y="137"/>
      <point x="107" y="135"/>
      <point x="103" y="134" type="curve"/>
      <point x="88" y="89"/>
      <point x="70" y="48"/>
    </contour>
    <contour>
      <point x="173" y="386" type="curve"/>
      <point x="173" y="389"/>
      <point x="171" y="391"/>
      <point x="169" y="392" type="curve"/>
      <point x="50" y="392" type="line"/>
      <point x="48" y="391"/>
      <point x="47" y="389"/>
      <point x="47" y="385" type="curve"/>
      <point x="57" y="367"/>
      <point x="89" y="296"/>
      <point x="100" y="268" type="curve" smooth="yes"/>
      <point x="105" y="252" type="line"/>
      <point x="110" y="255"/>
      <point x="115" y="257"/>
      <point x="118" y="258" type="curve"/>
      <point x="134" y="303"/>
      <point x="152" y="344"/>
    </contour>
  </outline>
</glyph>
<glyph name="breve" format="2">
  <advance width="443"/>
  <unicode hex="02D8"/>
  <note>
breve
</note>
  <outline>
    <contour>
      <point x="343" y="553" type="curve"/>
      <point x="337" y="564"/>
      <point x="331" y="572"/>
      <point x="318" y="577" type="curve"/>
      <point x="286" y="534"/>
      <point x="261" y="511"/>
      <point x="215" y="511" type="curve" smooth="yes"/>
      <point x="169" y="511"/>
      <point x="144" y="534"/>
      <point x="112" y="577" type="curve"/>
      <point x="100" y="572"/>
      <point x="93" y="564"/>
      <point x="88" y="553" type="curve"/>
      <point x="101" y="500"/>
      <point x="151" y="452"/>
      <point x="215" y="452" type="curve" smooth="yes"/>
      <point x="279" y="452"/>
      <point x="329" y="500"/>
    </contour>
  </outline>
</glyph>
<glyph name="dotaccent" format="2">
  <advance width="221"/>
  <unicode hex="02D9"/>
  <note>
dotaccent
</note>
  <outline>
    <contour>
      <point x="161" y="754" type="curve"/>
      <point x="143" y="775"/>
      <point x="113" y="790"/>
      <point x="87" y="794" type="curve"/>
      <point x="64" y="775"/>
      <point x="48" y="746"/>
      <point x="43" y="715" type="curve"/>
      <point x="58" y="696"/>
      <point x="88" y="681"/>
      <point x="118" y="676" type="curve"/>
      <point x="137" y="692"/>
      <point x="156" y="725"/>
    </contour>
  </outline>
</glyph>
<glyph name="tilde" format="2">
  <advance width="414"/>
  <unicode hex="02DC"/>
  <note>
tilde
</note>
  <outline>
    <contour>
      <point x="361" y="529" type="curve"/>
      <point x="361" y="538"/>
      <point x="349" y="560"/>
      <point x="341" y="567" type="curve"/>
      <point x="322" y="538"/>
      <point x="301" y="528"/>
      <point x="274" y="528" type="curve" smooth="yes"/>
      <point x="229" y="528"/>
      <point x="195" y="557"/>
      <point x="150" y="557" type="curve" smooth="yes"/>
      <point x="109" y="557"/>
      <point x="78" y="533"/>
      <point x="52" y="492" type="curve"/>
      <point x="53" y="481"/>
      <point x="57" y="467"/>
      <point x="64" y="459" type="curve"/>
      <point x="91" y="488"/>
      <point x="114" y="499"/>
      <point x="136" y="499" type="curve" smooth="yes"/>
      <point x="174" y="499"/>
      <point x="234" y="467"/>
      <point x="275" y="467" type="curve" smooth="yes"/>
      <point x="311" y="467"/>
      <point x="335" y="492"/>
    </contour>
  </outline>
</glyph>
<glyph name="emdash" format="2">
  <advance width="930"/>
  <unicode hex="2014"/>
  <note>
emdash
</note>
  <outline>
    <contour>
      <point x="880" y="189" type="curve"/>
      <point x="884" y="205"/>
      <point x="885" y="231"/>
      <point x="884" y="250" type="curve"/>
      <point x="817" y="245"/>
      <point x="115" y="236"/>
      <point x="51" y="240" type="curve"/>
      <point x="47" y="221"/>
      <point x="46" y="194"/>
      <point x="47" y="175" type="curve"/>
      <point x="112" y="180"/>
      <point x="816" y="188"/>
    </contour>
  </outline>
</glyph>
<glyph name="quoteright" format="2">
  <advance width="198"/>
  <unicode hex="2019"/>
  <note>
quoteright
</note>
  <outline>
    <contour>
      <point x="143" y="658" type="curve"/>
      <point x="124" y="658"/>
      <point x="73" y="639"/>
      <point x="51" y="623" type="curve"/>
      <point x="69" y="600"/>
      <point x="76" y="572"/>
      <point x="76" y="545" type="curve" smooth="yes"/>
      <point x="76" y="500"/>
      <point x="56" y="454"/>
      <point x="24" y="426" type="curve"/>
      <point x="28" y="417"/>
      <point x="36" y="409"/>
      <point x="47" y="404" type="curve"/>
      <point x="100" y="428"/>
      <point x="150" y="510"/>
      <point x="150" y="601" type="curve" smooth="yes"/>
      <point x="150" y="619"/>
      <point x="148" y="642"/>
    </contour>
  </outline>
</glyph>
<glyph name="dong" format="2">
  <advance width="457"/>
  <unicode hex="20AB"/>
  <note>
dong
</note>
  <outline>
    <contour>
      <point x="179" y="501" type="curve"/>
      <point x="170" y="491"/>
      <point x="167" y="470"/>
      <point x="167" y="458" type="curve"/>
      <point x="214" y="461"/>
      <point x="266" y="462"/>
      <point x="315" y="462" type="curve"/>
      <point x="315" y="383" type="line"/>
      <point x="296" y="386"/>
      <point x="257" y="397"/>
      <point x="251" y="397" type="curve" smooth="yes"/>
      <point x="137" y="397"/>
      <point x="33" y="319"/>
      <point x="33" y="173" type="curve" smooth="yes"/>
      <point x="33" y="74"/>
      <point x="110" y="9"/>
      <point x="184" y="9" type="curve" smooth="yes"/>
      <point x="191" y="9"/>
      <point x="294" y="47"/>
      <point x="315" y="58" type="curve"/>
      <point x="316" y="47"/>
      <point x="320" y="28"/>
      <point x="328" y="14" type="curve"/>
      <point x="363" y="27"/>
      <point x="414" y="35"/>
      <point x="448" y="37" type="curve"/>
      <point x="452" y="68" type="line"/>
      <point x="446" y="67"/>
      <point x="439" y="67"/>
      <point x="438" y="67" type="curve" smooth="yes"/>
      <point x="395" y="67"/>
      <point x="388" y="79"/>
      <point x="386" y="117" type="curve" smooth="yes"/>
      <point x="385" y="169"/>
      <point x="384" y="239"/>
      <point x="384" y="305" type="curve" smooth="yes"/>
      <point x="384" y="373" type="line" smooth="yes"/>
      <point x="384" y="403"/>
      <point x="384" y="433"/>
      <point x="385" y="462" type="curve"/>
      <point x="403" y="462"/>
      <point x="419" y="461"/>
      <point x="433" y="460" type="curve"/>
      <point x="439" y="472"/>
      <point x="444" y="497"/>
      <point x="444" y="506" type="curve"/>
      <point x="429" y="505"/>
      <point x="409" y="504"/>
      <point x="385" y="503" type="curve"/>
      <point x="387" y="565"/>
      <point x="391" y="619"/>
      <point x="398" y="647" type="curve"/>
      <point x="361" y="647"/>
      <point x="282" y="627"/>
      <point x="247" y="613" type="curve"/>
      <point x="244" y="585" type="line"/>
      <point x="250" y="586"/>
      <point x="256" y="586"/>
      <point x="257" y="586" type="curve" smooth="yes"/>
      <point x="300" y="586"/>
      <point x="312" y="557"/>
      <point x="314" y="501" type="curve"/>
      <point x="262" y="500"/>
      <point x="209" y="500"/>
    </contour>
    <contour>
      <point x="216" y="72" type="curve" smooth="yes"/>
      <point x="170" y="72"/>
      <point x="118" y="107"/>
      <point x="118" y="202" type="curve" smooth="yes"/>
      <point x="118" y="282"/>
      <point x="155" y="350"/>
      <point x="227" y="350" type="curve" smooth="yes"/>
      <point x="255" y="350"/>
      <point x="294" y="340"/>
      <point x="315" y="335" type="curve"/>
      <point x="315" y="103" type="line"/>
      <point x="291" y="89"/>
      <point x="251" y="72"/>
    </contour>
    <contour>
      <point x="83" y="-50" type="curve"/>
      <point x="427" y="-50" type="line"/>
      <point x="427" y="-65"/>
      <point x="424" y="-82"/>
      <point x="415" y="-97" type="curve"/>
      <point x="71" y="-97" type="line"/>
      <point x="71" y="-82"/>
      <point x="74" y="-65"/>
    </contour>
  </outline>
</glyph>
<glyph name="uni20B9" format="2">
  <advance width="408"/>
  <unicode hex="20B9"/>
  <note>
uni20B9
</note>
  <outline>
    <contour>
      <point x="375" y="579" type="curve"/>
      <point x="48" y="579" type="line"/>
      <point x="37" y="564"/>
      <point x="33" y="548"/>
      <point x="33" y="533" type="curve"/>
      <point x="161" y="533" type="line" smooth="yes"/>
      <point x="209" y="533"/>
      <point x="236" y="490"/>
      <point x="246" y="441" type="curve"/>
      <point x="48" y="441" type="line"/>
      <point x="37" y="426"/>
      <point x="33" y="411"/>
      <point x="33" y="396" type="curve"/>
      <point x="249" y="396" type="line"/>
      <point x="243" y="320"/>
      <point x="185" y="290"/>
      <point x="120" y="290" type="curve" smooth="yes"/>
      <point x="91" y="290"/>
      <point x="75" y="291"/>
      <point x="61" y="297" type="curve"/>
      <point x="52" y="293"/>
      <point x="45" y="286"/>
      <point x="41" y="277" type="curve"/>
      <point x="41" y="268"/>
      <point x="56" y="232"/>
      <point x="64" y="214" type="curve" smooth="yes"/>
      <point x="91" y="155"/>
      <point x="160" y="35"/>
      <point x="237" y="-20" type="curve"/>
      <point x="263" y="-10"/>
      <point x="293" y="-7"/>
      <point x="334" y="-7" type="curve"/>
      <point x="338" y="26" type="line"/>
      <point x="237" y="42"/>
      <point x="166" y="163"/>
      <point x="128" y="249" type="curve"/>
      <point x="191" y="252"/>
      <point x="298" y="296"/>
      <point x="313" y="396" type="curve"/>
      <point x="359" y="396" type="line"/>
      <point x="371" y="411"/>
      <point x="375" y="426"/>
      <point x="375" y="441" type="curve"/>
      <point x="313" y="441" type="line"/>
      <point x="309" y="471"/>
      <point x="298" y="506"/>
      <point x="273" y="533" type="curve"/>
      <point x="359" y="533" type="line"/>
      <point x="371" y="548"/>
      <point x="375" y="564"/>
    </contour>
  </outline>
</glyph>
<glyph name="fi" format="2">
  <advance width="526"/>
  <unicode hex="FB01"/>
  <note>
fi
</note>
  <outline>
    <contour>
      <point x="240" y="25" type="line"/>
      <point x="177" y="52" type="line"/>
      <point x="173" y="101"/>
      <point x="173" y="184"/>
      <point x="173" y="282" type="curve" smooth="yes"/>
      <point x="173" y="333" type="line"/>
      <point x="303" y="333" type="line" smooth="yes"/>
      <point x="339" y="333"/>
      <point x="365" y="316"/>
      <point x="365" y="264" type="curve" smooth="yes"/>
      <point x="365" y="124" type="line" smooth="yes"/>
      <point x="365" y="84"/>
      <point x="358" y="39"/>
      <point x="313" y="25" type="curve"/>
      <point x="308" y="-3" type="line"/>
      <point x="351" y="0"/>
      <point x="374" y="0"/>
      <point x="402" y="0" type="curve" smooth="yes"/>
      <point x="431" y="0"/>
      <point x="464" y="0"/>
      <point x="510" y="-3" type="curve"/>
      <point x="516" y="25" type="line"/>
      <point x="439" y="52" type="line"/>
      <point x="439" y="102" type="line" smooth="yes"/>
      <point x="439" y="197"/>
      <point x="434" y="304"/>
      <point x="446" y="398" type="curve"/>
      <point x="425" y="398"/>
      <point x="283" y="389"/>
      <point x="172" y="382" type="curve"/>
      <point x="173" y="439" type="line" smooth="yes"/>
      <point x="174" y="525"/>
      <point x="197" y="611"/>
      <point x="269" y="611" type="curve" smooth="yes"/>
      <point x="308" y="611"/>
      <point x="358" y="585"/>
      <point x="367" y="535" type="curve"/>
      <point x="372" y="533"/>
      <point x="385" y="531"/>
      <point x="395" y="531" type="curve" smooth="yes"/>
      <point x="404" y="531"/>
      <point x="417" y="533"/>
      <point x="423" y="535" type="curve"/>
      <point x="431" y="647" type="line"/>
      <point x="404" y="654"/>
      <point x="331" y="665"/>
      <point x="288" y="668" type="curve"/>
      <point x="170" y="647"/>
      <point x="101" y="538"/>
      <point x="101" y="424" type="curve" smooth="yes"/>
      <point x="101" y="377" type="line"/>
      <point x="68" y="375"/>
      <point x="46" y="373"/>
      <point x="38" y="372" type="curve"/>
      <point x="37" y="369"/>
      <point x="36" y="359"/>
      <point x="36" y="345" type="curve" smooth="yes"/>
      <point x="36" y="344"/>
      <point x="36" y="338"/>
      <point x="37" y="333" type="curve"/>
      <point x="101" y="333" type="line"/>
      <point x="101" y="231"/>
      <point x="100" y="155"/>
      <point x="96" y="119" type="curve" smooth="yes"/>
      <point x="91" y="73"/>
      <point x="77" y="41"/>
      <point x="33" y="25" type="curve"/>
      <point x="29" y="-3" type="line"/>
      <point x="75" y="0"/>
      <point x="103" y="0"/>
      <point x="134" y="0" type="curve" smooth="yes"/>
      <point x="165" y="0"/>
      <point x="180" y="0"/>
      <point x="235" y="-3" type="curve"/>
    </contour>
  </outline>
</glyph>
<glyph name="fl" format="2">
  <advance width="540"/>
  <unicode hex="FB02"/>
  <note>
fl
</note>
  <outline>
    <contour>
      <point x="238" y="25" type="line"/>
      <point x="177" y="52" type="line"/>
      <point x="173" y="101"/>
      <point x="173" y="184"/>
      <point x="173" y="282" type="curve" smooth="yes"/>
      <point x="173" y="333" type="line"/>
      <point x="299" y="333" type="line"/>
      <point x="305" y="347"/>
      <point x="308" y="368"/>
      <point x="308" y="387" type="curve" smooth="yes"/>
      <point x="308" y="388"/>
      <point x="308" y="392"/>
      <point x="307" y="395" type="curve"/>
      <point x="173" y="386" type="line"/>
      <point x="173" y="439" type="line" smooth="yes"/>
      <point x="173" y="525"/>
      <point x="205" y="611"/>
      <point x="251" y="611" type="curve" smooth="yes"/>
      <point x="287" y="611"/>
      <point x="332" y="601"/>
      <point x="355" y="592" type="curve"/>
      <point x="362" y="533"/>
      <point x="364" y="410"/>
      <point x="364" y="350" type="curve" smooth="yes"/>
      <point x="364" y="258"/>
      <point x="360" y="155"/>
      <point x="358" y="116" type="curve" smooth="yes"/>
      <point x="356" y="59"/>
      <point x="344" y="35"/>
      <point x="316" y="25" type="curve"/>
      <point x="311" y="-3" type="line"/>
      <point x="351" y="0"/>
      <point x="371" y="0"/>
      <point x="400" y="0" type="curve" smooth="yes"/>
      <point x="430" y="0"/>
      <point x="471" y="-1"/>
      <point x="512" y="-3" type="curve"/>
      <point x="519" y="25" type="line"/>
      <point x="440" y="52" type="line"/>
      <point x="439" y="96"/>
      <point x="438" y="178"/>
      <point x="438" y="263" type="curve" smooth="yes"/>
      <point x="438" y="377" type="line" smooth="yes"/>
      <point x="438" y="492"/>
      <point x="440" y="616"/>
      <point x="452" y="666" type="curve"/>
      <point x="437" y="668"/>
      <point x="404" y="662"/>
      <point x="369" y="654" type="curve"/>
      <point x="357" y="659"/>
      <point x="324" y="665"/>
      <point x="286" y="668" type="curve"/>
      <point x="169" y="647"/>
      <point x="101" y="538"/>
      <point x="101" y="424" type="curve" smooth="yes"/>
      <point x="101" y="380" type="line"/>
      <point x="38" y="372" type="line"/>
      <point x="37" y="369"/>
      <point x="36" y="359"/>
      <point x="36" y="345" type="curve" smooth="yes"/>
      <point x="36" y="344"/>
      <point x="36" y="338"/>
      <point x="37" y="333" type="curve"/>
      <point x="101" y="333" type="line"/>
      <point x="101" y="231"/>
      <point x="100" y="155"/>
      <point x="96" y="119" type="curve" smooth="yes"/>
      <point x="91" y="73"/>
      <point x="77" y="41"/>
      <point x="33" y="25" type="curve"/>
      <point x="29" y="-3" type="line"/>
      <point x="75" y="0"/>
      <point x="101" y="0"/>
      <point x="131" y="0" type="curve" smooth="yes"/>
      <point x="162" y="0"/>
      <point x="184" y="0"/>
      <point x="233" y="-3" type="curve"/>
    </contour>
  </outline>
</glyph>
<glyph name="f_f_i" format="2">
  <advance width="782"/>
  <unicode hex="FB03"/>
  <note>
f_f_i
</note>
  <outline>
    <contour>
      <point x="240" y="25" type="line"/>
      <point x="179" y="52" type="line"/>
      <point x="175" y="101"/>
      <point x="175" y="184"/>
      <point x="175" y="282" type="curve" smooth="yes"/>
      <point x="175" y="333" type="line"/>
      <point x="352" y="333" type="line"/>
      <point x="352" y="231"/>
      <point x="348" y="155"/>
      <point x="346" y="116" type="curve" smooth="yes"/>
      <point x="344" y="59"/>
      <point x="332" y="35"/>
      <point x="304" y="25" type="curve"/>
      <point x="299" y="-3" type="line"/>
      <point x="345" y="0"/>
      <point x="361" y="0"/>
      <point x="392" y="0" type="curve" smooth="yes"/>
      <point x="423" y="0"/>
      <point x="451" y="0"/>
      <point x="490" y="-3" type="curve"/>
      <point x="494" y="25" type="line"/>
      <point x="429" y="52" type="line"/>
      <point x="425" y="101"/>
      <point x="425" y="184"/>
      <point x="425" y="282" type="curve" smooth="yes"/>
      <point x="425" y="333" type="line"/>
      <point x="553" y="333" type="line" smooth="yes"/>
      <point x="589" y="333"/>
      <point x="615" y="316"/>
      <point x="615" y="264" type="curve" smooth="yes"/>
      <point x="615" y="124" type="line" smooth="yes"/>
      <point x="615" y="84"/>
      <point x="605" y="35"/>
      <point x="565" y="27" type="curve"/>
      <point x="559" y="-2" type="line"/>
      <point x="597" y="0"/>
      <point x="627" y="0"/>
      <point x="654" y="0" type="curve" smooth="yes"/>
      <point x="683" y="0"/>
      <point x="716" y="0"/>
      <point x="762" y="-3" type="curve"/>
      <point x="768" y="25" type="line"/>
      <point x="689" y="52" type="line"/>
      <point x="689" y="102" type="line" smooth="yes"/>
      <point x="689" y="197"/>
      <point x="684" y="304"/>
      <point x="696" y="398" type="curve"/>
      <point x="425" y="387" type="line"/>
      <point x="425" y="439" type="line" smooth="yes"/>
      <point x="425" y="505"/>
      <point x="439" y="611"/>
      <point x="519" y="611" type="curve" smooth="yes"/>
      <point x="559" y="611"/>
      <point x="611" y="585"/>
      <point x="619" y="535" type="curve"/>
      <point x="625" y="533"/>
      <point x="636" y="531"/>
      <point x="645" y="531" type="curve" smooth="yes"/>
      <point x="654" y="531"/>
      <point x="668" y="533"/>
      <point x="673" y="535" type="curve"/>
      <point x="681" y="647" type="line"/>
      <point x="654" y="654"/>
      <point x="581" y="665"/>
      <point x="537" y="668" type="curve"/>
      <point x="495" y="661"/>
      <point x="460" y="642"/>
      <point x="432" y="616" type="curve"/>
      <point x="399" y="628"/>
      <point x="332" y="648"/>
      <point x="320" y="648" type="curve" smooth="yes"/>
      <point x="202" y="648"/>
      <point x="101" y="547"/>
      <point x="101" y="424" type="curve" smooth="yes"/>
      <point x="101" y="375" type="line"/>
      <point x="39" y="372" type="line"/>
      <point x="38" y="369"/>
      <point x="37" y="359"/>
      <point x="37" y="345" type="curve" smooth="yes"/>
      <point x="37" y="344"/>
      <point x="37" y="338"/>
      <point x="38" y="333" type="curve"/>
      <point x="101" y="333" type="line"/>
      <point x="101" y="231"/>
      <point x="100" y="155"/>
      <point x="96" y="119" type="curve" smooth="yes"/>
      <point x="91" y="73"/>
      <point x="77" y="41"/>
      <point x="33" y="25" type="curve"/>
      <point x="29" y="-3" type="line"/>
      <point x="75" y="0"/>
      <point x="101" y="0"/>
      <point x="132" y="0" type="curve" smooth="yes"/>
      <point x="163" y="0"/>
      <point x="186" y="0"/>
      <point x="235" y="-3" type="curve"/>
    </contour>
    <contour>
      <point x="352" y="385" type="line"/>
      <point x="175" y="378" type="line"/>
      <point x="175" y="439" type="line" smooth="yes"/>
      <point x="175" y="533"/>
      <point x="221" y="590"/>
      <point x="286" y="590" type="curve" smooth="yes"/>
      <point x="318" y="590"/>
      <point x="356" y="576"/>
      <point x="389" y="563" type="curve"/>
      <point x="364" y="521"/>
      <point x="352" y="472"/>
      <point x="352" y="424" type="curve" smooth="yes"/>
    </contour>
  </outline>
</glyph>
<glyph name="C.001" format="2">
  <advance width="659"/>
  <note>
C
</note>
  <outline>
    <contour>
      <point x="37" y="296" type="curve" smooth="yes"/>
      <point x="37" y="142"/>
      <point x="139" y="-20"/>
      <point x="370" y="-20" type="curve" smooth="yes"/>
      <point x="506" y="-20"/>
      <point x="560" y="4"/>
      <point x="597" y="35" type="curve"/>
      <point x="627" y="184" type="line"/>
      <point x="623" y="188"/>
      <point x="614" y="191"/>
      <point x="604" y="191" type="curve" smooth="yes"/>
      <point x="599" y="191"/>
      <point x="592" y="190"/>
      <point x="587" y="188" type="curve"/>
      <point x="555" y="54"/>
      <point x="493" y="36"/>
      <point x="386" y="36" type="curve" smooth="yes"/>
      <point x="215" y="36"/>
      <point x="138" y="192"/>
      <point x="138" y="314" type="curve" smooth="yes"/>
      <point x="138" y="484"/>
      <point x="210" y="583"/>
      <point x="380" y="583" type="curve" smooth="yes"/>
      <point x="487" y="583"/>
      <point x="539" y="562"/>
      <point x="551" y="440" type="curve"/>
      <point x="554" y="438"/>
      <point x="564" y="437"/>
      <point x="572" y="437" type="curve" smooth="yes"/>
      <point x="580" y="437"/>
      <point x="589" y="439"/>
      <point x="592" y="442" type="curve"/>
      <point x="611" y="626" type="line"/>
      <point x="600" y="624"/>
      <point x="583" y="622"/>
      <point x="566" y="622" type="curve" smooth="yes"/>
      <point x="549" y="622"/>
      <point x="527" y="624"/>
      <point x="493" y="627" type="curve" smooth="yes"/>
      <point x="472" y="630"/>
      <point x="438" y="634"/>
      <point x="399" y="634" type="curve" smooth="yes"/>
      <point x="202" y="634"/>
      <point x="37" y="533"/>
    </contour>
  </outline>
</glyph>
<glyph name="E.001" format="2">
  <advance width="552"/>
  <note>
E
</note>
  <outline>
    <contour>
      <point x="115" y="529" type="curve" smooth="yes"/>
      <point x="115" y="107" type="line" smooth="yes"/>
      <point x="115" y="36"/>
      <point x="88" y="32"/>
      <point x="35" y="23" type="curve"/>
      <point x="33" y="-7" type="line"/>
      <point x="102" y="2"/>
      <point x="174" y="3"/>
      <point x="238" y="3" type="curve" smooth="yes"/>
      <point x="329" y="3"/>
      <point x="410" y="1"/>
      <point x="492" y="-7" type="curve"/>
      <point x="529" y="171" type="line"/>
      <point x="525" y="173"/>
      <point x="517" y="174"/>
      <point x="508" y="174" type="curve" smooth="yes"/>
      <point x="501" y="174"/>
      <point x="492" y="173"/>
      <point x="488" y="171" type="curve"/>
      <point x="468" y="59"/>
      <point x="396" y="44"/>
      <point x="309" y="44" type="curve" smooth="yes"/>
      <point x="297" y="44" type="line" smooth="yes"/>
      <point x="230" y="44"/>
      <point x="200" y="78"/>
      <point x="200" y="132" type="curve" smooth="yes"/>
      <point x="200" y="250" type="line" smooth="yes"/>
      <point x="200" y="290"/>
      <point x="203" y="290"/>
      <point x="242" y="290" type="curve" smooth="yes"/>
      <point x="297" y="290" type="line" smooth="yes"/>
      <point x="344" y="290"/>
      <point x="380" y="288"/>
      <point x="393" y="236" type="curve"/>
      <point x="421" y="236" type="line"/>
      <point x="439" y="394" type="line"/>
      <point x="411" y="394" type="line"/>
      <point x="396" y="341"/>
      <point x="365" y="336"/>
      <point x="306" y="336" type="curve" smooth="yes"/>
      <point x="242" y="336" type="line" smooth="yes"/>
      <point x="203" y="336"/>
      <point x="200" y="337"/>
      <point x="200" y="377" type="curve" smooth="yes"/>
      <point x="200" y="502" type="line" smooth="yes"/>
      <point x="200" y="567"/>
      <point x="200" y="574"/>
      <point x="264" y="574" type="curve" smooth="yes"/>
      <point x="361" y="574"/>
      <point x="433" y="567"/>
      <point x="450" y="466" type="curve"/>
      <point x="452" y="464"/>
      <point x="458" y="462"/>
      <point x="466" y="462" type="curve" smooth="yes"/>
      <point x="473" y="462"/>
      <point x="481" y="464"/>
      <point x="485" y="466" type="curve"/>
      <point x="479" y="633" type="line"/>
      <point x="423" y="617"/>
      <point x="317" y="615"/>
      <point x="236" y="615" type="curve" smooth="yes"/>
      <point x="158" y="615"/>
      <point x="119" y="615"/>
      <point x="41" y="622" type="curve"/>
      <point x="37" y="590" type="line"/>
      <point x="75" y="584"/>
      <point x="115" y="576"/>
    </contour>
  </outline>
</glyph>
<glyph name="G.001" format="2">
  <advance width="711"/>
  <note>
G
</note>
  <outline>
    <contour>
      <point x="37" y="297" type="curve" smooth="yes"/>
      <point x="37" y="151"/>
      <point x="127" y="-20"/>
      <point x="376" y="-20" type="curve" smooth="yes"/>
      <point x="473" y="-20"/>
      <point x="543" y="-11"/>
      <point x="633" y="21" type="curve"/>
      <point x="620" y="61"/>
      <point x="617" y="95"/>
      <point x="617" y="130" type="curve" smooth="yes"/>
      <point x="617" y="180"/>
      <point x="623" y="224"/>
      <point x="672" y="242" type="curve"/>
      <point x="679" y="290" type="line"/>
      <point x="601" y="282"/>
      <point x="555" y="281"/>
      <point x="519" y="281" type="curve" smooth="yes"/>
      <point x="469" y="281"/>
      <point x="442" y="281"/>
      <point x="411" y="284" type="curve"/>
      <point x="403" y="238" type="line"/>
      <point x="516" y="223"/>
      <point x="530" y="213"/>
      <point x="530" y="125" type="curve" smooth="yes"/>
      <point x="530" y="53"/>
      <point x="492" y="28"/>
      <point x="372" y="28" type="curve" smooth="yes"/>
      <point x="222" y="28"/>
      <point x="142" y="172"/>
      <point x="142" y="322" type="curve" smooth="yes"/>
      <point x="142" y="471"/>
      <point x="221" y="591"/>
      <point x="392" y="591" type="curve" smooth="yes"/>
      <point x="496" y="591"/>
      <point x="540" y="546"/>
      <point x="551" y="449" type="curve"/>
      <point x="554" y="446"/>
      <point x="565" y="445"/>
      <point x="572" y="445" type="curve" smooth="yes"/>
      <point x="581" y="445"/>
      <point x="590" y="447"/>
      <point x="594" y="450" type="curve"/>
      <point x="613" y="625" type="line"/>
      <point x="600" y="623"/>
      <point x="583" y="622"/>
      <point x="571" y="622" type="curve" smooth="yes"/>
      <point x="548" y="622"/>
      <point x="525" y="625"/>
      <point x="511" y="627" type="curve" smooth="yes"/>
      <point x="474" y="631"/>
      <point x="442" y="634"/>
      <point x="410" y="634" type="curve" smooth="yes"/>
      <point x="213" y="634"/>
      <point x="37" y="533"/>
    </contour>
  </outline>
</glyph>
<glyph name="I.001" format="2">
  <advance width="339"/>
  <note>
I
</note>
  <outline>
    <contour>
      <point x="37" y="25" type="curve"/>
      <point x="34" y="-3" type="line"/>
      <point x="94" y="0"/>
      <point x="128" y="0"/>
      <point x="169" y="0" type="curve" smooth="yes"/>
      <point x="209" y="0"/>
      <point x="241" y="0"/>
      <point x="300" y="-3" type="curve"/>
      <point x="304" y="25" type="line"/>
      <point x="247" y="32"/>
      <point x="213" y="58"/>
      <point x="213" y="95" type="curve" smooth="yes"/>
      <point x="213" y="519" type="line" smooth="yes"/>
      <point x="213" y="563"/>
      <point x="236" y="583"/>
      <point x="301" y="590" type="curve"/>
      <point x="306" y="618" type="line"/>
      <point x="240" y="615"/>
      <point x="207" y="615"/>
      <point x="169" y="615" type="curve" smooth="yes"/>
      <point x="132" y="615"/>
      <point x="96" y="615"/>
      <point x="37" y="618" type="curve"/>
      <point x="33" y="590" type="line"/>
      <point x="94" y="583"/>
      <point x="127" y="563"/>
      <point x="127" y="519" type="curve" smooth="yes"/>
      <point x="127" y="95" type="line" smooth="yes"/>
      <point x="127" y="58"/>
      <point x="104" y="33"/>
    </contour>
  </outline>
</glyph>
<glyph name="J.001" format="2">
  <advance width="349"/>
  <note>
J
</note>
  <outline>
    <contour>
      <point x="139" y="157" type="curve" smooth="yes"/>
      <point x="139" y="62" type="line" smooth="yes"/>
      <point x="139" y="-79"/>
      <point x="128" y="-173"/>
      <point x="33" y="-173" type="curve" smooth="yes"/>
      <point x="7" y="-173"/>
      <point x="-13" y="-167"/>
      <point x="-65" y="-136" type="curve"/>
      <point x="-81" y="-158"/>
      <point x="-86" y="-184"/>
      <point x="-86" y="-211" type="curve"/>
      <point x="-65" y="-231"/>
      <point x="-20" y="-247"/>
      <point x="12" y="-247" type="curve" smooth="yes"/>
      <point x="87" y="-247"/>
      <point x="174" y="-164"/>
      <point x="199" y="-100" type="curve" smooth="yes"/>
      <point x="220" y="-47"/>
      <point x="223" y="61"/>
      <point x="223" y="160" type="curve" smooth="yes"/>
      <point x="223" y="488" type="line" smooth="yes"/>
      <point x="223" y="544"/>
      <point x="242" y="578"/>
      <point x="311" y="587" type="curve"/>
      <point x="317" y="618" type="line"/>
      <point x="269" y="616"/>
      <point x="212" y="615"/>
      <point x="170" y="615" type="curve" smooth="yes"/>
      <point x="128" y="615"/>
      <point x="87" y="616"/>
      <point x="37" y="618" type="curve"/>
      <point x="33" y="590" type="line"/>
      <point x="130" y="560" type="line"/>
      <point x="139" y="425"/>
      <point x="139" y="265"/>
    </contour>
    <contour>
      <point x="139" y="157" type="curve" smooth="yes"/>
      <point x="139" y="62" type="line" smooth="yes"/>
      <point x="139" y="-79"/>
      <point x="128" y="-173"/>
      <point x="33" y="-173" type="curve" smooth="yes"/>
      <point x="7" y="-173"/>
      <point x="-13" y="-167"/>
      <point x="-65" y="-136" type="curve"/>
      <point x="-81" y="-158"/>
      <point x="-86" y="-184"/>
      <point x="-86" y="-211" type="curve"/>
      <point x="-65" y="-231"/>
      <point x="-20" y="-247"/>
      <point x="12" y="-247" type="curve" smooth="yes"/>
      <point x="87" y="-247"/>
      <point x="174" y="-164"/>
      <point x="199" y="-100" type="curve" smooth="yes"/>
      <point x="220" y="-47"/>
      <point x="223" y="61"/>
      <point x="223" y="160" type="curve" smooth="yes"/>
      <point x="223" y="488" type="line" smooth="yes"/>
      <point x="223" y="544"/>
      <point x="242" y="578"/>
      <point x="311" y="587" type="curve"/>
      <point x="317" y="618" type="line"/>
      <point x="269" y="616"/>
      <point x="212" y="615"/>
      <point x="170" y="615" type="curve" smooth="yes"/>
      <point x="128" y="615"/>
      <point x="87" y="616"/>
      <point x="37" y="618" type="curve"/>
      <point x="33" y="590" type="line"/>
      <point x="130" y="560" type="line"/>
      <point x="139" y="425"/>
      <point x="139" y="265"/>
    </contour>
  </outline>
</glyph>
<glyph name="P.001" format="2">
  <advance width="554"/>
  <note>
P
</note>
  <outline>
    <contour>
      <point x="36" y="25" type="curve"/>
      <point x="33" y="-3" type="line"/>
      <point x="85" y="-1"/>
      <point x="134" y="0"/>
      <point x="182" y="0" type="curve" smooth="yes"/>
      <point x="229" y="0"/>
      <point x="281" y="1"/>
      <point x="331" y="-3" type="curve"/>
      <point x="335" y="25" type="line"/>
      <point x="211" y="62" type="line"/>
      <point x="211" y="225" type="line"/>
      <point x="272" y="232" type="line" smooth="yes"/>
      <point x="371" y="243"/>
      <point x="517" y="291"/>
      <point x="517" y="441" type="curve" smooth="yes"/>
      <point x="517" y="548"/>
      <point x="463" y="626"/>
      <point x="308" y="626" type="curve" smooth="yes"/>
      <point x="223" y="626"/>
      <point x="128" y="617"/>
      <point x="44" y="607" type="curve"/>
      <point x="41" y="573" type="line"/>
      <point x="98" y="568"/>
      <point x="124" y="543"/>
      <point x="124" y="515" type="curve" smooth="yes"/>
      <point x="124" y="105" type="line" smooth="yes"/>
      <point x="124" y="63"/>
      <point x="88" y="44"/>
    </contour>
    <contour>
      <point x="425" y="423" type="curve" smooth="yes"/>
      <point x="425" y="319"/>
      <point x="362" y="278"/>
      <point x="272" y="278" type="curve" smooth="yes"/>
      <point x="249" y="278"/>
      <point x="229" y="281"/>
      <point x="211" y="289" type="curve"/>
      <point x="211" y="568" type="line"/>
      <point x="233" y="575"/>
      <point x="270" y="579"/>
      <point x="290" y="579" type="curve" smooth="yes"/>
      <point x="384" y="579"/>
      <point x="425" y="506"/>
    </contour>
  </outline>
</glyph>
<glyph name="Q.001" format="2">
  <advance width="713"/>
  <note>
Q
</note>
  <outline>
    <contour>
      <point x="37" y="292" type="curve" smooth="yes"/>
      <point x="37" y="219"/>
      <point x="76" y="106"/>
      <point x="147" y="49" type="curve" smooth="yes"/>
      <point x="200" y="7"/>
      <point x="277" y="-9"/>
      <point x="337" y="-20" type="curve" smooth="yes"/>
      <point x="430" y="-36"/>
      <point x="511" y="-180"/>
      <point x="675" y="-180" type="curve" smooth="yes"/>
      <point x="726" y="-180"/>
      <point x="811" y="-151"/>
      <point x="849" y="-114" type="curve"/>
      <point x="851" y="-105"/>
      <point x="845" y="-88"/>
      <point x="835" y="-87" type="curve"/>
      <point x="795" y="-105"/>
      <point x="749" y="-116"/>
      <point x="703" y="-116" type="curve" smooth="yes"/>
      <point x="634" y="-116"/>
      <point x="552" y="-60"/>
      <point x="456" y="0" type="curve"/>
      <point x="569" y="35"/>
      <point x="676" y="143"/>
      <point x="676" y="302" type="curve" smooth="yes"/>
      <point x="676" y="506"/>
      <point x="555" y="633"/>
      <point x="369" y="633" type="curve" smooth="yes"/>
      <point x="190" y="633"/>
      <point x="37" y="519"/>
    </contour>
    <contour>
      <point x="333" y="588" type="curve" smooth="yes"/>
      <point x="529" y="588"/>
      <point x="582" y="414"/>
      <point x="582" y="294" type="curve" smooth="yes"/>
      <point x="582" y="197"/>
      <point x="547" y="32"/>
      <point x="380" y="32" type="curve" smooth="yes"/>
      <point x="210" y="32"/>
      <point x="136" y="199"/>
      <point x="136" y="317" type="curve" smooth="yes"/>
      <point x="136" y="455"/>
      <point x="203" y="588"/>
    </contour>
  </outline>
</glyph>
<glyph name="S.001" format="2">
  <advance width="456"/>
  <note>
S
</note>
  <outline>
    <contour>
      <point x="235" y="579" type="curve" smooth="yes"/>
      <point x="295" y="579"/>
      <point x="338" y="558"/>
      <point x="345" y="466" type="curve"/>
      <point x="348" y="464"/>
      <point x="357" y="462"/>
      <point x="364" y="462" type="curve" smooth="yes"/>
      <point x="370" y="462"/>
      <point x="379" y="463"/>
      <point x="383" y="465" type="curve"/>
      <point x="409" y="604" type="line"/>
      <point x="385" y="612"/>
      <point x="278" y="631"/>
      <point x="240" y="631" type="curve" smooth="yes"/>
      <point x="126" y="631"/>
      <point x="41" y="570"/>
      <point x="41" y="472" type="curve" smooth="yes"/>
      <point x="41" y="395"/>
      <point x="94" y="336"/>
      <point x="186" y="282" type="curve" smooth="yes"/>
      <point x="286" y="223"/>
      <point x="333" y="186"/>
      <point x="333" y="129" type="curve" smooth="yes"/>
      <point x="333" y="63"/>
      <point x="268" y="35"/>
      <point x="218" y="35" type="curve" smooth="yes"/>
      <point x="140" y="35"/>
      <point x="88" y="62"/>
      <point x="75" y="180" type="curve"/>
      <point x="72" y="181"/>
      <point x="65" y="182"/>
      <point x="60" y="182" type="curve" smooth="yes"/>
      <point x="50" y="182"/>
      <point x="41" y="179"/>
      <point x="37" y="176" type="curve"/>
      <point x="33" y="26" type="line"/>
      <point x="74" y="1"/>
      <point x="155" y="-17"/>
      <point x="196" y="-17" type="curve" smooth="yes"/>
      <point x="305" y="-17"/>
      <point x="419" y="49"/>
      <point x="419" y="176" type="curve" smooth="yes"/>
      <point x="419" y="241"/>
      <point x="389" y="279"/>
      <point x="262" y="348" type="curve" smooth="yes"/>
      <point x="165" y="401"/>
      <point x="120" y="439"/>
      <point x="120" y="508" type="curve" smooth="yes"/>
      <point x="120" y="554"/>
      <point x="169" y="579"/>
    </contour>
  </outline>
</glyph>
<glyph name="T.001" format="2">
  <advance width="650"/>
  <note>
T
</note>
  <outline>
    <contour>
      <point x="428" y="565" type="curve" smooth="yes"/>
      <point x="521" y="565"/>
      <point x="549" y="559"/>
      <point x="577" y="459" type="curve"/>
      <point x="582" y="457"/>
      <point x="588" y="456"/>
      <point x="594" y="456" type="curve" smooth="yes"/>
      <point x="602" y="456"/>
      <point x="609" y="458"/>
      <point x="614" y="461" type="curve"/>
      <point x="601" y="629" type="line"/>
      <point x="506" y="608"/>
      <point x="388" y="605"/>
      <point x="324" y="605" type="curve" smooth="yes"/>
      <point x="257" y="605"/>
      <point x="144" y="608"/>
      <point x="49" y="629" type="curve"/>
      <point x="36" y="461" type="line"/>
      <point x="41" y="458"/>
      <point x="48" y="456"/>
      <point x="56" y="456" type="curve" smooth="yes"/>
      <point x="62" y="456"/>
      <point x="68" y="457"/>
      <point x="73" y="459" type="curve"/>
      <point x="101" y="559"/>
      <point x="130" y="565"/>
      <point x="220" y="565" type="curve" smooth="yes"/>
      <point x="271" y="565"/>
      <point x="282" y="562"/>
      <point x="282" y="505" type="curve" smooth="yes"/>
      <point x="282" y="108" type="line" smooth="yes"/>
      <point x="282" y="51"/>
      <point x="247" y="37"/>
      <point x="170" y="25" type="curve"/>
      <point x="164" y="-3" type="line"/>
      <point x="233" y="0"/>
      <point x="288" y="0"/>
      <point x="323" y="0" type="curve" smooth="yes"/>
      <point x="358" y="0"/>
      <point x="414" y="0"/>
      <point x="480" y="-3" type="curve"/>
      <point x="486" y="25" type="line"/>
      <point x="412" y="36"/>
      <point x="368" y="45"/>
      <point x="368" y="104" type="curve" smooth="yes"/>
      <point x="368" y="505" type="line" smooth="yes"/>
      <point x="368" y="561"/>
      <point x="379" y="565"/>
    </contour>
  </outline>
</glyph>
<glyph name="T.002" format="2">
  <advance width="650"/>
  <note>
T
</note>
  <outline>
    <contour>
      <point x="428" y="565" type="curve" smooth="yes"/>
      <point x="532" y="565"/>
      <point x="564" y="556"/>
      <point x="560" y="456" type="curve"/>
      <point x="565" y="454"/>
      <point x="571" y="453"/>
      <point x="577" y="453" type="curve" smooth="yes"/>
      <point x="585" y="453"/>
      <point x="592" y="455"/>
      <point x="597" y="458" type="curve"/>
      <point x="625" y="630" type="line"/>
      <point x="620" y="640"/>
      <point x="606" y="646"/>
      <point x="586" y="643" type="curve"/>
      <point x="542" y="611"/>
      <point x="392" y="605"/>
      <point x="324" y="605" type="curve" smooth="yes"/>
      <point x="271" y="605"/>
      <point x="225" y="608"/>
      <point x="182" y="612" type="curve" smooth="yes"/>
      <point x="136" y="616"/>
      <point x="119" y="622"/>
      <point x="98" y="643" type="curve"/>
      <point x="79" y="645"/>
      <point x="63" y="637"/>
      <point x="55" y="629" type="curve"/>
      <point x="28" y="460" type="line"/>
      <point x="36" y="457"/>
      <point x="43" y="455"/>
      <point x="51" y="455" type="curve" smooth="yes"/>
      <point x="57" y="455"/>
      <point x="63" y="456"/>
      <point x="68" y="458" type="curve"/>
      <point x="96" y="569"/>
      <point x="136" y="565"/>
      <point x="220" y="565" type="curve" smooth="yes"/>
      <point x="271" y="565"/>
      <point x="282" y="562"/>
      <point x="282" y="505" type="curve" smooth="yes"/>
      <point x="282" y="108" type="line" smooth="yes"/>
      <point x="282" y="51"/>
      <point x="247" y="37"/>
      <point x="170" y="25" type="curve"/>
      <point x="164" y="-3" type="line"/>
      <point x="233" y="0"/>
      <point x="288" y="0"/>
      <point x="323" y="0" type="curve" smooth="yes"/>
      <point x="358" y="0"/>
      <point x="414" y="0"/>
      <point x="480" y="-3" type="curve"/>
      <point x="486" y="25" type="line"/>
      <point x="412" y="36"/>
      <point x="368" y="45"/>
      <point x="368" y="104" type="curve" smooth="yes"/>
      <point x="368" y="505" type="line" smooth="yes"/>
      <point x="368" y="561"/>
      <point x="379" y="565"/>
    </contour>
  </outline>
</glyph>
<glyph name="U.001" format="2">
  <advance width="681"/>
  <note>
U
</note>
  <outline>
    <contour>
      <point x="96" y="528" type="curve" smooth="yes"/>
      <point x="96" y="189" type="line" smooth="yes"/>
      <point x="96" y="69"/>
      <point x="178" y="-20"/>
      <point x="342" y="-20" type="curve" smooth="yes"/>
      <point x="424" y="-20"/>
      <point x="584" y="24"/>
      <point x="584" y="185" type="curve" smooth="yes"/>
      <point x="584" y="530" type="line" smooth="yes"/>
      <point x="584" y="564"/>
      <point x="610" y="584"/>
      <point x="643" y="590" type="curve"/>
      <point x="648" y="618" type="line"/>
      <point x="585" y="615"/>
      <point x="571" y="615"/>
      <point x="538" y="615" type="curve" smooth="yes"/>
      <point x="506" y="615"/>
      <point x="488" y="615"/>
      <point x="430" y="618" type="curve"/>
      <point x="426" y="590" type="line"/>
      <point x="516" y="569" type="line"/>
      <point x="516" y="190" type="line" smooth="yes"/>
      <point x="516" y="96"/>
      <point x="447" y="40"/>
      <point x="358" y="40" type="curve" smooth="yes"/>
      <point x="253" y="40"/>
      <point x="180" y="120"/>
      <point x="180" y="208" type="curve" smooth="yes"/>
      <point x="180" y="566" type="line"/>
      <point x="268" y="590" type="line"/>
      <point x="274" y="618" type="line"/>
      <point x="209" y="615"/>
      <point x="192" y="615"/>
      <point x="155" y="615" type="curve" smooth="yes"/>
      <point x="119" y="615"/>
      <point x="102" y="615"/>
      <point x="36" y="618" type="curve"/>
      <point x="33" y="590" type="line"/>
      <point x="58" y="585"/>
      <point x="96" y="564"/>
    </contour>
  </outline>
</glyph>
<glyph name="X.001" format="2">
  <advance width="688"/>
  <note>
X
</note>
  <outline>
    <contour>
      <point x="158" y="522" type="curve" smooth="yes"/>
      <point x="295" y="304" type="line" smooth="yes"/>
      <point x="298" y="300"/>
      <point x="297" y="297"/>
      <point x="295" y="294" type="curve" smooth="yes"/>
      <point x="166" y="101" type="line" smooth="yes"/>
      <point x="133" y="51"/>
      <point x="82" y="32"/>
      <point x="39" y="25" type="curve"/>
      <point x="33" y="-3" type="line"/>
      <point x="89" y="0"/>
      <point x="112" y="0"/>
      <point x="151" y="0" type="curve" smooth="yes"/>
      <point x="190" y="0"/>
      <point x="216" y="0"/>
      <point x="279" y="-3" type="curve"/>
      <point x="286" y="25" type="line"/>
      <point x="198" y="47" type="line"/>
      <point x="326" y="240" type="line" smooth="yes"/>
      <point x="328" y="243"/>
      <point x="338" y="243"/>
      <point x="340" y="240" type="curve" smooth="yes"/>
      <point x="458" y="45" type="line"/>
      <point x="387" y="26" type="line"/>
      <point x="382" y="-3" type="line"/>
      <point x="447" y="0"/>
      <point x="469" y="0"/>
      <point x="510" y="0" type="curve" smooth="yes"/>
      <point x="551" y="0"/>
      <point x="573" y="0"/>
      <point x="640" y="-3" type="curve"/>
      <point x="645" y="26" type="line"/>
      <point x="596" y="37"/>
      <point x="556" y="50"/>
      <point x="528" y="95" type="curve" smooth="yes"/>
      <point x="391" y="315" type="line" smooth="yes"/>
      <point x="388" y="318"/>
      <point x="388" y="318"/>
      <point x="391" y="322" type="curve" smooth="yes"/>
      <point x="520" y="519" type="line" smooth="yes"/>
      <point x="552" y="568"/>
      <point x="583" y="580"/>
      <point x="648" y="590" type="curve"/>
      <point x="655" y="618" type="line"/>
      <point x="592" y="615"/>
      <point x="571" y="615"/>
      <point x="531" y="615" type="curve" smooth="yes"/>
      <point x="491" y="615"/>
      <point x="469" y="615"/>
      <point x="406" y="618" type="curve"/>
      <point x="400" y="590" type="line"/>
      <point x="486" y="568" type="line"/>
      <point x="358" y="377" type="line" smooth="yes"/>
      <point x="356" y="372"/>
      <point x="349" y="372"/>
      <point x="346" y="377" type="curve" smooth="yes"/>
      <point x="223" y="573" type="line"/>
      <point x="295" y="590" type="line"/>
      <point x="300" y="618" type="line"/>
      <point x="235" y="615"/>
      <point x="213" y="615"/>
      <point x="173" y="615" type="curve" smooth="yes"/>
      <point x="133" y="615"/>
      <point x="113" y="615"/>
      <point x="47" y="618" type="curve"/>
      <point x="41" y="590" type="line"/>
      <point x="101" y="574"/>
      <point x="130" y="567"/>
    </contour>
  </outline>
</glyph>
<glyph name="Y.001" format="2">
  <advance width="680"/>
  <note>
Y
</note>
  <outline>
    <contour>
      <point x="146" y="512" type="curve" smooth="yes"/>
      <point x="267" y="281" type="line" smooth="yes"/>
      <point x="271" y="274"/>
      <point x="281" y="258"/>
      <point x="281" y="243" type="curve" smooth="yes"/>
      <point x="281" y="96" type="line" smooth="yes"/>
      <point x="281" y="52"/>
      <point x="240" y="36"/>
      <point x="194" y="25" type="curve"/>
      <point x="190" y="-3" type="line"/>
      <point x="255" y="0"/>
      <point x="279" y="0"/>
      <point x="322" y="0" type="curve" smooth="yes"/>
      <point x="365" y="0"/>
      <point x="389" y="0"/>
      <point x="453" y="-3" type="curve"/>
      <point x="458" y="25" type="line"/>
      <point x="405" y="36"/>
      <point x="368" y="48"/>
      <point x="368" y="96" type="curve" smooth="yes"/>
      <point x="368" y="247" type="line" smooth="yes"/>
      <point x="368" y="255"/>
      <point x="367" y="274"/>
      <point x="371" y="281" type="curve" smooth="yes"/>
      <point x="519" y="510" type="line" smooth="yes"/>
      <point x="549" y="557"/>
      <point x="575" y="573"/>
      <point x="641" y="590" type="curve"/>
      <point x="647" y="618" type="line"/>
      <point x="557" y="615"/>
      <point x="504" y="615"/>
      <point x="413" y="618" type="curve"/>
      <point x="407" y="590" type="line"/>
      <point x="484" y="571" type="line"/>
      <point x="342" y="342" type="line" smooth="yes"/>
      <point x="340" y="338"/>
      <point x="330" y="338"/>
      <point x="328" y="342" type="curve" smooth="yes"/>
      <point x="207" y="573" type="line"/>
      <point x="273" y="590" type="line"/>
      <point x="278" y="618" type="line"/>
      <point x="223" y="615"/>
      <point x="195" y="615"/>
      <point x="158" y="615" type="curve" smooth="yes"/>
      <point x="122" y="615"/>
      <point x="95" y="615"/>
      <point x="38" y="618" type="curve"/>
      <point x="33" y="590" type="line"/>
      <point x="88" y="576"/>
      <point x="123" y="557"/>
    </contour>
  </outline>
</glyph>
<glyph name="a.001" format="2">
  <advance width="396"/>
  <note>
a
</note>
  <outline>
    <contour>
      <point x="174" y="344" type="curve" smooth="yes"/>
      <point x="222" y="344"/>
      <point x="244" y="313"/>
      <point x="244" y="229" type="curve"/>
      <point x="202" y="223"/>
      <point x="79" y="188"/>
      <point x="41" y="166" type="curve"/>
      <point x="26" y="141"/>
      <point x="23" y="112"/>
      <point x="23" y="95" type="curve" smooth="yes"/>
      <point x="23" y="34"/>
      <point x="60" y="2"/>
      <point x="114" y="-10" type="curve"/>
      <point x="245" y="47" type="line"/>
      <point x="245" y="23"/>
      <point x="246" y="8"/>
      <point x="263" y="-11" type="curve"/>
      <point x="295" y="1"/>
      <point x="351" y="11"/>
      <point x="387" y="15" type="curve"/>
      <point x="392" y="48" type="line"/>
      <point x="385" y="47"/>
      <point x="377" y="47"/>
      <point x="376" y="47" type="curve" smooth="yes"/>
      <point x="343" y="47"/>
      <point x="318" y="61"/>
      <point x="318" y="110" type="curve" smooth="yes"/>
      <point x="318" y="263" type="line" smooth="yes"/>
      <point x="318" y="342"/>
      <point x="294" y="397"/>
      <point x="211" y="397" type="curve" smooth="yes"/>
      <point x="164" y="397"/>
      <point x="96" y="379"/>
      <point x="46" y="350" type="curve"/>
      <point x="46" y="255" type="line"/>
      <point x="52" y="252"/>
      <point x="61" y="251"/>
      <point x="69" y="251" type="curve" smooth="yes"/>
      <point x="77" y="251"/>
      <point x="86" y="252"/>
      <point x="91" y="255" type="curve"/>
      <point x="112" y="330" type="line"/>
      <point x="140" y="339"/>
      <point x="155" y="344"/>
    </contour>
    <contour>
      <point x="244" y="196" type="curve"/>
      <point x="244" y="92" type="line"/>
      <point x="211" y="66"/>
      <point x="173" y="59"/>
      <point x="133" y="59" type="curve"/>
      <point x="114" y="74"/>
      <point x="101" y="93"/>
      <point x="101" y="115" type="curve" smooth="yes"/>
      <point x="101" y="121"/>
      <point x="101" y="138"/>
      <point x="104" y="147" type="curve"/>
      <point x="128" y="166"/>
      <point x="196" y="185"/>
    </contour>
  </outline>
</glyph>
<glyph name="c.002" format="2">
  <advance width="388"/>
  <note>
c
</note>
  <outline>
    <contour>
      <point x="363" y="54" type="curve"/>
      <point x="362" y="65"/>
      <point x="351" y="82"/>
      <point x="342" y="89" type="curve"/>
      <point x="311" y="60"/>
      <point x="286" y="47"/>
      <point x="244" y="47" type="curve" smooth="yes"/>
      <point x="165" y="47"/>
      <point x="112" y="106"/>
      <point x="112" y="201" type="curve" smooth="yes"/>
      <point x="112" y="293"/>
      <point x="157" y="352"/>
      <point x="231" y="352" type="curve" smooth="yes"/>
      <point x="281" y="352"/>
      <point x="309" y="327"/>
      <point x="324" y="268" type="curve"/>
      <point x="327" y="267"/>
      <point x="333" y="266"/>
      <point x="338" y="266" type="curve" smooth="yes"/>
      <point x="343" y="266"/>
      <point x="350" y="267"/>
      <point x="353" y="268" type="curve"/>
      <point x="362" y="382" type="line"/>
      <point x="340" y="382"/>
      <point x="332" y="383"/>
      <point x="320" y="386" type="curve" smooth="yes"/>
      <point x="293" y="392"/>
      <point x="271" y="397"/>
      <point x="245" y="397" type="curve" smooth="yes"/>
      <point x="198" y="397"/>
      <point x="153" y="380"/>
      <point x="115" y="350" type="curve" smooth="yes"/>
      <point x="72" y="316"/>
      <point x="33" y="258"/>
      <point x="33" y="178" type="curve" smooth="yes"/>
      <point x="33" y="66"/>
      <point x="113" y="-10"/>
      <point x="209" y="-10" type="curve" smooth="yes"/>
      <point x="240" y="-10"/>
      <point x="315" y="-2"/>
    </contour>
  </outline>
</glyph>
<glyph name="c.003" format="2">
  <advance width="379"/>
  <note>
c
</note>
  <outline>
    <contour>
      <point x="356" y="40" type="curve"/>
      <point x="356" y="49"/>
      <point x="350" y="77"/>
      <point x="343" y="84" type="curve"/>
      <point x="293" y="59"/>
      <point x="262" y="48"/>
      <point x="235" y="48" type="curve" smooth="yes"/>
      <point x="205" y="48"/>
      <point x="168" y="61"/>
      <point x="147" y="84" type="curve" smooth="yes"/>
      <point x="125" y="107"/>
      <point x="111" y="149"/>
      <point x="111" y="204" type="curve" smooth="yes"/>
      <point x="111" y="285"/>
      <point x="143" y="352"/>
      <point x="228" y="352" type="curve" smooth="yes"/>
      <point x="255" y="352"/>
      <point x="275" y="344"/>
      <point x="290" y="329" type="curve" smooth="yes"/>
      <point x="307" y="311"/>
      <point x="314" y="290"/>
      <point x="318" y="252" type="curve"/>
      <point x="321" y="251"/>
      <point x="327" y="250"/>
      <point x="332" y="250" type="curve" smooth="yes"/>
      <point x="337" y="250"/>
      <point x="344" y="251"/>
      <point x="347" y="252" type="curve"/>
      <point x="356" y="291"/>
      <point x="357" y="340"/>
      <point x="356" y="382" type="curve"/>
      <point x="342" y="382"/>
      <point x="329" y="383"/>
      <point x="314" y="386" type="curve" smooth="yes"/>
      <point x="299" y="389"/>
      <point x="268" y="397"/>
      <point x="239" y="397" type="curve" smooth="yes"/>
      <point x="195" y="397"/>
      <point x="155" y="378"/>
      <point x="121" y="351" type="curve" smooth="yes"/>
      <point x="71" y="311"/>
      <point x="33" y="252"/>
      <point x="33" y="180" type="curve" smooth="yes"/>
      <point x="33" y="119"/>
      <point x="58" y="64"/>
      <point x="92" y="33" type="curve" smooth="yes"/>
      <point x="122" y="5"/>
      <point x="167" y="-10"/>
      <point x="201" y="-10" type="curve" smooth="yes"/>
      <point x="239" y="-10"/>
      <point x="289" y="8"/>
    </contour>
  </outline>
</glyph>
<glyph name="d.001" format="2">
  <advance width="487"/>
  <note>
d
</note>
  <outline>
    <contour>
      <point x="333" y="480" type="curve" smooth="yes"/>
      <point x="333" y="384" type="line"/>
      <point x="314" y="386"/>
      <point x="271" y="397"/>
      <point x="265" y="397" type="curve" smooth="yes"/>
      <point x="142" y="397"/>
      <point x="33" y="318"/>
      <point x="33" y="160" type="curve" smooth="yes"/>
      <point x="33" y="53"/>
      <point x="114" y="-19"/>
      <point x="194" y="-19" type="curve" smooth="yes"/>
      <point x="200" y="-19"/>
      <point x="312" y="22"/>
      <point x="333" y="34" type="curve"/>
      <point x="334" y="22"/>
      <point x="339" y="1"/>
      <point x="347" y="-14" type="curve"/>
      <point x="385" y="0"/>
      <point x="440" y="9"/>
      <point x="477" y="11" type="curve"/>
      <point x="481" y="45" type="line"/>
      <point x="474" y="44"/>
      <point x="466" y="44"/>
      <point x="466" y="44" type="curve"/>
      <point x="419" y="44"/>
      <point x="412" y="56"/>
      <point x="411" y="97" type="curve" smooth="yes"/>
      <point x="409" y="155"/>
      <point x="408" y="229"/>
      <point x="408" y="301" type="curve" smooth="yes"/>
      <point x="408" y="373" type="line" smooth="yes"/>
      <point x="408" y="493"/>
      <point x="411" y="616"/>
      <point x="423" y="666" type="curve"/>
      <point x="384" y="666"/>
      <point x="298" y="644"/>
      <point x="261" y="628" type="curve"/>
      <point x="258" y="599" type="line"/>
      <point x="263" y="600"/>
      <point x="270" y="600"/>
      <point x="271" y="600" type="curve" smooth="yes"/>
      <point x="324" y="600"/>
      <point x="333" y="559"/>
    </contour>
    <contour>
      <point x="229" y="45" type="curve" smooth="yes"/>
      <point x="179" y="45"/>
      <point x="116" y="85"/>
      <point x="116" y="187" type="curve" smooth="yes"/>
      <point x="116" y="275"/>
      <point x="161" y="352"/>
      <point x="240" y="352" type="curve" smooth="yes"/>
      <point x="269" y="352"/>
      <point x="312" y="341"/>
      <point x="333" y="336" type="curve"/>
      <point x="333" y="78" type="line"/>
      <point x="312" y="67"/>
      <point x="266" y="45"/>
    </contour>
  </outline>
</glyph>
<glyph name="e.001" format="2">
  <advance width="385"/>
  <note>
e
</note>
  <outline>
    <contour>
      <point x="362" y="68" type="curve"/>
      <point x="362" y="75"/>
      <point x="358" y="90"/>
      <point x="352" y="94" type="curve"/>
      <point x="327" y="72"/>
      <point x="295" y="53"/>
      <point x="250" y="53" type="curve" smooth="yes"/>
      <point x="170" y="53"/>
      <point x="112" y="111"/>
      <point x="105" y="193" type="curve"/>
      <point x="358" y="208" type="line"/>
      <point x="360" y="216"/>
      <point x="361" y="227"/>
      <point x="361" y="237" type="curve" smooth="yes"/>
      <point x="361" y="312"/>
      <point x="313" y="397"/>
      <point x="218" y="397" type="curve" smooth="yes"/>
      <point x="136" y="397"/>
      <point x="33" y="333"/>
      <point x="33" y="192" type="curve" smooth="yes"/>
      <point x="33" y="67"/>
      <point x="114" y="-10"/>
      <point x="201" y="-10" type="curve" smooth="yes"/>
      <point x="250" y="-10"/>
      <point x="326" y="13"/>
    </contour>
    <contour>
      <point x="282" y="244" type="curve"/>
      <point x="105" y="228" type="line"/>
      <point x="105" y="284"/>
      <point x="133" y="348"/>
      <point x="193" y="348" type="curve" smooth="yes"/>
      <point x="245" y="348"/>
      <point x="282" y="299"/>
    </contour>
  </outline>
</glyph>
<glyph name="eight.lf" format="2">
  <advance width="483"/>
  <note>
eight
</note>
  <outline>
    <contour>
      <point x="185" y="323" type="curve"/>
      <point x="153" y="304"/>
      <point x="49" y="236"/>
      <point x="49" y="134" type="curve" smooth="yes"/>
      <point x="49" y="51"/>
      <point x="117" y="-11"/>
      <point x="230" y="-11" type="curve" smooth="yes"/>
      <point x="299" y="-11"/>
      <point x="435" y="46"/>
      <point x="435" y="166" type="curve" smooth="yes"/>
      <point x="435" y="236"/>
      <point x="409" y="274"/>
      <point x="304" y="344" type="curve"/>
      <point x="375" y="392"/>
      <point x="404" y="430"/>
      <point x="404" y="484" type="curve" smooth="yes"/>
      <point x="404" y="570"/>
      <point x="333" y="614"/>
      <point x="257" y="614" type="curve" smooth="yes"/>
      <point x="157" y="614"/>
      <point x="79" y="540"/>
      <point x="79" y="462" type="curve" smooth="yes"/>
      <point x="79" y="398"/>
      <point x="129" y="357"/>
    </contour>
    <contour>
      <point x="245" y="563" type="curve" smooth="yes"/>
      <point x="301" y="563"/>
      <point x="332" y="533"/>
      <point x="332" y="482" type="curve" smooth="yes"/>
      <point x="332" y="432"/>
      <point x="300" y="399"/>
      <point x="259" y="371" type="curve"/>
      <point x="178" y="415"/>
      <point x="155" y="445"/>
      <point x="155" y="485" type="curve" smooth="yes"/>
      <point x="155" y="539"/>
      <point x="196" y="563"/>
    </contour>
    <contour>
      <point x="227" y="294" type="curve"/>
      <point x="323" y="241"/>
      <point x="355" y="201"/>
      <point x="355" y="147" type="curve" smooth="yes"/>
      <point x="355" y="81"/>
      <point x="306" y="45"/>
      <point x="251" y="45" type="curve" smooth="yes"/>
      <point x="152" y="45"/>
      <point x="125" y="99"/>
      <point x="125" y="155" type="curve" smooth="yes"/>
      <point x="125" y="209"/>
      <point x="150" y="241"/>
    </contour>
  </outline>
</glyph>
<glyph name="f_f_h" format="2">
  <advance width="1035"/>
  <note>
f_f_h
</note>
  <outline>
    <contour>
      <point x="239" y="25" type="line"/>
      <point x="178" y="52" type="line"/>
      <point x="174" y="101"/>
      <point x="174" y="184"/>
      <point x="174" y="282" type="curve" smooth="yes"/>
      <point x="174" y="333" type="line"/>
      <point x="352" y="333" type="line"/>
      <point x="352" y="231"/>
      <point x="348" y="155"/>
      <point x="346" y="116" type="curve" smooth="yes"/>
      <point x="344" y="59"/>
      <point x="332" y="35"/>
      <point x="304" y="25" type="curve"/>
      <point x="299" y="-3" type="line"/>
      <point x="345" y="0"/>
      <point x="361" y="0"/>
      <point x="392" y="0" type="curve" smooth="yes"/>
      <point x="423" y="0"/>
      <point x="451" y="0"/>
      <point x="490" y="-3" type="curve"/>
      <point x="494" y="25" type="line"/>
      <point x="429" y="52" type="line"/>
      <point x="425" y="101"/>
      <point x="425" y="184"/>
      <point x="425" y="282" type="curve" smooth="yes"/>
      <point x="425" y="333" type="line"/>
      <point x="551" y="333" type="line"/>
      <point x="558" y="347"/>
      <point x="560" y="368"/>
      <point x="560" y="387" type="curve" smooth="yes"/>
      <point x="560" y="388"/>
      <point x="560" y="392"/>
      <point x="560" y="395" type="curve"/>
      <point x="425" y="389" type="line"/>
      <point x="425" y="439" type="line" smooth="yes"/>
      <point x="425" y="525"/>
      <point x="457" y="611"/>
      <point x="504" y="611" type="curve" smooth="yes"/>
      <point x="539" y="611"/>
      <point x="585" y="601"/>
      <point x="608" y="592" type="curve"/>
      <point x="619" y="556"/>
      <point x="619" y="402"/>
      <point x="619" y="361" type="curve" smooth="yes"/>
      <point x="619" y="265"/>
      <point x="616" y="177"/>
      <point x="615" y="135" type="curve" smooth="yes"/>
      <point x="614" y="73"/>
      <point x="599" y="45"/>
      <point x="560" y="25" type="curve"/>
      <point x="556" y="-3" type="line"/>
      <point x="591" y="0"/>
      <point x="617" y="0"/>
      <point x="642" y="0" type="curve" smooth="yes"/>
      <point x="668" y="0"/>
      <point x="704" y="0"/>
      <point x="740" y="-3" type="curve"/>
      <point x="744" y="25" type="line"/>
      <point x="690" y="48" type="line"/>
      <point x="693" y="288" type="line"/>
      <point x="719" y="302"/>
      <point x="790" y="336"/>
      <point x="808" y="336" type="curve" smooth="yes"/>
      <point x="825" y="336"/>
      <point x="878" y="305"/>
      <point x="878" y="256" type="curve" smooth="yes"/>
      <point x="878" y="43" type="line"/>
      <point x="825" y="25" type="line"/>
      <point x="820" y="-3" type="line"/>
      <point x="851" y="0"/>
      <point x="894" y="0"/>
      <point x="916" y="0" type="curve" smooth="yes"/>
      <point x="938" y="0"/>
      <point x="966" y="0"/>
      <point x="1009" y="-3" type="curve"/>
      <point x="1015" y="25" type="line"/>
      <point x="967" y="34"/>
      <point x="958" y="55"/>
      <point x="954" y="88" type="curve" smooth="yes"/>
      <point x="951" y="116"/>
      <point x="951" y="167"/>
      <point x="951" y="217" type="curve" smooth="yes"/>
      <point x="951" y="293"/>
      <point x="948" y="396"/>
      <point x="848" y="397" type="curve" smooth="yes"/>
      <point x="792" y="397"/>
      <point x="745" y="365"/>
      <point x="693" y="331" type="curve"/>
      <point x="693" y="352" type="line" smooth="yes"/>
      <point x="693" y="452"/>
      <point x="689" y="566"/>
      <point x="705" y="666" type="curve"/>
      <point x="688" y="666"/>
      <point x="656" y="661"/>
      <point x="626" y="654" type="curve"/>
      <point x="615" y="657"/>
      <point x="581" y="665"/>
      <point x="538" y="668" type="curve"/>
      <point x="500" y="661"/>
      <point x="461" y="643"/>
      <point x="432" y="616" type="curve"/>
      <point x="399" y="628"/>
      <point x="332" y="648"/>
      <point x="320" y="648" type="curve" smooth="yes"/>
      <point x="202" y="648"/>
      <point x="101" y="547"/>
      <point x="101" y="424" type="curve" smooth="yes"/>
      <point x="101" y="375" type="line"/>
      <point x="39" y="372" type="line"/>
      <point x="38" y="369"/>
      <point x="37" y="359"/>
      <point x="37" y="345" type="curve" smooth="yes"/>
      <point x="37" y="344"/>
      <point x="37" y="338"/>
      <point x="38" y="333" type="curve"/>
      <point x="101" y="333" type="line"/>
      <point x="101" y="231"/>
      <point x="100" y="155"/>
      <point x="96" y="119" type="curve" smooth="yes"/>
      <point x="91" y="73"/>
      <point x="77" y="41"/>
      <point x="33" y="25" type="curve"/>
      <point x="29" y="-3" type="line"/>
      <point x="75" y="0"/>
      <point x="101" y="0"/>
      <point x="132" y="0" type="curve" smooth="yes"/>
      <point x="163" y="0"/>
      <point x="186" y="0"/>
      <point x="235" y="-3" type="curve"/>
    </contour>
    <contour>
      <point x="352" y="385" type="line"/>
      <point x="174" y="379" type="line"/>
      <point x="174" y="439" type="line" smooth="yes"/>
      <point x="174" y="533"/>
      <point x="220" y="590"/>
      <point x="285" y="590" type="curve" smooth="yes"/>
      <point x="317" y="590"/>
      <point x="356" y="576"/>
      <point x="389" y="563" type="curve"/>
      <point x="364" y="521"/>
      <point x="352" y="472"/>
      <point x="352" y="424" type="curve" smooth="yes"/>
    </contour>
  </outline>
</glyph>
<glyph name="f_f_j" format="2">
  <advance width="760"/>
  <note>
f_f_j
</note>
  <outline>
    <contour>
      <point x="239" y="25" type="line"/>
      <point x="178" y="52" type="line"/>
      <point x="174" y="101"/>
      <point x="174" y="184"/>
      <point x="174" y="282" type="curve" smooth="yes"/>
      <point x="174" y="333" type="line"/>
      <point x="352" y="333" type="line"/>
      <point x="352" y="231"/>
      <point x="348" y="155"/>
      <point x="346" y="116" type="curve" smooth="yes"/>
      <point x="344" y="59"/>
      <point x="332" y="35"/>
      <point x="304" y="25" type="curve"/>
      <point x="299" y="-3" type="line"/>
      <point x="345" y="0"/>
      <point x="361" y="0"/>
      <point x="392" y="0" type="curve" smooth="yes"/>
      <point x="423" y="0"/>
      <point x="438" y="0"/>
      <point x="490" y="-3" type="curve"/>
      <point x="494" y="25" type="line"/>
      <point x="428" y="52" type="line"/>
      <point x="425" y="101"/>
      <point x="425" y="184"/>
      <point x="425" y="282" type="curve" smooth="yes"/>
      <point x="425" y="333" type="line"/>
      <point x="554" y="333" type="line" smooth="yes"/>
      <point x="582" y="333"/>
      <point x="603" y="323"/>
      <point x="611" y="307" type="curve"/>
      <point x="616" y="244"/>
      <point x="616" y="181"/>
      <point x="616" y="117" type="curve" smooth="yes"/>
      <point x="616" y="8"/>
      <point x="619" y="-198"/>
      <point x="484" y="-193" type="curve"/>
      <point x="485" y="-200"/>
      <point x="514" y="-234"/>
      <point x="519" y="-234" type="curve"/>
      <point x="662" y="-165"/>
      <point x="689" y="-62"/>
      <point x="689" y="7" type="curve" smooth="yes"/>
      <point x="689" y="232" type="line" smooth="yes"/>
      <point x="689" y="283"/>
      <point x="687" y="347"/>
      <point x="695" y="398" type="curve"/>
      <point x="425" y="387" type="line"/>
      <point x="425" y="439" type="line" smooth="yes"/>
      <point x="425" y="505"/>
      <point x="439" y="611"/>
      <point x="519" y="611" type="curve" smooth="yes"/>
      <point x="560" y="611"/>
      <point x="610" y="585"/>
      <point x="618" y="535" type="curve"/>
      <point x="624" y="533"/>
      <point x="635" y="531"/>
      <point x="644" y="531" type="curve" smooth="yes"/>
      <point x="653" y="531"/>
      <point x="666" y="533"/>
      <point x="671" y="535" type="curve"/>
      <point x="680" y="647" type="line"/>
      <point x="653" y="654"/>
      <point x="582" y="665"/>
      <point x="538" y="668" type="curve"/>
      <point x="495" y="661"/>
      <point x="460" y="642"/>
      <point x="432" y="616" type="curve"/>
      <point x="399" y="628"/>
      <point x="332" y="648"/>
      <point x="320" y="648" type="curve" smooth="yes"/>
      <point x="202" y="648"/>
      <point x="101" y="547"/>
      <point x="101" y="424" type="curve" smooth="yes"/>
      <point x="101" y="375" type="line"/>
      <point x="39" y="372" type="line"/>
      <point x="38" y="369"/>
      <point x="37" y="359"/>
      <point x="37" y="345" type="curve" smooth="yes"/>
      <point x="37" y="344"/>
      <point x="37" y="338"/>
      <point x="38" y="333" type="curve"/>
      <point x="101" y="333" type="line"/>
      <point x="101" y="231"/>
      <point x="100" y="155"/>
      <point x="96" y="119" type="curve" smooth="yes"/>
      <point x="91" y="73"/>
      <point x="77" y="41"/>
      <point x="33" y="25" type="curve"/>
      <point x="29" y="-3" type="line"/>
      <point x="75" y="0"/>
      <point x="101" y="0"/>
      <point x="132" y="0" type="curve" smooth="yes"/>
      <point x="163" y="0"/>
      <point x="186" y="0"/>
      <point x="235" y="-3" type="curve"/>
    </contour>
    <contour>
      <point x="352" y="385" type="line"/>
      <point x="174" y="378" type="line"/>
      <point x="174" y="439" type="line" smooth="yes"/>
      <point x="174" y="533"/>
      <point x="220" y="590"/>
      <point x="285" y="590" type="curve" smooth="yes"/>
      <point x="317" y="590"/>
      <point x="356" y="576"/>
      <point x="389" y="563" type="curve"/>
      <point x="364" y="521"/>
      <point x="352" y="472"/>
      <point x="352" y="424" type="curve" smooth="yes"/>
    </contour>
  </outline>
</glyph>
<glyph name="f_f_k" format="2">
  <advance width="995"/>
  <note>
f_f_k
</note>
  <outline>
    <contour>
      <point x="239" y="25" type="line"/>
      <point x="178" y="52" type="line"/>
      <point x="174" y="101"/>
      <point x="174" y="184"/>
      <point x="174" y="282" type="curve" smooth="yes"/>
      <point x="174" y="332" type="line"/>
      <point x="352" y="332" type="line"/>
      <point x="352" y="231"/>
      <point x="348" y="155"/>
      <point x="346" y="116" type="curve" smooth="yes"/>
      <point x="344" y="59"/>
      <point x="332" y="35"/>
      <point x="304" y="25" type="curve"/>
      <point x="299" y="-3" type="line"/>
      <point x="345" y="0"/>
      <point x="361" y="0"/>
      <point x="392" y="0" type="curve" smooth="yes"/>
      <point x="423" y="0"/>
      <point x="451" y="0"/>
      <point x="490" y="-3" type="curve"/>
      <point x="494" y="25" type="line"/>
      <point x="429" y="52" type="line"/>
      <point x="425" y="101"/>
      <point x="425" y="184"/>
      <point x="425" y="282" type="curve" smooth="yes"/>
      <point x="425" y="332" type="line"/>
      <point x="551" y="332" type="line"/>
      <point x="558" y="346"/>
      <point x="560" y="367"/>
      <point x="560" y="387" type="curve" smooth="yes"/>
      <point x="560" y="388"/>
      <point x="560" y="392"/>
      <point x="560" y="395" type="curve"/>
      <point x="425" y="389" type="line"/>
      <point x="425" y="439" type="line" smooth="yes"/>
      <point x="425" y="488"/>
      <point x="443" y="610"/>
      <point x="504" y="610" type="curve" smooth="yes"/>
      <point x="532" y="610"/>
      <point x="579" y="603"/>
      <point x="605" y="593" type="curve"/>
      <point x="616" y="509"/>
      <point x="616" y="419"/>
      <point x="616" y="333" type="curve" smooth="yes"/>
      <point x="616" y="123" type="line" smooth="yes"/>
      <point x="616" y="80"/>
      <point x="608" y="35"/>
      <point x="557" y="25" type="curve"/>
      <point x="551" y="-3" type="line"/>
      <point x="600" y="0"/>
      <point x="618" y="0"/>
      <point x="647" y="0" type="curve" smooth="yes"/>
      <point x="676" y="0"/>
      <point x="697" y="0"/>
      <point x="735" y="-3" type="curve"/>
      <point x="740" y="25" type="line"/>
      <point x="692" y="43" type="line"/>
      <point x="692" y="161" type="line"/>
      <point x="743" y="205" type="line"/>
      <point x="754" y="162"/>
      <point x="815" y="26"/>
      <point x="881" y="-9" type="curve"/>
      <point x="906" y="-3"/>
      <point x="955" y="0"/>
      <point x="987" y="0" type="curve"/>
      <point x="995" y="30" type="line"/>
      <point x="909" y="40"/>
      <point x="846" y="134"/>
      <point x="814" y="195" type="curve" smooth="yes"/>
      <point x="789" y="241" type="line"/>
      <point x="803" y="255"/>
      <point x="881" y="358"/>
      <point x="948" y="364" type="curve" smooth="yes"/>
      <point x="957" y="365" type="line"/>
      <point x="965" y="395" type="line"/>
      <point x="930" y="392"/>
      <point x="903" y="392"/>
      <point x="867" y="392" type="curve" smooth="yes"/>
      <point x="830" y="392"/>
      <point x="820" y="392"/>
      <point x="779" y="395" type="curve"/>
      <point x="772" y="365" type="line"/>
      <point x="821" y="353" type="line"/>
      <point x="801" y="309"/>
      <point x="715" y="237"/>
      <point x="692" y="220" type="curve"/>
      <point x="692" y="377" type="line" smooth="yes"/>
      <point x="692" y="455"/>
      <point x="688" y="566"/>
      <point x="708" y="640" type="curve"/>
      <point x="653" y="654"/>
      <point x="594" y="664"/>
      <point x="537" y="668" type="curve"/>
      <point x="495" y="661"/>
      <point x="460" y="642"/>
      <point x="432" y="616" type="curve"/>
      <point x="399" y="628"/>
      <point x="332" y="648"/>
      <point x="320" y="648" type="curve" smooth="yes"/>
      <point x="202" y="648"/>
      <point x="101" y="547"/>
      <point x="101" y="424" type="curve" smooth="yes"/>
      <point x="101" y="375" type="line"/>
      <point x="39" y="372" type="line"/>
      <point x="38" y="369"/>
      <point x="37" y="359"/>
      <point x="37" y="345" type="curve" smooth="yes"/>
      <point x="37" y="344"/>
      <point x="37" y="337"/>
      <point x="38" y="332" type="curve"/>
      <point x="101" y="332" type="line"/>
      <point x="101" y="230"/>
      <point x="100" y="155"/>
      <point x="96" y="122" type="curve" smooth="yes"/>
      <point x="91" y="73"/>
      <point x="77" y="41"/>
      <point x="33" y="25" type="curve"/>
      <point x="29" y="-3" type="line"/>
      <point x="75" y="0"/>
      <point x="101" y="0"/>
      <point x="132" y="0" type="curve" smooth="yes"/>
      <point x="163" y="0"/>
      <point x="186" y="0"/>
      <point x="235" y="-3" type="curve"/>
    </contour>
    <contour>
      <point x="352" y="385" type="line"/>
      <point x="174" y="379" type="line"/>
      <point x="174" y="439" type="line" smooth="yes"/>
      <point x="174" y="533"/>
      <point x="220" y="590"/>
      <point x="285" y="590" type="curve" smooth="yes"/>
      <point x="317" y="590"/>
      <point x="356" y="576"/>
      <point x="389" y="563" type="curve"/>
      <point x="364" y="521"/>
      <point x="352" y="472"/>
      <point x="352" y="424" type="curve" smooth="yes"/>
    </contour>
  </outline>
</glyph>
<glyph name="f_k" format="2">
  <advance width="746"/>
  <note>
f_k
</note>
  <outline>
    <contour>
      <point x="485" y="-3" type="curve"/>
      <point x="491" y="25" type="line"/>
      <point x="442" y="43" type="line"/>
      <point x="442" y="162" type="line"/>
      <point x="493" y="205" type="line"/>
      <point x="505" y="162"/>
      <point x="565" y="26"/>
      <point x="631" y="-9" type="curve"/>
      <point x="656" y="-3"/>
      <point x="706" y="0"/>
      <point x="737" y="0" type="curve"/>
      <point x="746" y="30" type="line"/>
      <point x="659" y="40"/>
      <point x="596" y="135"/>
      <point x="564" y="195" type="curve" smooth="yes"/>
      <point x="539" y="241" type="line"/>
      <point x="554" y="255"/>
      <point x="631" y="358"/>
      <point x="698" y="364" type="curve" smooth="yes"/>
      <point x="708" y="365" type="line"/>
      <point x="716" y="395" type="line"/>
      <point x="699" y="392"/>
      <point x="654" y="392"/>
      <point x="617" y="392" type="curve" smooth="yes"/>
      <point x="580" y="392"/>
      <point x="571" y="392"/>
      <point x="530" y="395" type="curve"/>
      <point x="522" y="365" type="line"/>
      <point x="572" y="353" type="line"/>
      <point x="551" y="309"/>
      <point x="465" y="237"/>
      <point x="442" y="220" type="curve"/>
      <point x="442" y="371" type="line" smooth="yes"/>
      <point x="442" y="471"/>
      <point x="444" y="585"/>
      <point x="459" y="641" type="curve"/>
      <point x="407" y="654"/>
      <point x="339" y="664"/>
      <point x="290" y="668" type="curve"/>
      <point x="172" y="647"/>
      <point x="104" y="538"/>
      <point x="104" y="424" type="curve" smooth="yes"/>
      <point x="104" y="380" type="line"/>
      <point x="42" y="372" type="line"/>
      <point x="41" y="369"/>
      <point x="40" y="359"/>
      <point x="40" y="345" type="curve" smooth="yes"/>
      <point x="40" y="344"/>
      <point x="40" y="338"/>
      <point x="41" y="333" type="curve"/>
      <point x="104" y="333" type="line"/>
      <point x="104" y="231"/>
      <point x="103" y="155"/>
      <point x="100" y="119" type="curve" smooth="yes"/>
      <point x="95" y="73"/>
      <point x="81" y="41"/>
      <point x="36" y="25" type="curve"/>
      <point x="33" y="-3" type="line"/>
      <point x="79" y="0"/>
      <point x="107" y="0"/>
      <point x="138" y="0" type="curve" smooth="yes"/>
      <point x="169" y="0"/>
      <point x="190" y="0"/>
      <point x="238" y="-3" type="curve"/>
      <point x="244" y="25" type="line"/>
      <point x="181" y="52" type="line"/>
      <point x="177" y="101"/>
      <point x="177" y="184"/>
      <point x="177" y="282" type="curve" smooth="yes"/>
      <point x="177" y="333" type="line"/>
      <point x="303" y="333" type="line"/>
      <point x="309" y="347"/>
      <point x="312" y="368"/>
      <point x="312" y="387" type="curve" smooth="yes"/>
      <point x="312" y="388"/>
      <point x="312" y="392"/>
      <point x="311" y="395" type="curve"/>
      <point x="177" y="386" type="line"/>
      <point x="177" y="439" type="line" smooth="yes"/>
      <point x="177" y="525"/>
      <point x="207" y="611"/>
      <point x="255" y="611" type="curve" smooth="yes"/>
      <point x="293" y="611"/>
      <point x="335" y="600"/>
      <point x="357" y="595" type="curve"/>
      <point x="367" y="534"/>
      <point x="368" y="421"/>
      <point x="368" y="336" type="curve" smooth="yes"/>
      <point x="368" y="251"/>
      <point x="368" y="177"/>
      <point x="367" y="135" type="curve" smooth="yes"/>
      <point x="365" y="73"/>
      <point x="358" y="35"/>
      <point x="317" y="25" type="curve"/>
      <point x="312" y="-3" type="line"/>
      <point x="355" y="0"/>
      <point x="375" y="0"/>
      <point x="404" y="0" type="curve" smooth="yes"/>
      <point x="434" y="0"/>
      <point x="448" y="0"/>
    </contour>
  </outline>
</glyph>
<glyph name="five.osf" format="2">
  <advance width="456"/>
  <note>
five.onum
</note>
  <outline>
    <contour>
      <point x="91" y="466" type="curve"/>
      <point x="74" y="195" type="line"/>
      <point x="76" y="190"/>
      <point x="94" y="173"/>
      <point x="101" y="170" type="curve"/>
      <point x="174" y="170" type="line" smooth="yes"/>
      <point x="250" y="170"/>
      <point x="323" y="124"/>
      <point x="323" y="34" type="curve" smooth="yes"/>
      <point x="323" y="-20"/>
      <point x="270" y="-96"/>
      <point x="200" y="-96" type="curve" smooth="yes"/>
      <point x="149" y="-96"/>
      <point x="104" y="-88"/>
      <point x="74" y="-36" type="curve"/>
      <point x="65" y="-36"/>
      <point x="32" y="-47"/>
      <point x="31" y="-48" type="curve"/>
      <point x="73" y="-142" type="line"/>
      <point x="102" y="-149"/>
      <point x="134" y="-155"/>
      <point x="165" y="-155" type="curve" smooth="yes"/>
      <point x="294" y="-155"/>
      <point x="412" y="-53"/>
      <point x="412" y="61" type="curve" smooth="yes"/>
      <point x="412" y="151"/>
      <point x="339" y="234"/>
      <point x="236" y="234" type="curve" smooth="yes"/>
      <point x="147" y="234" type="line"/>
      <point x="157" y="404" type="line"/>
      <point x="366" y="393" type="line"/>
      <point x="374" y="403"/>
      <point x="387" y="447"/>
      <point x="389" y="468" type="curve"/>
      <point x="348" y="463"/>
      <point x="289" y="463"/>
      <point x="237" y="463" type="curve" smooth="yes"/>
      <point x="184" y="463"/>
      <point x="141" y="465"/>
    </contour>
  </outline>
</glyph>
<glyph name="five.tosf" format="2">
  <advance width="497"/>
  <note>
five.tosf
</note>
  <outline>
    <contour>
      <point x="118" y="466" type="curve"/>
      <point x="101" y="195" type="line"/>
      <point x="103" y="190"/>
      <point x="121" y="173"/>
      <point x="128" y="170" type="curve"/>
      <point x="201" y="170" type="line" smooth="yes"/>
      <point x="277" y="170"/>
      <point x="350" y="124"/>
      <point x="350" y="34" type="curve" smooth="yes"/>
      <point x="350" y="-20"/>
      <point x="297" y="-96"/>
      <point x="227" y="-96" type="curve" smooth="yes"/>
      <point x="176" y="-96"/>
      <point x="131" y="-88"/>
      <point x="101" y="-36" type="curve"/>
      <point x="92" y="-36"/>
      <point x="59" y="-47"/>
      <point x="58" y="-48" type="curve"/>
      <point x="100" y="-142" type="line"/>
      <point x="129" y="-149"/>
      <point x="161" y="-155"/>
      <point x="190" y="-155" type="curve" smooth="yes"/>
      <point x="321" y="-155"/>
      <point x="439" y="-53"/>
      <point x="439" y="61" type="curve" smooth="yes"/>
      <point x="439" y="151"/>
      <point x="366" y="234"/>
      <point x="263" y="234" type="curve" smooth="yes"/>
      <point x="174" y="234" type="line"/>
      <point x="184" y="404" type="line"/>
      <point x="393" y="393" type="line"/>
      <point x="401" y="403"/>
      <point x="414" y="447"/>
      <point x="416" y="468" type="curve"/>
      <point x="375" y="463"/>
      <point x="316" y="463"/>
      <point x="264" y="463" type="curve" smooth="yes"/>
      <point x="211" y="463"/>
      <point x="168" y="465"/>
    </contour>
  </outline>
</glyph>
<glyph name="four.tf" format="2">
  <advance width="466"/>
  <note>
four.LT
</note>
  <outline>
    <contour>
      <point x="425" y="30" type="line"/>
      <point x="345" y="57" type="line"/>
      <point x="345" y="165" type="line"/>
      <point x="445" y="165" type="line"/>
      <point x="450" y="182"/>
      <point x="458" y="221"/>
      <point x="458" y="242" type="curve"/>
      <point x="345" y="231" type="line"/>
      <point x="345" y="324" type="line" smooth="yes"/>
      <point x="345" y="425"/>
      <point x="346" y="561"/>
      <point x="351" y="607" type="curve"/>
      <point x="332" y="607"/>
      <point x="318" y="601"/>
      <point x="303" y="595" type="curve"/>
      <point x="215" y="544"/>
      <point x="53" y="276"/>
      <point x="22" y="189" type="curve"/>
      <point x="23" y="182"/>
      <point x="33" y="169"/>
      <point x="37" y="165" type="curve"/>
      <point x="272" y="165" type="line"/>
      <point x="272" y="95" type="line" smooth="yes"/>
      <point x="272" y="63"/>
      <point x="255" y="42"/>
      <point x="222" y="35" type="curve" smooth="yes"/>
      <point x="194" y="30" type="line"/>
      <point x="187" y="-3" type="line"/>
      <point x="230" y="0"/>
      <point x="274" y="0"/>
      <point x="308" y="0" type="curve" smooth="yes"/>
      <point x="343" y="0"/>
      <point x="374" y="0"/>
      <point x="419" y="-3" type="curve"/>
    </contour>
    <contour>
      <point x="272" y="224" type="line"/>
      <point x="100" y="208" type="line"/>
      <point x="138" y="308"/>
      <point x="200" y="404"/>
      <point x="272" y="486" type="curve"/>
    </contour>
  </outline>
</glyph>
<glyph name="four.tosf" format="2">
  <advance width="497"/>
  <note>
four.tosf
</note>
  <outline>
    <contour>
      <point x="295" y="-158" type="curve"/>
      <point x="324" y="-160"/>
      <point x="355" y="-157"/>
      <point x="379" y="-146" type="curve"/>
      <point x="375" y="-107"/>
      <point x="373" y="-47"/>
      <point x="372" y="16" type="curve"/>
      <point x="461" y="16" type="line"/>
      <point x="468" y="32"/>
      <point x="479" y="73"/>
      <point x="479" y="95" type="curve"/>
      <point x="373" y="84" type="line"/>
      <point x="372" y="181" type="line" smooth="yes"/>
      <point x="371" y="284"/>
      <point x="372" y="425"/>
      <point x="376" y="473" type="curve"/>
      <point x="358" y="473"/>
      <point x="344" y="469"/>
      <point x="330" y="463" type="curve"/>
      <point x="241" y="406"/>
      <point x="54" y="132"/>
      <point x="23" y="41" type="curve"/>
      <point x="24" y="34"/>
      <point x="34" y="21"/>
      <point x="38" y="16" type="curve"/>
      <point x="302" y="16" type="line"/>
      <point x="301" y="-47"/>
      <point x="299" y="-102"/>
    </contour>
    <contour>
      <point x="303" y="76" type="line"/>
      <point x="101" y="62" type="line"/>
      <point x="141" y="166"/>
      <point x="229" y="272"/>
      <point x="302" y="358" type="curve"/>
    </contour>
  </outline>
</glyph>
<glyph name="h.001" format="2">
  <advance width="515"/>
  <note>
h
</note>
  <outline>
    <contour>
      <point x="221" y="-3" type="curve"/>
      <point x="224" y="25" type="line"/>
      <point x="170" y="48" type="line"/>
      <point x="170" y="288" type="line"/>
      <point x="196" y="302"/>
      <point x="268" y="336"/>
      <point x="294" y="336" type="curve" smooth="yes"/>
      <point x="322" y="336"/>
      <point x="356" y="296"/>
      <point x="356" y="247" type="curve" smooth="yes"/>
      <point x="356" y="43" type="line"/>
      <point x="303" y="25" type="line"/>
      <point x="298" y="-3" type="line"/>
      <point x="329" y="0"/>
      <point x="371" y="0"/>
      <point x="394" y="0" type="curve" smooth="yes"/>
      <point x="416" y="0"/>
      <point x="444" y="0"/>
      <point x="487" y="-3" type="curve"/>
      <point x="492" y="25" type="line"/>
      <point x="445" y="34"/>
      <point x="436" y="55"/>
      <point x="432" y="88" type="curve" smooth="yes"/>
      <point x="429" y="116"/>
      <point x="429" y="167"/>
      <point x="429" y="217" type="curve" smooth="yes"/>
      <point x="429" y="310"/>
      <point x="414" y="397"/>
      <point x="323" y="397" type="curve" smooth="yes"/>
      <point x="263" y="397"/>
      <point x="215" y="360"/>
      <point x="170" y="331" type="curve"/>
      <point x="170" y="352" type="line" smooth="yes"/>
      <point x="170" y="452"/>
      <point x="167" y="575"/>
      <point x="182" y="675" type="curve"/>
      <point x="148" y="675"/>
      <point x="52" y="651"/>
      <point x="22" y="636" type="curve"/>
      <point x="18" y="611" type="line"/>
      <point x="23" y="612"/>
      <point x="28" y="612"/>
      <point x="33" y="612" type="curve" smooth="yes"/>
      <point x="74" y="612"/>
      <point x="90" y="599"/>
      <point x="94" y="551" type="curve" smooth="yes"/>
      <point x="96" y="522"/>
      <point x="97" y="429"/>
      <point x="97" y="370" type="curve" smooth="yes"/>
      <point x="97" y="126" type="line" smooth="yes"/>
      <point x="97" y="72"/>
      <point x="76" y="42"/>
      <point x="27" y="25" type="curve"/>
      <point x="23" y="-3" type="line"/>
      <point x="67" y="0"/>
      <point x="102" y="0"/>
      <point x="128" y="0" type="curve" smooth="yes"/>
      <point x="153" y="0"/>
      <point x="175" y="0"/>
    </contour>
  </outline>
</glyph>
<glyph name="l.001" format="2">
  <advance width="273"/>
  <note>
l
</note>
  <outline>
    <contour>
      <point x="248" y="-3" type="curve"/>
      <point x="254" y="25" type="line"/>
      <point x="176" y="52" type="line"/>
      <point x="175" y="96"/>
      <point x="174" y="169"/>
      <point x="174" y="254" type="curve" smooth="yes"/>
      <point x="174" y="377" type="line" smooth="yes"/>
      <point x="174" y="492"/>
      <point x="177" y="616"/>
      <point x="189" y="666" type="curve"/>
      <point x="157" y="668"/>
      <point x="52" y="647"/>
      <point x="23" y="627" type="curve"/>
      <point x="20" y="601" type="line"/>
      <point x="25" y="602"/>
      <point x="31" y="602"/>
      <point x="35" y="602" type="curve" smooth="yes"/>
      <point x="77" y="602"/>
      <point x="90" y="592"/>
      <point x="96" y="542" type="curve" smooth="yes"/>
      <point x="99" y="515"/>
      <point x="100" y="423"/>
      <point x="100" y="350" type="curve" smooth="yes"/>
      <point x="100" y="258"/>
      <point x="99" y="163"/>
      <point x="97" y="123" type="curve" smooth="yes"/>
      <point x="94" y="79"/>
      <point x="75" y="32"/>
      <point x="31" y="25" type="curve"/>
      <point x="23" y="-3" type="line"/>
      <point x="53" y="0"/>
      <point x="101" y="0"/>
      <point x="135" y="0" type="curve" smooth="yes"/>
      <point x="168" y="0"/>
      <point x="207" y="0"/>
    </contour>
  </outline>
</glyph>
<glyph name="m.002" format="2">
  <advance width="734"/>
  <note>
m
</note>
  <outline>
    <contour>
      <point x="229" y="25" type="line"/>
      <point x="175" y="43" type="line"/>
      <point x="175" y="294" type="line"/>
      <point x="275" y="345" type="line"/>
      <point x="300" y="338"/>
      <point x="325" y="312"/>
      <point x="334" y="289" type="curve"/>
      <point x="334" y="43" type="line"/>
      <point x="287" y="25" type="line"/>
      <point x="282" y="-3" type="line"/>
      <point x="306" y="-1"/>
      <point x="348" y="0"/>
      <point x="370" y="0" type="curve" smooth="yes"/>
      <point x="392" y="0"/>
      <point x="432" y="-1"/>
      <point x="458" y="-3" type="curve"/>
      <point x="464" y="25" type="line"/>
      <point x="409" y="43" type="line"/>
      <point x="409" y="292" type="line"/>
      <point x="512" y="342" type="line"/>
      <point x="536" y="342"/>
      <point x="563" y="302"/>
      <point x="565" y="287" type="curve" smooth="yes"/>
      <point x="568" y="252"/>
      <point x="570" y="209"/>
      <point x="570" y="168" type="curve" smooth="yes"/>
      <point x="570" y="126"/>
      <point x="570" y="75"/>
      <point x="569" y="43" type="curve"/>
      <point x="527" y="25" type="line"/>
      <point x="521" y="-3" type="line"/>
      <point x="554" y="0"/>
      <point x="589" y="0"/>
      <point x="616" y="0" type="curve" smooth="yes"/>
      <point x="643" y="0"/>
      <point x="673" y="0"/>
      <point x="704" y="-3" type="curve"/>
      <point x="711" y="25" type="line"/>
      <point x="673" y="36"/>
      <point x="646" y="55"/>
      <point x="645" y="90" type="curve" smooth="yes"/>
      <point x="644" y="143"/>
      <point x="643" y="216"/>
      <point x="643" y="270" type="curve" smooth="yes"/>
      <point x="643" y="360"/>
      <point x="564" y="397"/>
      <point x="537" y="397" type="curve"/>
      <point x="404" y="329" type="line"/>
      <point x="389" y="351"/>
      <point x="348" y="397"/>
      <point x="296" y="397" type="curve"/>
      <point x="175" y="334" type="line"/>
      <point x="175" y="353"/>
      <point x="182" y="390"/>
      <point x="186" y="407" type="curve"/>
      <point x="155" y="407"/>
      <point x="52" y="386"/>
      <point x="26" y="373" type="curve"/>
      <point x="22" y="346" type="line"/>
      <point x="77" y="346"/>
      <point x="93" y="340"/>
      <point x="99" y="269" type="curve" smooth="yes"/>
      <point x="101" y="245"/>
      <point x="102" y="224"/>
      <point x="102" y="196" type="curve" smooth="yes"/>
      <point x="102" y="169"/>
      <point x="101" y="117"/>
      <point x="99" y="88" type="curve" smooth="yes"/>
      <point x="96" y="48"/>
      <point x="70" y="34"/>
      <point x="29" y="25" type="curve"/>
      <point x="25" y="-3" type="line"/>
      <point x="53" y="0"/>
      <point x="103" y="0"/>
      <point x="129" y="0" type="curve" smooth="yes"/>
      <point x="156" y="0"/>
      <point x="196" y="0"/>
      <point x="223" y="-3" type="curve"/>
    </contour>
  </outline>
</glyph>
